ISO-10303-21;
HEADER;
/* Generated by software containing ST-Developer
 * from STEP Tools, Inc. (www.steptools.com) 
 */
/* OPTION: using custom renumber hook */

FILE_DESCRIPTION(
/* description */ ('STEP AP242 Edition 2',
'CAx-IF Rec.Pracs.---Representation and Presentation of Product Manufa
cturing Information (PMI)---4.0---2014-10-13',
'CAx-IF Rec.Pracs.---3D Tessellated Geometry---0.4---2014-09-14','2;1',
'CAx-IF Rec.Pracs.---User Defined Attributes---1.5---2016-08-15'),
/* implementation_level */ '2;1');

FILE_NAME(
/* name */ 'Part Studio 1 - Da Rook',
/* time_stamp */ '2026-09-24T22:52:22Z',
/* author */ (''),
/* organization */ (''),
/* preprocessor_version */ 'ST-DEVELOPER v20',
/* originating_system */ 'ONSHAPE BY PTC INC, 1.221',
/* authorisation */ '  ');

FILE_SCHEMA (('AP242_MANAGED_MODEL_BASED_3D_ENGINEERING_MIM_LF { 1 0 10303 442 3 1 4 }'));
ENDSEC;

DATA;
#10=SHAPE_REPRESENTATION_RELATIONSHIP('','',#710,#11);
#11=ADVANCED_BREP_SHAPE_REPRESENTATION('',(#708),#1351);
#12=VERTEX_LOOP('',#287);
#13=PLANE('',#736);
#14=PLANE('',#762);
#15=PLANE('',#776);
#16=PLANE('',#788);
#17=PLANE('',#792);
#18=PLANE('',#800);
#19=PLANE('',#808);
#20=PLANE('',#812);
#21=PLANE('',#822);
#22=PLANE('',#826);
#23=PLANE('',#832);
#24=B_SPLINE_SURFACE_WITH_KNOTS('',3,3,((#1098,#1099,#1100,#1101,#1102,
#1103,#1104,#1105,#1106,#1107,#1108,#1109,#1110,#1111,#1112,#1113,#1114,
#1115,#1116),(#1117,#1118,#1119,#1120,#1121,#1122,#1123,#1124,#1125,#1126,
#1127,#1128,#1129,#1130,#1131,#1132,#1133,#1134,#1135),(#1136,#1137,#1138,
#1139,#1140,#1141,#1142,#1143,#1144,#1145,#1146,#1147,#1148,#1149,#1150,
#1151,#1152,#1153,#1154),(#1155,#1156,#1157,#1158,#1159,#1160,#1161,#1162,
#1163,#1164,#1165,#1166,#1167,#1168,#1169,#1170,#1171,#1172,#1173)),
 .UNSPECIFIED.,.F.,.T.,.F.,(4,4),(1,1,1,1,1,1,1,1,1,1,1,1,1,1,1,1,1,1,1,
1,1,1,1),(3.96875659688254E-15,0.868773354228164),(-1.17809724509617,-0.785398163397448,
-0.392699081698725,0.,0.392699081698724,0.785398163397448,1.17809724509617,
1.5707963267949,1.96349540849362,2.35619449019234,2.74889357189107,3.14159265358979,
3.53429173528852,3.92699081698724,4.31968989868597,4.71238898038469,5.10508806208341,
5.49778714378214,5.89048622548086,6.28318530717959,6.67588438887831,7.06858347057703,
7.46128255227576),.UNSPECIFIED.);
#25=CYLINDRICAL_SURFACE('',#717,0.012061815973834);
#26=CYLINDRICAL_SURFACE('',#722,0.00934747074218172);
#27=CYLINDRICAL_SURFACE('',#726,0.00721408825786489);
#28=CYLINDRICAL_SURFACE('',#752,0.00464171383948702);
#29=CYLINDRICAL_SURFACE('',#760,0.00524259012611288);
#30=CYLINDRICAL_SURFACE('',#772,0.00822263982565779);
#31=CYLINDRICAL_SURFACE('',#790,0.0063587373909511);
#32=CYLINDRICAL_SURFACE('',#794,0.00524259012611288);
#33=CYLINDRICAL_SURFACE('',#806,0.0029689046978869);
#34=CYLINDRICAL_SURFACE('',#810,0.0017326681730308);
#35=CYLINDRICAL_SURFACE('',#814,0.00096914198668379);
#36=CYLINDRICAL_SURFACE('',#818,0.00141458086522064);
#37=CYLINDRICAL_SURFACE('',#824,0.0029689046978869);
#38=CYLINDRICAL_SURFACE('',#830,0.00132937755854506);
#39=ORIENTED_EDGE('',*,*,#163,.T.);
#40=ORIENTED_EDGE('',*,*,#164,.F.);
#41=ORIENTED_EDGE('',*,*,#165,.T.);
#42=ORIENTED_EDGE('',*,*,#163,.F.);
#43=ORIENTED_EDGE('',*,*,#166,.T.);
#44=ORIENTED_EDGE('',*,*,#165,.F.);
#45=ORIENTED_EDGE('',*,*,#167,.T.);
#46=ORIENTED_EDGE('',*,*,#166,.F.);
#47=ORIENTED_EDGE('',*,*,#168,.T.);
#48=ORIENTED_EDGE('',*,*,#167,.F.);
#49=ORIENTED_EDGE('',*,*,#169,.T.);
#50=ORIENTED_EDGE('',*,*,#168,.F.);
#51=ORIENTED_EDGE('',*,*,#170,.T.);
#52=ORIENTED_EDGE('',*,*,#169,.F.);
#53=ORIENTED_EDGE('',*,*,#171,.T.);
#54=ORIENTED_EDGE('',*,*,#170,.F.);
#55=ORIENTED_EDGE('',*,*,#172,.T.);
#56=ORIENTED_EDGE('',*,*,#171,.F.);
#57=ORIENTED_EDGE('',*,*,#173,.T.);
#58=ORIENTED_EDGE('',*,*,#172,.F.);
#59=ORIENTED_EDGE('',*,*,#174,.T.);
#60=ORIENTED_EDGE('',*,*,#173,.F.);
#61=ORIENTED_EDGE('',*,*,#175,.T.);
#62=ORIENTED_EDGE('',*,*,#174,.F.);
#63=ORIENTED_EDGE('',*,*,#176,.T.);
#64=ORIENTED_EDGE('',*,*,#175,.F.);
#65=ORIENTED_EDGE('',*,*,#177,.T.);
#66=ORIENTED_EDGE('',*,*,#176,.F.);
#67=ORIENTED_EDGE('',*,*,#178,.T.);
#68=ORIENTED_EDGE('',*,*,#177,.F.);
#69=ORIENTED_EDGE('',*,*,#179,.T.);
#70=ORIENTED_EDGE('',*,*,#178,.F.);
#71=ORIENTED_EDGE('',*,*,#180,.T.);
#72=ORIENTED_EDGE('',*,*,#179,.F.);
#73=ORIENTED_EDGE('',*,*,#181,.T.);
#74=ORIENTED_EDGE('',*,*,#180,.F.);
#75=ORIENTED_EDGE('',*,*,#182,.T.);
#76=ORIENTED_EDGE('',*,*,#181,.F.);
#77=ORIENTED_EDGE('',*,*,#183,.T.);
#78=ORIENTED_EDGE('',*,*,#182,.F.);
#79=ORIENTED_EDGE('',*,*,#184,.T.);
#80=ORIENTED_EDGE('',*,*,#183,.F.);
#81=ORIENTED_EDGE('',*,*,#185,.T.);
#82=ORIENTED_EDGE('',*,*,#184,.F.);
#83=ORIENTED_EDGE('',*,*,#186,.T.);
#84=ORIENTED_EDGE('',*,*,#185,.F.);
#85=ORIENTED_EDGE('',*,*,#187,.T.);
#86=ORIENTED_EDGE('',*,*,#186,.F.);
#87=ORIENTED_EDGE('',*,*,#188,.T.);
#88=ORIENTED_EDGE('',*,*,#187,.F.);
#89=ORIENTED_EDGE('',*,*,#188,.F.);
#90=ORIENTED_EDGE('',*,*,#189,.T.);
#91=ORIENTED_EDGE('',*,*,#190,.T.);
#92=ORIENTED_EDGE('',*,*,#189,.F.);
#93=ORIENTED_EDGE('',*,*,#191,.T.);
#94=ORIENTED_EDGE('',*,*,#190,.F.);
#95=ORIENTED_EDGE('',*,*,#192,.T.);
#96=ORIENTED_EDGE('',*,*,#191,.F.);
#97=ORIENTED_EDGE('',*,*,#193,.T.);
#98=ORIENTED_EDGE('',*,*,#192,.F.);
#99=ORIENTED_EDGE('',*,*,#194,.T.);
#100=ORIENTED_EDGE('',*,*,#193,.F.);
#101=ORIENTED_EDGE('',*,*,#195,.T.);
#102=ORIENTED_EDGE('',*,*,#194,.F.);
#103=ORIENTED_EDGE('',*,*,#196,.T.);
#104=ORIENTED_EDGE('',*,*,#195,.F.);
#105=ORIENTED_EDGE('',*,*,#197,.T.);
#106=ORIENTED_EDGE('',*,*,#196,.F.);
#107=ORIENTED_EDGE('',*,*,#198,.T.);
#108=ORIENTED_EDGE('',*,*,#197,.F.);
#109=ORIENTED_EDGE('',*,*,#199,.T.);
#110=ORIENTED_EDGE('',*,*,#198,.F.);
#111=ORIENTED_EDGE('',*,*,#200,.T.);
#112=ORIENTED_EDGE('',*,*,#199,.F.);
#113=ORIENTED_EDGE('',*,*,#201,.T.);
#114=ORIENTED_EDGE('',*,*,#200,.F.);
#115=ORIENTED_EDGE('',*,*,#202,.T.);
#116=ORIENTED_EDGE('',*,*,#201,.F.);
#117=ORIENTED_EDGE('',*,*,#203,.T.);
#118=ORIENTED_EDGE('',*,*,#202,.F.);
#119=ORIENTED_EDGE('',*,*,#204,.T.);
#120=ORIENTED_EDGE('',*,*,#203,.F.);
#121=ORIENTED_EDGE('',*,*,#204,.F.);
#122=ORIENTED_EDGE('',*,*,#205,.T.);
#123=ORIENTED_EDGE('',*,*,#206,.T.);
#124=ORIENTED_EDGE('',*,*,#205,.F.);
#125=ORIENTED_EDGE('',*,*,#207,.T.);
#126=ORIENTED_EDGE('',*,*,#206,.F.);
#127=ORIENTED_EDGE('',*,*,#208,.T.);
#128=ORIENTED_EDGE('',*,*,#207,.F.);
#129=ORIENTED_EDGE('',*,*,#209,.T.);
#130=ORIENTED_EDGE('',*,*,#208,.F.);
#131=ORIENTED_EDGE('',*,*,#210,.T.);
#132=ORIENTED_EDGE('',*,*,#209,.F.);
#133=ORIENTED_EDGE('',*,*,#211,.T.);
#134=ORIENTED_EDGE('',*,*,#210,.F.);
#135=ORIENTED_EDGE('',*,*,#212,.T.);
#136=ORIENTED_EDGE('',*,*,#211,.F.);
#137=ORIENTED_EDGE('',*,*,#213,.T.);
#138=ORIENTED_EDGE('',*,*,#212,.F.);
#139=ORIENTED_EDGE('',*,*,#214,.T.);
#140=ORIENTED_EDGE('',*,*,#213,.F.);
#141=ORIENTED_EDGE('',*,*,#215,.T.);
#142=ORIENTED_EDGE('',*,*,#214,.F.);
#143=ORIENTED_EDGE('',*,*,#216,.T.);
#144=ORIENTED_EDGE('',*,*,#215,.F.);
#145=ORIENTED_EDGE('',*,*,#217,.T.);
#146=ORIENTED_EDGE('',*,*,#216,.F.);
#147=ORIENTED_EDGE('',*,*,#218,.T.);
#148=ORIENTED_EDGE('',*,*,#217,.F.);
#149=ORIENTED_EDGE('',*,*,#219,.T.);
#150=ORIENTED_EDGE('',*,*,#218,.F.);
#151=ORIENTED_EDGE('',*,*,#220,.T.);
#152=ORIENTED_EDGE('',*,*,#219,.F.);
#153=ORIENTED_EDGE('',*,*,#221,.T.);
#154=ORIENTED_EDGE('',*,*,#220,.F.);
#155=ORIENTED_EDGE('',*,*,#222,.T.);
#156=ORIENTED_EDGE('',*,*,#221,.F.);
#157=ORIENTED_EDGE('',*,*,#222,.F.);
#158=ORIENTED_EDGE('',*,*,#223,.T.);
#159=ORIENTED_EDGE('',*,*,#223,.F.);
#160=ORIENTED_EDGE('',*,*,#224,.T.);
#161=ORIENTED_EDGE('',*,*,#164,.T.);
#162=ORIENTED_EDGE('',*,*,#224,.F.);
#163=EDGE_CURVE('',#225,#225,#288,.T.);
#164=EDGE_CURVE('',#226,#226,#289,.T.);
#165=EDGE_CURVE('',#227,#227,#290,.T.);
#166=EDGE_CURVE('',#228,#228,#291,.T.);
#167=EDGE_CURVE('',#229,#229,#292,.T.);
#168=EDGE_CURVE('',#230,#230,#293,.T.);
#169=EDGE_CURVE('',#231,#231,#294,.T.);
#170=EDGE_CURVE('',#232,#232,#295,.T.);
#171=EDGE_CURVE('',#233,#233,#296,.T.);
#172=EDGE_CURVE('',#234,#234,#297,.T.);
#173=EDGE_CURVE('',#235,#235,#298,.T.);
#174=EDGE_CURVE('',#236,#236,#299,.T.);
#175=EDGE_CURVE('',#237,#237,#300,.T.);
#176=EDGE_CURVE('',#238,#238,#301,.T.);
#177=EDGE_CURVE('',#239,#239,#302,.T.);
#178=EDGE_CURVE('',#240,#240,#303,.T.);
#179=EDGE_CURVE('',#241,#241,#304,.T.);
#180=EDGE_CURVE('',#242,#242,#305,.T.);
#181=EDGE_CURVE('',#243,#243,#306,.T.);
#182=EDGE_CURVE('',#244,#244,#307,.T.);
#183=EDGE_CURVE('',#245,#245,#308,.T.);
#184=EDGE_CURVE('',#246,#246,#309,.T.);
#185=EDGE_CURVE('',#247,#247,#310,.T.);
#186=EDGE_CURVE('',#248,#248,#311,.T.);
#187=EDGE_CURVE('',#249,#249,#312,.T.);
#188=EDGE_CURVE('',#250,#250,#313,.T.);
#189=EDGE_CURVE('',#251,#251,#314,.T.);
#190=EDGE_CURVE('',#252,#252,#315,.T.);
#191=EDGE_CURVE('',#253,#253,#316,.T.);
#192=EDGE_CURVE('',#254,#254,#317,.T.);
#193=EDGE_CURVE('',#255,#255,#318,.T.);
#194=EDGE_CURVE('',#256,#256,#319,.T.);
#195=EDGE_CURVE('',#257,#257,#320,.T.);
#196=EDGE_CURVE('',#258,#258,#321,.T.);
#197=EDGE_CURVE('',#259,#259,#322,.T.);
#198=EDGE_CURVE('',#260,#260,#323,.T.);
#199=EDGE_CURVE('',#261,#261,#324,.T.);
#200=EDGE_CURVE('',#262,#262,#325,.T.);
#201=EDGE_CURVE('',#263,#263,#326,.T.);
#202=EDGE_CURVE('',#264,#264,#327,.T.);
#203=EDGE_CURVE('',#265,#265,#328,.T.);
#204=EDGE_CURVE('',#266,#266,#329,.T.);
#205=EDGE_CURVE('',#267,#267,#330,.T.);
#206=EDGE_CURVE('',#268,#268,#331,.T.);
#207=EDGE_CURVE('',#269,#269,#332,.T.);
#208=EDGE_CURVE('',#270,#270,#333,.T.);
#209=EDGE_CURVE('',#271,#271,#334,.T.);
#210=EDGE_CURVE('',#272,#272,#335,.T.);
#211=EDGE_CURVE('',#273,#273,#336,.T.);
#212=EDGE_CURVE('',#274,#274,#337,.T.);
#213=EDGE_CURVE('',#275,#275,#338,.T.);
#214=EDGE_CURVE('',#276,#276,#339,.T.);
#215=EDGE_CURVE('',#277,#277,#340,.T.);
#216=EDGE_CURVE('',#278,#278,#341,.T.);
#217=EDGE_CURVE('',#279,#279,#342,.T.);
#218=EDGE_CURVE('',#280,#280,#343,.T.);
#219=EDGE_CURVE('',#281,#281,#344,.T.);
#220=EDGE_CURVE('',#282,#282,#345,.T.);
#221=EDGE_CURVE('',#283,#283,#346,.T.);
#222=EDGE_CURVE('',#284,#284,#347,.T.);
#223=EDGE_CURVE('',#285,#285,#348,.T.);
#224=EDGE_CURVE('',#286,#286,#349,.T.);
#225=VERTEX_POINT('',#1089);
#226=VERTEX_POINT('',#1091);
#227=VERTEX_POINT('',#1094);
#228=VERTEX_POINT('',#1097);
#229=VERTEX_POINT('',#1175);
#230=VERTEX_POINT('',#1178);
#231=VERTEX_POINT('',#1181);
#232=VERTEX_POINT('',#1184);
#233=VERTEX_POINT('',#1187);
#234=VERTEX_POINT('',#1190);
#235=VERTEX_POINT('',#1193);
#236=VERTEX_POINT('',#1196);
#237=VERTEX_POINT('',#1199);
#238=VERTEX_POINT('',#1202);
#239=VERTEX_POINT('',#1205);
#240=VERTEX_POINT('',#1208);
#241=VERTEX_POINT('',#1211);
#242=VERTEX_POINT('',#1214);
#243=VERTEX_POINT('',#1217);
#244=VERTEX_POINT('',#1220);
#245=VERTEX_POINT('',#1223);
#246=VERTEX_POINT('',#1226);
#247=VERTEX_POINT('',#1229);
#248=VERTEX_POINT('',#1232);
#249=VERTEX_POINT('',#1235);
#250=VERTEX_POINT('',#1238);
#251=VERTEX_POINT('',#1241);
#252=VERTEX_POINT('',#1244);
#253=VERTEX_POINT('',#1247);
#254=VERTEX_POINT('',#1250);
#255=VERTEX_POINT('',#1253);
#256=VERTEX_POINT('',#1256);
#257=VERTEX_POINT('',#1259);
#258=VERTEX_POINT('',#1262);
#259=VERTEX_POINT('',#1265);
#260=VERTEX_POINT('',#1268);
#261=VERTEX_POINT('',#1271);
#262=VERTEX_POINT('',#1274);
#263=VERTEX_POINT('',#1277);
#264=VERTEX_POINT('',#1280);
#265=VERTEX_POINT('',#1283);
#266=VERTEX_POINT('',#1286);
#267=VERTEX_POINT('',#1289);
#268=VERTEX_POINT('',#1292);
#269=VERTEX_POINT('',#1295);
#270=VERTEX_POINT('',#1298);
#271=VERTEX_POINT('',#1301);
#272=VERTEX_POINT('',#1304);
#273=VERTEX_POINT('',#1307);
#274=VERTEX_POINT('',#1310);
#275=VERTEX_POINT('',#1313);
#276=VERTEX_POINT('',#1316);
#277=VERTEX_POINT('',#1319);
#278=VERTEX_POINT('',#1322);
#279=VERTEX_POINT('',#1325);
#280=VERTEX_POINT('',#1328);
#281=VERTEX_POINT('',#1331);
#282=VERTEX_POINT('',#1334);
#283=VERTEX_POINT('',#1337);
#284=VERTEX_POINT('',#1340);
#285=VERTEX_POINT('',#1343);
#286=VERTEX_POINT('',#1347);
#287=VERTEX_POINT('',#1348);
#288=CIRCLE('',#713,0.00991130646736998);
#289=CIRCLE('',#714,0.00662651684553999);
#290=CIRCLE('',#716,0.012061815973834);
#291=CIRCLE('',#718,0.012061815973834);
#292=CIRCLE('',#719,0.0113064667996921);
#293=CIRCLE('',#721,0.00934747074218172);
#294=CIRCLE('',#723,0.00934747074218172);
#295=CIRCLE('',#725,0.0072140882578649);
#296=CIRCLE('',#727,0.00721408825786488);
#297=CIRCLE('',#729,0.00760997113259215);
#298=CIRCLE('',#731,0.00577763867051977);
#299=CIRCLE('',#733,0.00554171603591818);
#300=CIRCLE('',#735,0.00640629630954642);
#301=CIRCLE('',#737,0.00546023834915538);
#302=CIRCLE('',#739,0.00507877258122174);
#303=CIRCLE('',#741,0.00621734586031813);
#304=CIRCLE('',#743,0.0067113994476356);
#305=CIRCLE('',#745,0.00685828019352335);
#306=CIRCLE('',#747,0.00524259012611288);
#307=CIRCLE('',#749,0.00368624696696986);
#308=CIRCLE('',#751,0.00464171383948702);
#309=CIRCLE('',#753,0.00464171383948702);
#310=CIRCLE('',#755,0.00524259012611288);
#311=CIRCLE('',#757,0.00567493800492662);
#312=CIRCLE('',#759,0.00524259012611288);
#313=CIRCLE('',#761,0.00524259012611288);
#314=CIRCLE('',#763,0.00600540291936774);
#315=CIRCLE('',#765,0.00581898439007501);
#316=CIRCLE('',#767,0.00717619460494894);
#317=CIRCLE('',#769,0.00761877399356741);
#318=CIRCLE('',#771,0.00822263982565779);
#319=CIRCLE('',#773,0.00822263982565779);
#320=CIRCLE('',#775,0.00952512424857992);
#321=CIRCLE('',#777,0.00909844812424559);
#322=CIRCLE('',#779,0.00867177199991125);
#323=CIRCLE('',#781,0.00846966196270365);
#324=CIRCLE('',#783,0.00835538627198024);
#325=CIRCLE('',#785,0.00772859368892092);
#326=CIRCLE('',#787,0.00721208963961977);
#327=CIRCLE('',#789,0.0063587373909511);
#328=CIRCLE('',#791,0.0063587373909511);
#329=CIRCLE('',#793,0.00524259012611288);
#330=CIRCLE('',#795,0.00524259012611288);
#331=CIRCLE('',#797,0.00557145411811352);
#332=CIRCLE('',#799,0.00584498544651048);
#333=CIRCLE('',#801,0.00464171383948702);
#334=CIRCLE('',#803,0.00377622273238081);
#335=CIRCLE('',#805,0.0029689046978869);
#336=CIRCLE('',#807,0.0029689046978869);
#337=CIRCLE('',#809,0.0017326681730308);
#338=CIRCLE('',#811,0.0017326681730308);
#339=CIRCLE('',#813,0.00096914198668379);
#340=CIRCLE('',#815,0.00096914198668379);
#341=CIRCLE('',#817,0.00141458086522064);
#342=CIRCLE('',#819,0.00141458086522064);
#343=CIRCLE('',#821,0.000969141986683787);
#344=CIRCLE('',#823,0.0029689046978869);
#345=CIRCLE('',#825,0.0029689046978869);
#346=CIRCLE('',#827,0.000234447684601728);
#347=CIRCLE('',#829,0.00132937755854506);
#348=CIRCLE('',#831,0.00132937755854506);
#349=CIRCLE('',#834,0.00347525466652293);
#350=EDGE_LOOP('',(#39));
#351=EDGE_LOOP('',(#40));
#352=EDGE_LOOP('',(#41));
#353=EDGE_LOOP('',(#42));
#354=EDGE_LOOP('',(#43));
#355=EDGE_LOOP('',(#44));
#356=EDGE_LOOP('',(#45));
#357=EDGE_LOOP('',(#46));
#358=EDGE_LOOP('',(#47));
#359=EDGE_LOOP('',(#48));
#360=EDGE_LOOP('',(#49));
#361=EDGE_LOOP('',(#50));
#362=EDGE_LOOP('',(#51));
#363=EDGE_LOOP('',(#52));
#364=EDGE_LOOP('',(#53));
#365=EDGE_LOOP('',(#54));
#366=EDGE_LOOP('',(#55));
#367=EDGE_LOOP('',(#56));
#368=EDGE_LOOP('',(#57));
#369=EDGE_LOOP('',(#58));
#370=EDGE_LOOP('',(#59));
#371=EDGE_LOOP('',(#60));
#372=EDGE_LOOP('',(#61));
#373=EDGE_LOOP('',(#62));
#374=EDGE_LOOP('',(#63));
#375=EDGE_LOOP('',(#64));
#376=EDGE_LOOP('',(#65));
#377=EDGE_LOOP('',(#66));
#378=EDGE_LOOP('',(#67));
#379=EDGE_LOOP('',(#68));
#380=EDGE_LOOP('',(#69));
#381=EDGE_LOOP('',(#70));
#382=EDGE_LOOP('',(#71));
#383=EDGE_LOOP('',(#72));
#384=EDGE_LOOP('',(#73));
#385=EDGE_LOOP('',(#74));
#386=EDGE_LOOP('',(#75));
#387=EDGE_LOOP('',(#76));
#388=EDGE_LOOP('',(#77));
#389=EDGE_LOOP('',(#78));
#390=EDGE_LOOP('',(#79));
#391=EDGE_LOOP('',(#80));
#392=EDGE_LOOP('',(#81));
#393=EDGE_LOOP('',(#82));
#394=EDGE_LOOP('',(#83));
#395=EDGE_LOOP('',(#84));
#396=EDGE_LOOP('',(#85));
#397=EDGE_LOOP('',(#86));
#398=EDGE_LOOP('',(#87));
#399=EDGE_LOOP('',(#88));
#400=EDGE_LOOP('',(#89));
#401=EDGE_LOOP('',(#90));
#402=EDGE_LOOP('',(#91));
#403=EDGE_LOOP('',(#92));
#404=EDGE_LOOP('',(#93));
#405=EDGE_LOOP('',(#94));
#406=EDGE_LOOP('',(#95));
#407=EDGE_LOOP('',(#96));
#408=EDGE_LOOP('',(#97));
#409=EDGE_LOOP('',(#98));
#410=EDGE_LOOP('',(#99));
#411=EDGE_LOOP('',(#100));
#412=EDGE_LOOP('',(#101));
#413=EDGE_LOOP('',(#102));
#414=EDGE_LOOP('',(#103));
#415=EDGE_LOOP('',(#104));
#416=EDGE_LOOP('',(#105));
#417=EDGE_LOOP('',(#106));
#418=EDGE_LOOP('',(#107));
#419=EDGE_LOOP('',(#108));
#420=EDGE_LOOP('',(#109));
#421=EDGE_LOOP('',(#110));
#422=EDGE_LOOP('',(#111));
#423=EDGE_LOOP('',(#112));
#424=EDGE_LOOP('',(#113));
#425=EDGE_LOOP('',(#114));
#426=EDGE_LOOP('',(#115));
#427=EDGE_LOOP('',(#116));
#428=EDGE_LOOP('',(#117));
#429=EDGE_LOOP('',(#118));
#430=EDGE_LOOP('',(#119));
#431=EDGE_LOOP('',(#120));
#432=EDGE_LOOP('',(#121));
#433=EDGE_LOOP('',(#122));
#434=EDGE_LOOP('',(#123));
#435=EDGE_LOOP('',(#124));
#436=EDGE_LOOP('',(#125));
#437=EDGE_LOOP('',(#126));
#438=EDGE_LOOP('',(#127));
#439=EDGE_LOOP('',(#128));
#440=EDGE_LOOP('',(#129));
#441=EDGE_LOOP('',(#130));
#442=EDGE_LOOP('',(#131));
#443=EDGE_LOOP('',(#132));
#444=EDGE_LOOP('',(#133));
#445=EDGE_LOOP('',(#134));
#446=EDGE_LOOP('',(#135));
#447=EDGE_LOOP('',(#136));
#448=EDGE_LOOP('',(#137));
#449=EDGE_LOOP('',(#138));
#450=EDGE_LOOP('',(#139));
#451=EDGE_LOOP('',(#140));
#452=EDGE_LOOP('',(#141));
#453=EDGE_LOOP('',(#142));
#454=EDGE_LOOP('',(#143));
#455=EDGE_LOOP('',(#144));
#456=EDGE_LOOP('',(#145));
#457=EDGE_LOOP('',(#146));
#458=EDGE_LOOP('',(#147));
#459=EDGE_LOOP('',(#148));
#460=EDGE_LOOP('',(#149));
#461=EDGE_LOOP('',(#150));
#462=EDGE_LOOP('',(#151));
#463=EDGE_LOOP('',(#152));
#464=EDGE_LOOP('',(#153));
#465=EDGE_LOOP('',(#154));
#466=EDGE_LOOP('',(#155));
#467=EDGE_LOOP('',(#156));
#468=EDGE_LOOP('',(#157));
#469=EDGE_LOOP('',(#158));
#470=EDGE_LOOP('',(#159));
#471=EDGE_LOOP('',(#160));
#472=EDGE_LOOP('',(#161));
#473=EDGE_LOOP('',(#162));
#474=FACE_BOUND('',#350,.T.);
#475=FACE_BOUND('',#351,.T.);
#476=FACE_BOUND('',#352,.T.);
#477=FACE_BOUND('',#353,.T.);
#478=FACE_BOUND('',#354,.T.);
#479=FACE_BOUND('',#355,.T.);
#480=FACE_BOUND('',#356,.T.);
#481=FACE_BOUND('',#357,.T.);
#482=FACE_BOUND('',#358,.T.);
#483=FACE_BOUND('',#359,.T.);
#484=FACE_BOUND('',#360,.T.);
#485=FACE_BOUND('',#361,.T.);
#486=FACE_BOUND('',#362,.T.);
#487=FACE_BOUND('',#363,.T.);
#488=FACE_BOUND('',#364,.T.);
#489=FACE_BOUND('',#365,.T.);
#490=FACE_BOUND('',#366,.T.);
#491=FACE_BOUND('',#367,.T.);
#492=FACE_BOUND('',#368,.T.);
#493=FACE_BOUND('',#369,.T.);
#494=FACE_BOUND('',#370,.T.);
#495=FACE_BOUND('',#371,.T.);
#496=FACE_BOUND('',#372,.T.);
#497=FACE_BOUND('',#373,.T.);
#498=FACE_BOUND('',#374,.T.);
#499=FACE_BOUND('',#375,.T.);
#500=FACE_BOUND('',#376,.T.);
#501=FACE_BOUND('',#377,.T.);
#502=FACE_BOUND('',#378,.T.);
#503=FACE_BOUND('',#379,.T.);
#504=FACE_BOUND('',#380,.T.);
#505=FACE_BOUND('',#381,.T.);
#506=FACE_BOUND('',#382,.T.);
#507=FACE_BOUND('',#383,.T.);
#508=FACE_BOUND('',#384,.T.);
#509=FACE_BOUND('',#385,.T.);
#510=FACE_BOUND('',#386,.T.);
#511=FACE_BOUND('',#387,.T.);
#512=FACE_BOUND('',#388,.T.);
#513=FACE_BOUND('',#389,.T.);
#514=FACE_BOUND('',#390,.T.);
#515=FACE_BOUND('',#391,.T.);
#516=FACE_BOUND('',#392,.T.);
#517=FACE_BOUND('',#393,.T.);
#518=FACE_BOUND('',#394,.T.);
#519=FACE_BOUND('',#395,.T.);
#520=FACE_BOUND('',#396,.T.);
#521=FACE_BOUND('',#397,.T.);
#522=FACE_BOUND('',#398,.T.);
#523=FACE_BOUND('',#399,.T.);
#524=FACE_BOUND('',#400,.T.);
#525=FACE_BOUND('',#401,.T.);
#526=FACE_BOUND('',#402,.T.);
#527=FACE_BOUND('',#403,.T.);
#528=FACE_BOUND('',#404,.T.);
#529=FACE_BOUND('',#405,.T.);
#530=FACE_BOUND('',#406,.T.);
#531=FACE_BOUND('',#407,.T.);
#532=FACE_BOUND('',#408,.T.);
#533=FACE_BOUND('',#409,.T.);
#534=FACE_BOUND('',#410,.T.);
#535=FACE_BOUND('',#411,.T.);
#536=FACE_BOUND('',#412,.T.);
#537=FACE_BOUND('',#413,.T.);
#538=FACE_BOUND('',#414,.T.);
#539=FACE_BOUND('',#415,.T.);
#540=FACE_BOUND('',#416,.T.);
#541=FACE_BOUND('',#417,.T.);
#542=FACE_BOUND('',#418,.T.);
#543=FACE_BOUND('',#419,.T.);
#544=FACE_BOUND('',#420,.T.);
#545=FACE_BOUND('',#421,.T.);
#546=FACE_BOUND('',#422,.T.);
#547=FACE_BOUND('',#423,.T.);
#548=FACE_BOUND('',#424,.T.);
#549=FACE_BOUND('',#425,.T.);
#550=FACE_BOUND('',#426,.T.);
#551=FACE_BOUND('',#427,.T.);
#552=FACE_BOUND('',#428,.T.);
#553=FACE_BOUND('',#429,.T.);
#554=FACE_BOUND('',#430,.T.);
#555=FACE_BOUND('',#431,.T.);
#556=FACE_BOUND('',#432,.T.);
#557=FACE_BOUND('',#433,.T.);
#558=FACE_BOUND('',#434,.T.);
#559=FACE_BOUND('',#435,.T.);
#560=FACE_BOUND('',#436,.T.);
#561=FACE_BOUND('',#437,.T.);
#562=FACE_BOUND('',#438,.T.);
#563=FACE_BOUND('',#439,.T.);
#564=FACE_BOUND('',#440,.T.);
#565=FACE_BOUND('',#441,.T.);
#566=FACE_BOUND('',#442,.T.);
#567=FACE_BOUND('',#443,.T.);
#568=FACE_BOUND('',#444,.T.);
#569=FACE_BOUND('',#445,.T.);
#570=FACE_BOUND('',#446,.T.);
#571=FACE_BOUND('',#447,.T.);
#572=FACE_BOUND('',#448,.T.);
#573=FACE_BOUND('',#449,.T.);
#574=FACE_BOUND('',#450,.T.);
#575=FACE_BOUND('',#451,.T.);
#576=FACE_BOUND('',#452,.T.);
#577=FACE_BOUND('',#453,.T.);
#578=FACE_BOUND('',#454,.T.);
#579=FACE_BOUND('',#455,.T.);
#580=FACE_BOUND('',#456,.T.);
#581=FACE_BOUND('',#457,.T.);
#582=FACE_BOUND('',#458,.T.);
#583=FACE_BOUND('',#459,.T.);
#584=FACE_BOUND('',#460,.T.);
#585=FACE_BOUND('',#461,.T.);
#586=FACE_BOUND('',#462,.T.);
#587=FACE_BOUND('',#463,.T.);
#588=FACE_BOUND('',#464,.T.);
#589=FACE_BOUND('',#465,.T.);
#590=FACE_BOUND('',#466,.T.);
#591=FACE_BOUND('',#467,.T.);
#592=FACE_BOUND('',#468,.T.);
#593=FACE_BOUND('',#469,.T.);
#594=FACE_BOUND('',#470,.T.);
#595=FACE_BOUND('',#471,.T.);
#596=FACE_BOUND('',#12,.T.);
#597=FACE_BOUND('',#472,.T.);
#598=FACE_BOUND('',#473,.T.);
#599=CONICAL_SURFACE('',#712,0.00662651684553999,1.19169245241869);
#600=CONICAL_SURFACE('',#715,0.00991130646736998,1.27806925286109);
#601=CONICAL_SURFACE('',#720,0.0113064667996921,0.87128948751059);
#602=CONICAL_SURFACE('',#724,0.00934747074218172,1.04600052072819);
#603=CONICAL_SURFACE('',#728,0.00721408825786488,0.39556596631165);
#604=CONICAL_SURFACE('',#730,0.00760997113259215,0.344679296063026);
#605=CONICAL_SURFACE('',#732,0.00577763867051977,0.426094115481502);
#606=CONICAL_SURFACE('',#734,0.00554171603591818,0.455974485126246);
#607=CONICAL_SURFACE('',#738,0.00546023834915538,0.0923708627990593);
#608=CONICAL_SURFACE('',#740,0.00507877258122174,1.27854583154288);
#609=CONICAL_SURFACE('',#742,0.00621734586031813,1.07524638812359);
#610=CONICAL_SURFACE('',#744,0.0067113994476356,0.0646156789244414);
#611=CONICAL_SURFACE('',#746,0.00685828019352335,1.03403170686175);
#612=CONICAL_SURFACE('',#748,0.00524259012611288,1.47842546399584);
#613=CONICAL_SURFACE('',#750,0.00368624696696986,1.21246951011019);
#614=CONICAL_SURFACE('',#754,0.00464171383948702,1.04020744561614);
#615=CONICAL_SURFACE('',#756,0.00524259012611288,0.72198786271603);
#616=CONICAL_SURFACE('',#758,0.00567493800492662,0.668299895417121);
#617=CONICAL_SURFACE('',#764,0.00600540291936774,0.358326816684701);
#618=CONICAL_SURFACE('',#766,0.00581898439007501,0.990299300206031);
#619=CONICAL_SURFACE('',#768,0.00717619460494894,0.221047791003543);
#620=CONICAL_SURFACE('',#770,0.00761877399356741,0.639250200481121);
#621=CONICAL_SURFACE('',#774,0.00822263982565779,0.366729771983869);
#622=CONICAL_SURFACE('',#778,0.00909844812424559,0.356620191956895);
#623=CONICAL_SURFACE('',#780,0.00867177199991125,0.174672477344107);
#624=CONICAL_SURFACE('',#782,0.00846966196270365,0.358326816684703);
#625=CONICAL_SURFACE('',#784,0.00835538627198024,1.47832981158107);
#626=CONICAL_SURFACE('',#786,0.00772859368892092,0.223905056698137);
#627=CONICAL_SURFACE('',#796,0.00524259012611288,1.2124695101102);
#628=CONICAL_SURFACE('',#798,0.00557145411811352,0.223905056698141);
#629=CONICAL_SURFACE('',#802,0.00464171383948702,0.942975964873841);
#630=CONICAL_SURFACE('',#804,0.00377622273238081,1.2124695101102);
#631=CONICAL_SURFACE('',#816,0.00096914198668379,1.21246951011019);
#632=CONICAL_SURFACE('',#820,0.00141458086522064,0.806171347792517);
#633=CONICAL_SURFACE('',#828,0.000234447684601728,0.788925130352613);
#634=CONICAL_SURFACE('',#833,0.,1.4941020236192);
#635=CONICAL_SURFACE('',#835,0.00347525466652293,1.31388977183698);
#636=ADVANCED_FACE('',(#474,#475),#599,.T.);
#637=ADVANCED_FACE('',(#476,#477),#600,.T.);
#638=ADVANCED_FACE('',(#478,#479),#25,.T.);
#639=ADVANCED_FACE('',(#480,#481),#24,.T.);
#640=ADVANCED_FACE('',(#482,#483),#601,.T.);
#641=ADVANCED_FACE('',(#484,#485),#26,.T.);
#642=ADVANCED_FACE('',(#486,#487),#602,.T.);
#643=ADVANCED_FACE('',(#488,#489),#27,.T.);
#644=ADVANCED_FACE('',(#490,#491),#603,.T.);
#645=ADVANCED_FACE('',(#492,#493),#604,.T.);
#646=ADVANCED_FACE('',(#494,#495),#605,.T.);
#647=ADVANCED_FACE('',(#496,#497),#606,.T.);
#648=ADVANCED_FACE('',(#498,#499),#13,.T.);
#649=ADVANCED_FACE('',(#500,#501),#607,.T.);
#650=ADVANCED_FACE('',(#502,#503),#608,.T.);
#651=ADVANCED_FACE('',(#504,#505),#609,.T.);
#652=ADVANCED_FACE('',(#506,#507),#610,.T.);
#653=ADVANCED_FACE('',(#508,#509),#611,.T.);
#654=ADVANCED_FACE('',(#510,#511),#612,.F.);
#655=ADVANCED_FACE('',(#512,#513),#613,.T.);
#656=ADVANCED_FACE('',(#514,#515),#28,.T.);
#657=ADVANCED_FACE('',(#516,#517),#614,.T.);
#658=ADVANCED_FACE('',(#518,#519),#615,.T.);
#659=ADVANCED_FACE('',(#520,#521),#616,.T.);
#660=ADVANCED_FACE('',(#522,#523),#29,.T.);
#661=ADVANCED_FACE('',(#524,#525),#14,.F.);
#662=ADVANCED_FACE('',(#526,#527),#617,.T.);
#663=ADVANCED_FACE('',(#528,#529),#618,.T.);
#664=ADVANCED_FACE('',(#530,#531),#619,.T.);
#665=ADVANCED_FACE('',(#532,#533),#620,.T.);
#666=ADVANCED_FACE('',(#534,#535),#30,.T.);
#667=ADVANCED_FACE('',(#536,#537),#621,.T.);
#668=ADVANCED_FACE('',(#538,#539),#15,.T.);
#669=ADVANCED_FACE('',(#540,#541),#622,.F.);
#670=ADVANCED_FACE('',(#542,#543),#623,.T.);
#671=ADVANCED_FACE('',(#544,#545),#624,.T.);
#672=ADVANCED_FACE('',(#546,#547),#625,.F.);
#673=ADVANCED_FACE('',(#548,#549),#626,.F.);
#674=ADVANCED_FACE('',(#550,#551),#16,.T.);
#675=ADVANCED_FACE('',(#552,#553),#31,.T.);
#676=ADVANCED_FACE('',(#554,#555),#17,.T.);
#677=ADVANCED_FACE('',(#556,#557),#32,.T.);
#678=ADVANCED_FACE('',(#558,#559),#627,.T.);
#679=ADVANCED_FACE('',(#560,#561),#628,.T.);
#680=ADVANCED_FACE('',(#562,#563),#18,.T.);
#681=ADVANCED_FACE('',(#564,#565),#629,.F.);
#682=ADVANCED_FACE('',(#566,#567),#630,.F.);
#683=ADVANCED_FACE('',(#568,#569),#33,.F.);
#684=ADVANCED_FACE('',(#570,#571),#19,.T.);
#685=ADVANCED_FACE('',(#572,#573),#34,.F.);
#686=ADVANCED_FACE('',(#574,#575),#20,.T.);
#687=ADVANCED_FACE('',(#576,#577),#35,.T.);
#688=ADVANCED_FACE('',(#578,#579),#631,.T.);
#689=ADVANCED_FACE('',(#580,#581),#36,.T.);
#690=ADVANCED_FACE('',(#582,#583),#632,.T.);
#691=ADVANCED_FACE('',(#584,#585),#21,.T.);
#692=ADVANCED_FACE('',(#586,#587),#37,.T.);
#693=ADVANCED_FACE('',(#588,#589),#22,.T.);
#694=ADVANCED_FACE('',(#590,#591),#633,.T.);
#695=ADVANCED_FACE('',(#592,#593),#38,.T.);
#696=ADVANCED_FACE('',(#594),#23,.T.);
#697=ADVANCED_FACE('',(#595,#596),#634,.T.);
#698=ADVANCED_FACE('',(#597,#598),#635,.T.);
#699=CLOSED_SHELL('',(#636,#637,#638,#639,#640,#641,#642,#643,#644,#645,
#646,#647,#648,#649,#650,#651,#652,#653,#654,#655,#656,#657,#658,#659,#660,
#661,#662,#663,#664,#665,#666,#667,#668,#669,#670,#671,#672,#673,#674,#675,
#676,#677,#678,#679,#680,#681,#682,#683,#684,#685,#686,#687,#688,#689,#690,
#691,#692,#693,#694,#695,#696,#697,#698));
#700=STYLED_ITEM('',(#701),#708);
#701=PRESENTATION_STYLE_ASSIGNMENT((#702));
#702=SURFACE_STYLE_USAGE(.BOTH.,#703);
#703=SURFACE_SIDE_STYLE('',(#704));
#704=SURFACE_STYLE_FILL_AREA(#705);
#705=FILL_AREA_STYLE('',(#706));
#706=FILL_AREA_STYLE_COLOUR('',#707);
#707=COLOUR_RGB('',0.615686274509804,0.811764705882353,0.929411764705882);
#708=MANIFOLD_SOLID_BREP('Da Rook',#699);
#709=SHAPE_DEFINITION_REPRESENTATION(#1356,#710);
#710=SHAPE_REPRESENTATION('Da Rook',(#711),#1351);
#711=AXIS2_PLACEMENT_3D('',#1086,#836,#837);
#712=AXIS2_PLACEMENT_3D('',#1087,#838,#839);
#713=AXIS2_PLACEMENT_3D('',#1088,#840,#841);
#714=AXIS2_PLACEMENT_3D('',#1090,#842,#843);
#715=AXIS2_PLACEMENT_3D('',#1092,#844,#845);
#716=AXIS2_PLACEMENT_3D('',#1093,#846,#847);
#717=AXIS2_PLACEMENT_3D('',#1095,#848,#849);
#718=AXIS2_PLACEMENT_3D('',#1096,#850,#851);
#719=AXIS2_PLACEMENT_3D('',#1174,#852,#853);
#720=AXIS2_PLACEMENT_3D('',#1176,#854,#855);
#721=AXIS2_PLACEMENT_3D('',#1177,#856,#857);
#722=AXIS2_PLACEMENT_3D('',#1179,#858,#859);
#723=AXIS2_PLACEMENT_3D('',#1180,#860,#861);
#724=AXIS2_PLACEMENT_3D('',#1182,#862,#863);
#725=AXIS2_PLACEMENT_3D('',#1183,#864,#865);
#726=AXIS2_PLACEMENT_3D('',#1185,#866,#867);
#727=AXIS2_PLACEMENT_3D('',#1186,#868,#869);
#728=AXIS2_PLACEMENT_3D('',#1188,#870,#871);
#729=AXIS2_PLACEMENT_3D('',#1189,#872,#873);
#730=AXIS2_PLACEMENT_3D('',#1191,#874,#875);
#731=AXIS2_PLACEMENT_3D('',#1192,#876,#877);
#732=AXIS2_PLACEMENT_3D('',#1194,#878,#879);
#733=AXIS2_PLACEMENT_3D('',#1195,#880,#881);
#734=AXIS2_PLACEMENT_3D('',#1197,#882,#883);
#735=AXIS2_PLACEMENT_3D('',#1198,#884,#885);
#736=AXIS2_PLACEMENT_3D('',#1200,#886,#887);
#737=AXIS2_PLACEMENT_3D('',#1201,#888,#889);
#738=AXIS2_PLACEMENT_3D('',#1203,#890,#891);
#739=AXIS2_PLACEMENT_3D('',#1204,#892,#893);
#740=AXIS2_PLACEMENT_3D('',#1206,#894,#895);
#741=AXIS2_PLACEMENT_3D('',#1207,#896,#897);
#742=AXIS2_PLACEMENT_3D('',#1209,#898,#899);
#743=AXIS2_PLACEMENT_3D('',#1210,#900,#901);
#744=AXIS2_PLACEMENT_3D('',#1212,#902,#903);
#745=AXIS2_PLACEMENT_3D('',#1213,#904,#905);
#746=AXIS2_PLACEMENT_3D('',#1215,#906,#907);
#747=AXIS2_PLACEMENT_3D('',#1216,#908,#909);
#748=AXIS2_PLACEMENT_3D('',#1218,#910,#911);
#749=AXIS2_PLACEMENT_3D('',#1219,#912,#913);
#750=AXIS2_PLACEMENT_3D('',#1221,#914,#915);
#751=AXIS2_PLACEMENT_3D('',#1222,#916,#917);
#752=AXIS2_PLACEMENT_3D('',#1224,#918,#919);
#753=AXIS2_PLACEMENT_3D('',#1225,#920,#921);
#754=AXIS2_PLACEMENT_3D('',#1227,#922,#923);
#755=AXIS2_PLACEMENT_3D('',#1228,#924,#925);
#756=AXIS2_PLACEMENT_3D('',#1230,#926,#927);
#757=AXIS2_PLACEMENT_3D('',#1231,#928,#929);
#758=AXIS2_PLACEMENT_3D('',#1233,#930,#931);
#759=AXIS2_PLACEMENT_3D('',#1234,#932,#933);
#760=AXIS2_PLACEMENT_3D('',#1236,#934,#935);
#761=AXIS2_PLACEMENT_3D('',#1237,#936,#937);
#762=AXIS2_PLACEMENT_3D('',#1239,#938,#939);
#763=AXIS2_PLACEMENT_3D('',#1240,#940,#941);
#764=AXIS2_PLACEMENT_3D('',#1242,#942,#943);
#765=AXIS2_PLACEMENT_3D('',#1243,#944,#945);
#766=AXIS2_PLACEMENT_3D('',#1245,#946,#947);
#767=AXIS2_PLACEMENT_3D('',#1246,#948,#949);
#768=AXIS2_PLACEMENT_3D('',#1248,#950,#951);
#769=AXIS2_PLACEMENT_3D('',#1249,#952,#953);
#770=AXIS2_PLACEMENT_3D('',#1251,#954,#955);
#771=AXIS2_PLACEMENT_3D('',#1252,#956,#957);
#772=AXIS2_PLACEMENT_3D('',#1254,#958,#959);
#773=AXIS2_PLACEMENT_3D('',#1255,#960,#961);
#774=AXIS2_PLACEMENT_3D('',#1257,#962,#963);
#775=AXIS2_PLACEMENT_3D('',#1258,#964,#965);
#776=AXIS2_PLACEMENT_3D('',#1260,#966,#967);
#777=AXIS2_PLACEMENT_3D('',#1261,#968,#969);
#778=AXIS2_PLACEMENT_3D('',#1263,#970,#971);
#779=AXIS2_PLACEMENT_3D('',#1264,#972,#973);
#780=AXIS2_PLACEMENT_3D('',#1266,#974,#975);
#781=AXIS2_PLACEMENT_3D('',#1267,#976,#977);
#782=AXIS2_PLACEMENT_3D('',#1269,#978,#979);
#783=AXIS2_PLACEMENT_3D('',#1270,#980,#981);
#784=AXIS2_PLACEMENT_3D('',#1272,#982,#983);
#785=AXIS2_PLACEMENT_3D('',#1273,#984,#985);
#786=AXIS2_PLACEMENT_3D('',#1275,#986,#987);
#787=AXIS2_PLACEMENT_3D('',#1276,#988,#989);
#788=AXIS2_PLACEMENT_3D('',#1278,#990,#991);
#789=AXIS2_PLACEMENT_3D('',#1279,#992,#993);
#790=AXIS2_PLACEMENT_3D('',#1281,#994,#995);
#791=AXIS2_PLACEMENT_3D('',#1282,#996,#997);
#792=AXIS2_PLACEMENT_3D('',#1284,#998,#999);
#793=AXIS2_PLACEMENT_3D('',#1285,#1000,#1001);
#794=AXIS2_PLACEMENT_3D('',#1287,#1002,#1003);
#795=AXIS2_PLACEMENT_3D('',#1288,#1004,#1005);
#796=AXIS2_PLACEMENT_3D('',#1290,#1006,#1007);
#797=AXIS2_PLACEMENT_3D('',#1291,#1008,#1009);
#798=AXIS2_PLACEMENT_3D('',#1293,#1010,#1011);
#799=AXIS2_PLACEMENT_3D('',#1294,#1012,#1013);
#800=AXIS2_PLACEMENT_3D('',#1296,#1014,#1015);
#801=AXIS2_PLACEMENT_3D('',#1297,#1016,#1017);
#802=AXIS2_PLACEMENT_3D('',#1299,#1018,#1019);
#803=AXIS2_PLACEMENT_3D('',#1300,#1020,#1021);
#804=AXIS2_PLACEMENT_3D('',#1302,#1022,#1023);
#805=AXIS2_PLACEMENT_3D('',#1303,#1024,#1025);
#806=AXIS2_PLACEMENT_3D('',#1305,#1026,#1027);
#807=AXIS2_PLACEMENT_3D('',#1306,#1028,#1029);
#808=AXIS2_PLACEMENT_3D('',#1308,#1030,#1031);
#809=AXIS2_PLACEMENT_3D('',#1309,#1032,#1033);
#810=AXIS2_PLACEMENT_3D('',#1311,#1034,#1035);
#811=AXIS2_PLACEMENT_3D('',#1312,#1036,#1037);
#812=AXIS2_PLACEMENT_3D('',#1314,#1038,#1039);
#813=AXIS2_PLACEMENT_3D('',#1315,#1040,#1041);
#814=AXIS2_PLACEMENT_3D('',#1317,#1042,#1043);
#815=AXIS2_PLACEMENT_3D('',#1318,#1044,#1045);
#816=AXIS2_PLACEMENT_3D('',#1320,#1046,#1047);
#817=AXIS2_PLACEMENT_3D('',#1321,#1048,#1049);
#818=AXIS2_PLACEMENT_3D('',#1323,#1050,#1051);
#819=AXIS2_PLACEMENT_3D('',#1324,#1052,#1053);
#820=AXIS2_PLACEMENT_3D('',#1326,#1054,#1055);
#821=AXIS2_PLACEMENT_3D('',#1327,#1056,#1057);
#822=AXIS2_PLACEMENT_3D('',#1329,#1058,#1059);
#823=AXIS2_PLACEMENT_3D('',#1330,#1060,#1061);
#824=AXIS2_PLACEMENT_3D('',#1332,#1062,#1063);
#825=AXIS2_PLACEMENT_3D('',#1333,#1064,#1065);
#826=AXIS2_PLACEMENT_3D('',#1335,#1066,#1067);
#827=AXIS2_PLACEMENT_3D('',#1336,#1068,#1069);
#828=AXIS2_PLACEMENT_3D('',#1338,#1070,#1071);
#829=AXIS2_PLACEMENT_3D('',#1339,#1072,#1073);
#830=AXIS2_PLACEMENT_3D('',#1341,#1074,#1075);
#831=AXIS2_PLACEMENT_3D('',#1342,#1076,#1077);
#832=AXIS2_PLACEMENT_3D('',#1344,#1078,#1079);
#833=AXIS2_PLACEMENT_3D('',#1345,#1080,#1081);
#834=AXIS2_PLACEMENT_3D('',#1346,#1082,#1083);
#835=AXIS2_PLACEMENT_3D('',#1349,#1084,#1085);
#836=DIRECTION('',(0.,0.,1.));
#837=DIRECTION('',(1.,0.,0.));
#838=DIRECTION('',(0.,0.,1.));
#839=DIRECTION('',(1.,0.,0.));
#840=DIRECTION('',(0.,0.,-1.));
#841=DIRECTION('',(-1.,0.,0.));
#842=DIRECTION('',(0.,0.,-1.));
#843=DIRECTION('',(-1.,0.,0.));
#844=DIRECTION('',(0.,0.,1.));
#845=DIRECTION('',(1.,0.,0.));
#846=DIRECTION('',(0.,0.,-1.));
#847=DIRECTION('',(-1.,0.,0.));
#848=DIRECTION('',(0.,0.,-1.));
#849=DIRECTION('',(-1.,0.,0.));
#850=DIRECTION('',(0.,0.,-1.));
#851=DIRECTION('',(-1.,0.,0.));
#852=DIRECTION('',(0.,0.,-1.));
#853=DIRECTION('',(-1.,0.,0.));
#854=DIRECTION('',(0.,0.,-1.));
#855=DIRECTION('',(-1.,0.,0.));
#856=DIRECTION('',(0.,0.,-1.));
#857=DIRECTION('',(-1.,0.,0.));
#858=DIRECTION('',(0.,0.,-1.));
#859=DIRECTION('',(-1.,0.,0.));
#860=DIRECTION('',(0.,0.,-1.));
#861=DIRECTION('',(-1.,0.,0.));
#862=DIRECTION('',(0.,0.,-1.));
#863=DIRECTION('',(-1.,0.,0.));
#864=DIRECTION('',(0.,0.,-1.));
#865=DIRECTION('',(-1.,0.,0.));
#866=DIRECTION('',(0.,0.,-1.));
#867=DIRECTION('',(-1.,0.,0.));
#868=DIRECTION('',(0.,0.,-1.));
#869=DIRECTION('',(-1.,0.,0.));
#870=DIRECTION('',(0.,0.,1.));
#871=DIRECTION('',(1.,0.,0.));
#872=DIRECTION('',(0.,0.,-1.));
#873=DIRECTION('',(-1.,0.,0.));
#874=DIRECTION('',(0.,0.,-1.));
#875=DIRECTION('',(-1.,0.,0.));
#876=DIRECTION('',(0.,0.,-1.));
#877=DIRECTION('',(-1.,0.,0.));
#878=DIRECTION('',(0.,0.,-1.));
#879=DIRECTION('',(-1.,0.,0.));
#880=DIRECTION('',(0.,0.,-1.));
#881=DIRECTION('',(-1.,0.,0.));
#882=DIRECTION('',(0.,0.,1.));
#883=DIRECTION('',(1.,0.,0.));
#884=DIRECTION('',(0.,0.,-1.));
#885=DIRECTION('',(-1.,0.,0.));
#886=DIRECTION('',(0.,0.,1.));
#887=DIRECTION('',(1.,0.,0.));
#888=DIRECTION('',(0.,0.,-1.));
#889=DIRECTION('',(-1.,0.,0.));
#890=DIRECTION('',(0.,0.,-1.));
#891=DIRECTION('',(-1.,0.,0.));
#892=DIRECTION('',(0.,0.,-1.));
#893=DIRECTION('',(-1.,0.,0.));
#894=DIRECTION('',(0.,0.,1.));
#895=DIRECTION('',(1.,0.,0.));
#896=DIRECTION('',(0.,0.,-1.));
#897=DIRECTION('',(-1.,0.,0.));
#898=DIRECTION('',(0.,0.,1.));
#899=DIRECTION('',(1.,0.,0.));
#900=DIRECTION('',(0.,0.,-1.));
#901=DIRECTION('',(-1.,0.,0.));
#902=DIRECTION('',(0.,0.,1.));
#903=DIRECTION('',(1.,0.,0.));
#904=DIRECTION('',(0.,0.,-1.));
#905=DIRECTION('',(-1.,0.,0.));
#906=DIRECTION('',(0.,0.,-1.));
#907=DIRECTION('',(-1.,0.,0.));
#908=DIRECTION('',(0.,0.,-1.));
#909=DIRECTION('',(-1.,0.,0.));
#910=DIRECTION('',(0.,0.,1.));
#911=DIRECTION('',(1.,0.,0.));
#912=DIRECTION('',(0.,0.,-1.));
#913=DIRECTION('',(-1.,0.,0.));
#914=DIRECTION('',(0.,0.,1.));
#915=DIRECTION('',(1.,0.,0.));
#916=DIRECTION('',(0.,0.,-1.));
#917=DIRECTION('',(-1.,0.,0.));
#918=DIRECTION('',(0.,0.,-1.));
#919=DIRECTION('',(-1.,0.,0.));
#920=DIRECTION('',(0.,0.,-1.));
#921=DIRECTION('',(-1.,0.,0.));
#922=DIRECTION('',(0.,0.,1.));
#923=DIRECTION('',(1.,0.,0.));
#924=DIRECTION('',(0.,0.,-1.));
#925=DIRECTION('',(-1.,0.,0.));
#926=DIRECTION('',(0.,0.,1.));
#927=DIRECTION('',(1.,0.,0.));
#928=DIRECTION('',(0.,0.,-1.));
#929=DIRECTION('',(-1.,0.,0.));
#930=DIRECTION('',(0.,0.,-1.));
#931=DIRECTION('',(-1.,0.,0.));
#932=DIRECTION('',(0.,0.,-1.));
#933=DIRECTION('',(-1.,0.,0.));
#934=DIRECTION('',(0.,0.,-1.));
#935=DIRECTION('',(-1.,0.,0.));
#936=DIRECTION('',(0.,0.,-1.));
#937=DIRECTION('',(-1.,0.,0.));
#938=DIRECTION('',(0.,0.,1.));
#939=DIRECTION('',(1.,0.,0.));
#940=DIRECTION('',(0.,0.,-1.));
#941=DIRECTION('',(-1.,0.,0.));
#942=DIRECTION('',(0.,0.,-1.));
#943=DIRECTION('',(-1.,0.,0.));
#944=DIRECTION('',(0.,0.,-1.));
#945=DIRECTION('',(-1.,0.,0.));
#946=DIRECTION('',(0.,0.,1.));
#947=DIRECTION('',(1.,0.,0.));
#948=DIRECTION('',(0.,0.,-1.));
#949=DIRECTION('',(-1.,0.,0.));
#950=DIRECTION('',(0.,0.,1.));
#951=DIRECTION('',(1.,0.,0.));
#952=DIRECTION('',(0.,0.,-1.));
#953=DIRECTION('',(-1.,0.,0.));
#954=DIRECTION('',(0.,0.,1.));
#955=DIRECTION('',(1.,0.,0.));
#956=DIRECTION('',(0.,0.,-1.));
#957=DIRECTION('',(-1.,0.,0.));
#958=DIRECTION('',(0.,0.,-1.));
#959=DIRECTION('',(-1.,0.,0.));
#960=DIRECTION('',(0.,0.,-1.));
#961=DIRECTION('',(-1.,0.,0.));
#962=DIRECTION('',(0.,0.,1.));
#963=DIRECTION('',(1.,0.,0.));
#964=DIRECTION('',(0.,0.,-1.));
#965=DIRECTION('',(-1.,0.,0.));
#966=DIRECTION('',(0.,0.,1.));
#967=DIRECTION('',(1.,0.,0.));
#968=DIRECTION('',(0.,0.,-1.));
#969=DIRECTION('',(-1.,0.,0.));
#970=DIRECTION('',(0.,0.,1.));
#971=DIRECTION('',(1.,0.,0.));
#972=DIRECTION('',(0.,0.,-1.));
#973=DIRECTION('',(-1.,0.,0.));
#974=DIRECTION('',(0.,0.,-1.));
#975=DIRECTION('',(-1.,0.,0.));
#976=DIRECTION('',(0.,0.,-1.));
#977=DIRECTION('',(-1.,0.,0.));
#978=DIRECTION('',(0.,0.,-1.));
#979=DIRECTION('',(-1.,0.,0.));
#980=DIRECTION('',(0.,0.,-1.));
#981=DIRECTION('',(-1.,0.,0.));
#982=DIRECTION('',(0.,0.,1.));
#983=DIRECTION('',(1.,0.,0.));
#984=DIRECTION('',(0.,0.,-1.));
#985=DIRECTION('',(-1.,0.,0.));
#986=DIRECTION('',(0.,0.,1.));
#987=DIRECTION('',(1.,0.,0.));
#988=DIRECTION('',(0.,0.,-1.));
#989=DIRECTION('',(-1.,0.,0.));
#990=DIRECTION('',(0.,0.,1.));
#991=DIRECTION('',(1.,0.,0.));
#992=DIRECTION('',(0.,0.,-1.));
#993=DIRECTION('',(-1.,0.,0.));
#994=DIRECTION('',(0.,0.,-1.));
#995=DIRECTION('',(-1.,0.,0.));
#996=DIRECTION('',(0.,0.,-1.));
#997=DIRECTION('',(-1.,0.,0.));
#998=DIRECTION('',(0.,0.,1.));
#999=DIRECTION('',(1.,0.,0.));
#1000=DIRECTION('',(0.,0.,-1.));
#1001=DIRECTION('',(-1.,0.,0.));
#1002=DIRECTION('',(0.,0.,-1.));
#1003=DIRECTION('',(-1.,0.,0.));
#1004=DIRECTION('',(0.,0.,-1.));
#1005=DIRECTION('',(-1.,0.,0.));
#1006=DIRECTION('',(0.,0.,1.));
#1007=DIRECTION('',(1.,0.,0.));
#1008=DIRECTION('',(0.,0.,-1.));
#1009=DIRECTION('',(-1.,0.,0.));
#1010=DIRECTION('',(0.,0.,1.));
#1011=DIRECTION('',(1.,0.,0.));
#1012=DIRECTION('',(0.,0.,-1.));
#1013=DIRECTION('',(-1.,0.,0.));
#1014=DIRECTION('',(0.,0.,1.));
#1015=DIRECTION('',(1.,0.,0.));
#1016=DIRECTION('',(0.,0.,-1.));
#1017=DIRECTION('',(-1.,0.,0.));
#1018=DIRECTION('',(0.,0.,1.));
#1019=DIRECTION('',(1.,0.,0.));
#1020=DIRECTION('',(0.,0.,-1.));
#1021=DIRECTION('',(-1.,0.,0.));
#1022=DIRECTION('',(0.,0.,1.));
#1023=DIRECTION('',(1.,0.,0.));
#1024=DIRECTION('',(0.,0.,-1.));
#1025=DIRECTION('',(-1.,0.,0.));
#1026=DIRECTION('',(0.,0.,-1.));
#1027=DIRECTION('',(-1.,0.,0.));
#1028=DIRECTION('',(0.,0.,-1.));
#1029=DIRECTION('',(-1.,0.,0.));
#1030=DIRECTION('',(0.,0.,1.));
#1031=DIRECTION('',(1.,0.,0.));
#1032=DIRECTION('',(0.,0.,-1.));
#1033=DIRECTION('',(-1.,0.,0.));
#1034=DIRECTION('',(0.,0.,-1.));
#1035=DIRECTION('',(-1.,0.,0.));
#1036=DIRECTION('',(0.,0.,-1.));
#1037=DIRECTION('',(-1.,0.,0.));
#1038=DIRECTION('',(0.,0.,1.));
#1039=DIRECTION('',(1.,0.,0.));
#1040=DIRECTION('',(0.,0.,-1.));
#1041=DIRECTION('',(-1.,0.,0.));
#1042=DIRECTION('',(0.,0.,-1.));
#1043=DIRECTION('',(-1.,0.,0.));
#1044=DIRECTION('',(0.,0.,-1.));
#1045=DIRECTION('',(-1.,0.,0.));
#1046=DIRECTION('',(0.,0.,1.));
#1047=DIRECTION('',(1.,0.,0.));
#1048=DIRECTION('',(0.,0.,-1.));
#1049=DIRECTION('',(-1.,0.,0.));
#1050=DIRECTION('',(0.,0.,-1.));
#1051=DIRECTION('',(-1.,0.,0.));
#1052=DIRECTION('',(0.,0.,-1.));
#1053=DIRECTION('',(-1.,0.,0.));
#1054=DIRECTION('',(0.,0.,-1.));
#1055=DIRECTION('',(-1.,0.,0.));
#1056=DIRECTION('',(0.,0.,-1.));
#1057=DIRECTION('',(-1.,0.,0.));
#1058=DIRECTION('',(0.,0.,-1.));
#1059=DIRECTION('',(-1.,0.,0.));
#1060=DIRECTION('',(0.,0.,-1.));
#1061=DIRECTION('',(-1.,0.,0.));
#1062=DIRECTION('',(0.,0.,-1.));
#1063=DIRECTION('',(-1.,0.,0.));
#1064=DIRECTION('',(0.,0.,-1.));
#1065=DIRECTION('',(-1.,0.,0.));
#1066=DIRECTION('',(0.,0.,1.));
#1067=DIRECTION('',(1.,0.,0.));
#1068=DIRECTION('',(0.,0.,-1.));
#1069=DIRECTION('',(-1.,0.,0.));
#1070=DIRECTION('',(0.,0.,1.));
#1071=DIRECTION('',(1.,0.,0.));
#1072=DIRECTION('',(0.,0.,-1.));
#1073=DIRECTION('',(-1.,0.,0.));
#1074=DIRECTION('',(0.,0.,-1.));
#1075=DIRECTION('',(-1.,0.,0.));
#1076=DIRECTION('',(0.,0.,-1.));
#1077=DIRECTION('',(-1.,0.,0.));
#1078=DIRECTION('',(0.,0.,1.));
#1079=DIRECTION('',(1.,0.,0.));
#1080=DIRECTION('',(0.,0.,1.));
#1081=DIRECTION('',(1.,0.,0.));
#1082=DIRECTION('',(0.,0.,-1.));
#1083=DIRECTION('',(-1.,0.,0.));
#1084=DIRECTION('',(0.,0.,1.));
#1085=DIRECTION('',(1.,0.,0.));
#1086=CARTESIAN_POINT('',(0.,0.,0.));
#1087=CARTESIAN_POINT('',(0.0198521052631579,0.,0.00422281259670853));
#1088=CARTESIAN_POINT('',(0.0198521052631579,0.,0.00553138740360737));
#1089=CARTESIAN_POINT('',(0.00994079879578792,0.,0.00553138740360737));
#1090=CARTESIAN_POINT('',(0.0198521052631579,0.,0.00422281259670853));
#1091=CARTESIAN_POINT('',(0.0132255884176179,0.,0.00422281259670853));
#1092=CARTESIAN_POINT('',(0.0198521052631579,0.,0.00553138740360737));
#1093=CARTESIAN_POINT('',(0.0198521052631579,0.,0.00617951899766922));
#1094=CARTESIAN_POINT('',(0.00779028928932392,0.,0.00617951899766922));
#1095=CARTESIAN_POINT('',(0.0198521052631579,0.,0.0281968611525372));
#1096=CARTESIAN_POINT('',(0.0198521052631579,0.,0.00950305256992579));
#1097=CARTESIAN_POINT('',(0.00779028928932392,0.,0.00950305256992579));
#1098=CARTESIAN_POINT('',(0.0312858850539126,0.00473602665851797,0.00950305256992579));
#1099=CARTESIAN_POINT('',(0.0322279393285316,9.10729824887824E-18,0.00950305256992579));
#1100=CARTESIAN_POINT('',(0.0312858850539126,-0.004736026658518,0.00950305256992579));
#1101=CARTESIAN_POINT('',(0.0286031414536231,-0.0087510361904652,0.00950305256992579));
#1102=CARTESIAN_POINT('',(0.0245881319216759,-0.0114337797907547,0.00950305256992579));
#1103=CARTESIAN_POINT('',(0.0198521052631579,-0.0123758340653737,0.00950305256992579));
#1104=CARTESIAN_POINT('',(0.0151160786046399,-0.0114337797907547,0.00950305256992579));
#1105=CARTESIAN_POINT('',(0.0111010690726927,-0.0087510361904652,0.00950305256992579));
#1106=CARTESIAN_POINT('',(0.00841832547240322,-0.004736026658518,0.00950305256992579));
#1107=CARTESIAN_POINT('',(0.00747627119778424,-1.93226082369937E-18,0.00950305256992579));
#1108=CARTESIAN_POINT('',(0.00841832547240322,0.004736026658518,0.00950305256992579));
#1109=CARTESIAN_POINT('',(0.0111010690726927,0.0087510361904652,0.00950305256992579));
#1110=CARTESIAN_POINT('',(0.0151160786046399,0.0114337797907547,0.00950305256992579));
#1111=CARTESIAN_POINT('',(0.0198521052631579,0.0123758340653737,0.00950305256992579));
#1112=CARTESIAN_POINT('',(0.0245881319216759,0.0114337797907547,0.00950305256992579));
#1113=CARTESIAN_POINT('',(0.0286031414536231,0.0087510361904652,0.00950305256992579));
#1114=CARTESIAN_POINT('',(0.0312858850539126,0.00473602665851797,0.00950305256992579));
#1115=CARTESIAN_POINT('',(0.0322279393285316,9.10729824887824E-18,0.00950305256992579));
#1116=CARTESIAN_POINT('',(0.0312858850539126,-0.004736026658518,0.00950305256992579));
#1117=CARTESIAN_POINT('',(0.0309092168420336,0.00458000557664289,0.0102073031620526));
#1118=CARTESIAN_POINT('',(0.0318202365938957,1.12757025938492E-17,0.0102073031620525));
#1119=CARTESIAN_POINT('',(0.0309092168420336,-0.00458000557664292,0.0102073031620526));
#1120=CARTESIAN_POINT('',(0.0283148520852538,-0.00846274682209589,0.0102073031620525));
#1121=CARTESIAN_POINT('',(0.0244321108398008,-0.0110571115788757,0.0102073031620525));
#1122=CARTESIAN_POINT('',(0.0198521052631579,-0.0119681313307378,0.0102073031620525));
#1123=CARTESIAN_POINT('',(0.015272099686515,-0.0110571115788757,0.0102073031620525));
#1124=CARTESIAN_POINT('',(0.011389358441062,-0.00846274682209588,0.0102073031620525));
#1125=CARTESIAN_POINT('',(0.00879499368428216,-0.00458000557664292,0.0102073031620525));
#1126=CARTESIAN_POINT('',(0.00788397393242009,2.03863625047369E-19,0.0102073031620525));
#1127=CARTESIAN_POINT('',(0.00879499368428215,0.00458000557664291,0.0102073031620525));
#1128=CARTESIAN_POINT('',(0.011389358441062,0.00846274682209589,0.0102073031620525));
#1129=CARTESIAN_POINT('',(0.015272099686515,0.0110571115788757,0.0102073031620526));
#1130=CARTESIAN_POINT('',(0.0198521052631579,0.0119681313307378,0.0102073031620525));
#1131=CARTESIAN_POINT('',(0.0244321108398008,0.0110571115788757,0.0102073031620526));
#1132=CARTESIAN_POINT('',(0.0283148520852538,0.00846274682209589,0.0102073031620525));
#1133=CARTESIAN_POINT('',(0.0309092168420336,0.00458000557664289,0.0102073031620526));
#1134=CARTESIAN_POINT('',(0.0318202365938957,1.12757025938492E-17,0.0102073031620525));
#1135=CARTESIAN_POINT('',(0.0309092168420336,-0.00458000557664292,0.0102073031620526));
#1136=CARTESIAN_POINT('',(0.0305325486301548,0.00442398449476786,0.0109115537541793));
#1137=CARTESIAN_POINT('',(0.03141253385926,1.0842021724855E-17,0.0109115537541793));
#1138=CARTESIAN_POINT('',(0.0305325486301548,-0.0044239844947679,0.0109115537541793));
#1139=CARTESIAN_POINT('',(0.0280265627168846,-0.00817445745372667,0.0109115537541793));
#1140=CARTESIAN_POINT('',(0.0242760897579258,-0.0106804433669969,0.0109115537541793));
#1141=CARTESIAN_POINT('',(0.0198521052631579,-0.0115604285961021,0.0109115537541793));
#1142=CARTESIAN_POINT('',(0.01542812076839,-0.0106804433669969,0.0109115537541793));
#1143=CARTESIAN_POINT('',(0.0116776478094312,-0.00817445745372668,0.0109115537541793));
#1144=CARTESIAN_POINT('',(0.009171661896161,-0.00442398449476789,0.0109115537541793));
#1145=CARTESIAN_POINT('',(0.0082916766670558,-7.98249143448373E-19,0.0109115537541793));
#1146=CARTESIAN_POINT('',(0.00917166189616099,0.00442398449476788,0.0109115537541793));
#1147=CARTESIAN_POINT('',(0.0116776478094312,0.00817445745372668,0.0109115537541793));
#1148=CARTESIAN_POINT('',(0.01542812076839,0.0106804433669969,0.0109115537541793));
#1149=CARTESIAN_POINT('',(0.0198521052631579,0.0115604285961021,0.0109115537541793));
#1150=CARTESIAN_POINT('',(0.0242760897579258,0.0106804433669969,0.0109115537541793));
#1151=CARTESIAN_POINT('',(0.0280265627168846,0.00817445745372667,0.0109115537541793));
#1152=CARTESIAN_POINT('',(0.0305325486301548,0.00442398449476786,0.0109115537541793));
#1153=CARTESIAN_POINT('',(0.03141253385926,1.0842021724855E-17,0.0109115537541793));
#1154=CARTESIAN_POINT('',(0.0305325486301548,-0.0044239844947679,0.0109115537541793));
#1155=CARTESIAN_POINT('',(0.0305698654975703,0.00443944164735663,0.0109759829938412));
#1156=CARTESIAN_POINT('',(0.0314529253454899,8.67361737988404E-18,0.0109759829938412));
#1157=CARTESIAN_POINT('',(0.0305698654975703,-0.00443944164735666,0.0109759829938412));
#1158=CARTESIAN_POINT('',(0.0280551238106999,-0.00820301854754201,0.0109759829938412));
#1159=CARTESIAN_POINT('',(0.0242915469105146,-0.0107177602344124,0.0109759829938412));
#1160=CARTESIAN_POINT('',(0.0198521052631579,-0.011600820082332,0.0109759829938412));
#1161=CARTESIAN_POINT('',(0.0154126636158012,-0.0107177602344124,0.0109759829938412));
#1162=CARTESIAN_POINT('',(0.0116490867156159,-0.00820301854754201,0.0109759829938412));
#1163=CARTESIAN_POINT('',(0.00913434502874551,-0.00443944164735666,0.0109759829938412));
#1164=CARTESIAN_POINT('',(0.00825128518082595,-1.74408054306601E-18,0.0109759829938412));
#1165=CARTESIAN_POINT('',(0.00913434502874551,0.00443944164735665,0.0109759829938412));
#1166=CARTESIAN_POINT('',(0.0116490867156159,0.008203018547542,0.0109759829938412));
#1167=CARTESIAN_POINT('',(0.0154126636158012,0.0107177602344124,0.0109759829938412));
#1168=CARTESIAN_POINT('',(0.0198521052631579,0.011600820082332,0.0109759829938412));
#1169=CARTESIAN_POINT('',(0.0242915469105146,0.0107177602344124,0.0109759829938412));
#1170=CARTESIAN_POINT('',(0.0280551238106999,0.00820301854754201,0.0109759829938412));
#1171=CARTESIAN_POINT('',(0.0305698654975703,0.00443944164735663,0.0109759829938412));
#1172=CARTESIAN_POINT('',(0.0314529253454899,8.67361737988404E-18,0.0109759829938412));
#1173=CARTESIAN_POINT('',(0.0305698654975703,-0.00443944164735666,0.0109759829938412));
#1174=CARTESIAN_POINT('',(0.0198521052631579,0.,0.0109759829938412));
#1175=CARTESIAN_POINT('',(0.0085456384634658,0.,0.0109759829938412));
#1176=CARTESIAN_POINT('',(0.0198521052631579,0.,0.0109759829938412));
#1177=CARTESIAN_POINT('',(0.0198521052631579,0.,0.0126243717968464));
#1178=CARTESIAN_POINT('',(0.0105046345209762,0.,0.0126243717968464));
#1179=CARTESIAN_POINT('',(0.0198521052631579,0.,0.0281968611525372));
#1180=CARTESIAN_POINT('',(0.0198521052631579,0.,0.0150496903806925));
#1181=CARTESIAN_POINT('',(0.0105046345209762,0.,0.0150496903806925));
#1182=CARTESIAN_POINT('',(0.0198521052631579,0.,0.0150496903806925));
#1183=CARTESIAN_POINT('',(0.0198521052631579,0.,0.0162848066538573));
#1184=CARTESIAN_POINT('',(0.012638017005293,0.,0.0162848066538573));
#1185=CARTESIAN_POINT('',(0.0198521052631579,0.,0.0281968611525372));
#1186=CARTESIAN_POINT('',(0.0198521052631579,0.,0.0182529781013728));
#1187=CARTESIAN_POINT('',(0.012638017005293,0.,0.0182529781013728));
#1188=CARTESIAN_POINT('',(0.0198521052631579,0.,0.0182529781013728));
#1189=CARTESIAN_POINT('',(0.0198521052631579,0.,0.0192010272294283));
#1190=CARTESIAN_POINT('',(0.0122421341305658,0.,0.0192010272294283));
#1191=CARTESIAN_POINT('',(0.0198521052631579,0.,0.0192010272294283));
#1192=CARTESIAN_POINT('',(0.0198521052631579,0.,0.0243048686534167));
#1193=CARTESIAN_POINT('',(0.0140744665926381,0.,0.0243048686534167));
#1194=CARTESIAN_POINT('',(0.0198521052631579,0.,0.0243048686534167));
#1195=CARTESIAN_POINT('',(0.0198521052631579,0.,0.0248246341943741));
#1196=CARTESIAN_POINT('',(0.0143103892272397,0.,0.0248246341943741));
#1197=CARTESIAN_POINT('',(0.0198521052631579,0.,0.0248246341943741));
#1198=CARTESIAN_POINT('',(0.0198521052631579,0.,0.0265874825417995));
#1199=CARTESIAN_POINT('',(0.0134458089536115,0.,0.0265874825417995));
#1200=CARTESIAN_POINT('',(0.0257853725925088,0.,0.0265874825417995));
#1201=CARTESIAN_POINT('',(0.0198521052631579,0.,0.0265874825417995));
#1202=CARTESIAN_POINT('',(0.0143918669140025,0.,0.0265874825417995));
#1203=CARTESIAN_POINT('',(0.0198521052631579,0.,0.0265874825417995));
#1204=CARTESIAN_POINT('',(0.0198521052631579,0.,0.0307054500726247));
#1205=CARTESIAN_POINT('',(0.0147733326819362,0.,0.0307054500726247));
#1206=CARTESIAN_POINT('',(0.0198521052631579,0.,0.0307054500726247));
#1207=CARTESIAN_POINT('',(0.0198521052631579,0.,0.0310480073094368));
#1208=CARTESIAN_POINT('',(0.0136347594028398,0.,0.0310480073094368));
#1209=CARTESIAN_POINT('',(0.0198521052631579,0.,0.0310480073094368));
#1210=CARTESIAN_POINT('',(0.0198521052631579,0.,0.0313150621950627));
#1211=CARTESIAN_POINT('',(0.0131407058155223,0.,0.0313150621950627));
#1212=CARTESIAN_POINT('',(0.0198521052631579,0.,0.0313150621950627));
#1213=CARTESIAN_POINT('',(0.0198521052631579,0.,0.0335850417613983));
#1214=CARTESIAN_POINT('',(0.0129938250696346,0.,0.0335850417613983));
#1215=CARTESIAN_POINT('',(0.0198521052631579,0.,0.0335850417613983));
#1216=CARTESIAN_POINT('',(0.0198521052631579,0.,0.0345464423298836));
#1217=CARTESIAN_POINT('',(0.014609515137045,0.,0.0345464423298836));
#1218=CARTESIAN_POINT('',(0.0198521052631579,0.,0.0345464423298836));
#1219=CARTESIAN_POINT('',(0.0198521052631579,0.,0.0344022712955258));
#1220=CARTESIAN_POINT('',(0.016165858296188,0.,0.0344022712955258));
#1221=CARTESIAN_POINT('',(0.0198521052631579,0.,0.0344022712955258));
#1222=CARTESIAN_POINT('',(0.0198521052631579,0.,0.0347600877285003));
#1223=CARTESIAN_POINT('',(0.0152103914236709,0.,0.0347600877285003));
#1224=CARTESIAN_POINT('',(0.0198521052631579,0.,0.0281968611525372));
#1225=CARTESIAN_POINT('',(0.0198521052631579,0.,0.0373062044382095));
#1226=CARTESIAN_POINT('',(0.0152103914236709,0.,0.0373062044382095));
#1227=CARTESIAN_POINT('',(0.0198521052631579,0.,0.0373062044382095));
#1228=CARTESIAN_POINT('',(0.0198521052631579,0.,0.0376587435603142));
#1229=CARTESIAN_POINT('',(0.014609515137045,0.,0.0376587435603142));
#1230=CARTESIAN_POINT('',(0.0198521052631579,0.,0.0376587435603142));
#1231=CARTESIAN_POINT('',(0.0198521052631579,0.,0.0381497181952));
#1232=CARTESIAN_POINT('',(0.0141771672582313,0.,0.0381497181952));
#1233=CARTESIAN_POINT('',(0.0198521052631579,0.,0.0381497181952));
#1234=CARTESIAN_POINT('',(0.0198521052631579,0.,0.0386973470449447));
#1235=CARTESIAN_POINT('',(0.014609515137045,0.,0.0386973470449447));
#1236=CARTESIAN_POINT('',(0.0198521052631579,0.,0.0281968611525372));
#1237=CARTESIAN_POINT('',(0.0198521052631579,0.,0.0393771603703499));
#1238=CARTESIAN_POINT('',(0.014609515137045,0.,0.0393771603703499));
#1239=CARTESIAN_POINT('',(0.0254761017858982,0.,0.0393771603703499));
#1240=CARTESIAN_POINT('',(0.0198521052631579,0.,0.0393771603703499));
#1241=CARTESIAN_POINT('',(0.0138467023437902,0.,0.0393771603703499));
#1242=CARTESIAN_POINT('',(0.0198521052631579,0.,0.0393771603703499));
#1243=CARTESIAN_POINT('',(0.0198521052631579,0.,0.0398749483776861));
#1244=CARTESIAN_POINT('',(0.0140331208730829,0.,0.0398749483776861));
#1245=CARTESIAN_POINT('',(0.0198521052631579,0.,0.0398749483776861));
#1246=CARTESIAN_POINT('',(0.0198521052631579,0.,0.0407651141285897));
#1247=CARTESIAN_POINT('',(0.012675910658209,0.,0.0407651141285897));
#1248=CARTESIAN_POINT('',(0.0198521052631579,0.,0.0407651141285897));
#1249=CARTESIAN_POINT('',(0.0198521052631579,0.,0.0427345857024193));
#1250=CARTESIAN_POINT('',(0.0122333312695905,0.,0.0427345857024193));
#1251=CARTESIAN_POINT('',(0.0198521052631579,0.,0.0427345857024193));
#1252=CARTESIAN_POINT('',(0.0198521052631579,0.,0.043546911329031));
#1253=CARTESIAN_POINT('',(0.0116294654375001,0.,0.043546911329031));
#1254=CARTESIAN_POINT('',(0.0198521052631579,0.,0.0281968611525372));
#1255=CARTESIAN_POINT('',(0.0198521052631579,0.,0.0444451756775379));
#1256=CARTESIAN_POINT('',(0.0116294654375001,0.,0.0444451756775379));
#1257=CARTESIAN_POINT('',(0.0198521052631579,0.,0.0444451756775379));
#1258=CARTESIAN_POINT('',(0.0198521052631579,0.,0.0478361286222935));
#1259=CARTESIAN_POINT('',(0.010326981014578,0.,0.0478361286222935));
#1260=CARTESIAN_POINT('',(0.0291638914495706,0.,0.0478361286222935));
#1261=CARTESIAN_POINT('',(0.0198521052631579,0.,0.0478361286222935));
#1262=CARTESIAN_POINT('',(0.0107536571389123,0.,0.0478361286222935));
#1263=CARTESIAN_POINT('',(0.0198521052631579,0.,0.0478361286222935));
#1264=CARTESIAN_POINT('',(0.0198521052631579,0.,0.0466908402740955));
#1265=CARTESIAN_POINT('',(0.0111803332632466,0.,0.0466908402740955));
#1266=CARTESIAN_POINT('',(0.0198521052631579,0.,0.0466908402740955));
#1267=CARTESIAN_POINT('',(0.0198521052631579,0.,0.0478361286222935));
#1268=CARTESIAN_POINT('',(0.0113824433004543,0.,0.0478361286222935));
#1269=CARTESIAN_POINT('',(0.0198521052631579,0.,0.0478361286222935));
#1270=CARTESIAN_POINT('',(0.0198521052631579,0.,0.0481412756942503));
#1271=CARTESIAN_POINT('',(0.0114967189911777,0.,0.0481412756942503));
#1272=CARTESIAN_POINT('',(0.0198521052631579,0.,0.0481412756942503));
#1273=CARTESIAN_POINT('',(0.0198521052631579,0.,0.0480831526219845));
#1274=CARTESIAN_POINT('',(0.012123511574237,0.,0.0480831526219845));
#1275=CARTESIAN_POINT('',(0.0198521052631579,0.,0.0480831526219845));
#1276=CARTESIAN_POINT('',(0.0198521052631579,0.,0.0458150319755077));
#1277=CARTESIAN_POINT('',(0.0126400156235381,0.,0.0458150319755077));
#1278=CARTESIAN_POINT('',(0.0266375187784434,0.,0.0458150319755077));
#1279=CARTESIAN_POINT('',(0.0198521052631579,0.,0.0458150319755077));
#1280=CARTESIAN_POINT('',(0.0134933678722068,0.,0.0458150319755077));
#1281=CARTESIAN_POINT('',(0.0198521052631579,0.,0.0281968611525372));
#1282=CARTESIAN_POINT('',(0.0198521052631579,0.,0.0464438162744045));
#1283=CARTESIAN_POINT('',(0.0134933678722068,0.,0.0464438162744045));
#1284=CARTESIAN_POINT('',(0.0256527690216899,0.,0.0464438162744045));
#1285=CARTESIAN_POINT('',(0.0198521052631579,0.,0.0464438162744045));
#1286=CARTESIAN_POINT('',(0.014609515137045,0.,0.0464438162744045));
#1287=CARTESIAN_POINT('',(0.0198521052631579,0.,0.0281968611525372));
#1288=CARTESIAN_POINT('',(0.0198521052631579,0.,0.0468031242489815));
#1289=CARTESIAN_POINT('',(0.014609515137045,0.,0.0468031242489815));
#1290=CARTESIAN_POINT('',(0.0198521052631579,0.,0.0468031242489815));
#1291=CARTESIAN_POINT('',(0.0198521052631579,0.,0.0469262817795418));
#1292=CARTESIAN_POINT('',(0.0142806511450444,0.,0.0469262817795418));
#1293=CARTESIAN_POINT('',(0.0198521052631579,0.,0.0469262817795418));
#1294=CARTESIAN_POINT('',(0.0198521052631579,0.,0.0481274380032631));
#1295=CARTESIAN_POINT('',(0.0140071198166474,0.,0.0481274380032631));
#1296=CARTESIAN_POINT('',(0.0250954549061567,0.,0.0481274380032631));
#1297=CARTESIAN_POINT('',(0.0198521052631579,0.,0.0481274380032631));
#1298=CARTESIAN_POINT('',(0.0152103914236709,0.,0.0481274380032631));
#1299=CARTESIAN_POINT('',(0.0198521052631579,0.,0.0481274380032631));
#1300=CARTESIAN_POINT('',(0.0198521052631579,0.,0.047499280422926));
#1301=CARTESIAN_POINT('',(0.0160758825307771,0.,0.047499280422926));
#1302=CARTESIAN_POINT('',(0.0198521052631579,0.,0.047499280422926));
#1303=CARTESIAN_POINT('',(0.0198521052631579,0.,0.0471969448133013));
#1304=CARTESIAN_POINT('',(0.016883200565271,0.,0.0471969448133013));
#1305=CARTESIAN_POINT('',(0.0198521052631579,0.,0.0281968611525372));
#1306=CARTESIAN_POINT('',(0.0198521052631579,0.,0.0461967960000038));
#1307=CARTESIAN_POINT('',(0.016883200565271,0.,0.0461967960000038));
#1308=CARTESIAN_POINT('',(0.0222028916986168,0.,0.0461967960000038));
#1309=CARTESIAN_POINT('',(0.0198521052631579,0.,0.0461967960000038));
#1310=CARTESIAN_POINT('',(0.0181194370901271,0.,0.0461967960000038));
#1311=CARTESIAN_POINT('',(0.0198521052631579,0.,0.0281968611525372));
#1312=CARTESIAN_POINT('',(0.0198521052631579,0.,0.0453209839761257));
#1313=CARTESIAN_POINT('',(0.0181194370901271,0.,0.0453209839761257));
#1314=CARTESIAN_POINT('',(0.0212030103430152,0.,0.0453209839761257));
#1315=CARTESIAN_POINT('',(0.0198521052631579,0.,0.0453209839761257));
#1316=CARTESIAN_POINT('',(0.0188829632764741,0.,0.0453209839761257));
#1317=CARTESIAN_POINT('',(0.0198521052631579,0.,0.0281968611525372));
#1318=CARTESIAN_POINT('',(0.0198521052631579,0.,0.046601016074419));
#1319=CARTESIAN_POINT('',(0.0188829632764741,0.,0.046601016074419));
#1320=CARTESIAN_POINT('',(0.0198521052631579,0.,0.046601016074419));
#1321=CARTESIAN_POINT('',(0.0198521052631579,0.,0.0467678301788226));
#1322=CARTESIAN_POINT('',(0.0184375243979373,0.,0.0467678301788226));
#1323=CARTESIAN_POINT('',(0.0198521052631579,0.,0.0281968611525372));
#1324=CARTESIAN_POINT('',(0.0198521052631579,0.,0.0481274380032631));
#1325=CARTESIAN_POINT('',(0.0184375243979373,0.,0.0481274380032631));
#1326=CARTESIAN_POINT('',(0.0198521052631579,0.,0.0481274380032631));
#1327=CARTESIAN_POINT('',(0.0198521052631579,0.,0.0485547445714474));
#1328=CARTESIAN_POINT('',(0.0188829632764741,0.,0.0485547445714474));
#1329=CARTESIAN_POINT('',(0.0218211286054432,0.,0.0485547445714474));
#1330=CARTESIAN_POINT('',(0.0198521052631579,0.,0.0485547445714474));
#1331=CARTESIAN_POINT('',(0.016883200565271,0.,0.0485547445714474));
#1332=CARTESIAN_POINT('',(0.0198521052631579,0.,0.0281968611525372));
#1333=CARTESIAN_POINT('',(0.0198521052631579,0.,0.0509126894176006));
#1334=CARTESIAN_POINT('',(0.016883200565271,0.,0.0509126894176006));
#1335=CARTESIAN_POINT('',(0.0214537814544022,0.,0.0509126894176006));
#1336=CARTESIAN_POINT('',(0.0198521052631579,0.,0.0509126894176006));
#1337=CARTESIAN_POINT('',(0.0196176575785562,0.,0.0509126894176006));
#1338=CARTESIAN_POINT('',(0.0198521052631579,0.,0.0509126894176006));
#1339=CARTESIAN_POINT('',(0.0198521052631579,0.,0.0519999228417873));
#1340=CARTESIAN_POINT('',(0.0185227277046128,0.,0.0519999228417873));
#1341=CARTESIAN_POINT('',(0.0198521052631579,0.,0.0281968611525372));
#1342=CARTESIAN_POINT('',(0.0198521052631579,0.,0.0532658398151398));
#1343=CARTESIAN_POINT('',(0.0185227277046128,0.,0.0532658398151398));
#1344=CARTESIAN_POINT('',(0.0205167940424305,0.,0.0532658398151398));
#1345=CARTESIAN_POINT('',(0.0198521052631579,0.,0.00312788248993456));
#1346=CARTESIAN_POINT('',(0.0198521052631579,0.,0.00339493853971362));
#1347=CARTESIAN_POINT('',(0.016376850596635,0.,0.00339493853971362));
#1348=CARTESIAN_POINT('',(0.0198521052631579,0.,0.00312788248993456));
#1349=CARTESIAN_POINT('',(0.0198521052631579,0.,0.00339493853971362));
#1350=MECHANICAL_DESIGN_GEOMETRIC_PRESENTATION_REPRESENTATION('',(#700),
#1351);
#1351=(
GEOMETRIC_REPRESENTATION_CONTEXT(3)
GLOBAL_UNCERTAINTY_ASSIGNED_CONTEXT((#1352))
GLOBAL_UNIT_ASSIGNED_CONTEXT((#1355,#1354,#1353))
REPRESENTATION_CONTEXT('Da Rook','TOP_LEVEL_ASSEMBLY_PART')
);
#1352=UNCERTAINTY_MEASURE_WITH_UNIT(LENGTH_MEASURE(2.E-5),#1355,
'DISTANCE_ACCURACY_VALUE','Maximum Tolerance applied to model');
#1353=(
NAMED_UNIT(*)
SI_UNIT($,.STERADIAN.)
SOLID_ANGLE_UNIT()
);
#1354=(
NAMED_UNIT(*)
PLANE_ANGLE_UNIT()
SI_UNIT($,.RADIAN.)
);
#1355=(
LENGTH_UNIT()
NAMED_UNIT(*)
SI_UNIT($,.METRE.)
);
#1356=PRODUCT_DEFINITION_SHAPE('','',#1357);
#1357=PRODUCT_DEFINITION('','',#1359,#1358);
#1358=PRODUCT_DEFINITION_CONTEXT('',#1365,'design');
#1359=PRODUCT_DEFINITION_FORMATION_WITH_SPECIFIED_SOURCE('','',#1361,
 .NOT_KNOWN.);
#1360=PRODUCT_RELATED_PRODUCT_CATEGORY('','',(#1361));
#1361=PRODUCT('Da Rook','Da Rook','Da Rook',(#1363));
#1362=PRODUCT_CATEGORY('','');
#1363=PRODUCT_CONTEXT('',#1365,'mechanical');
#1364=APPLICATION_PROTOCOL_DEFINITION('international standard',
'ap242_managed_model_based_3d_engineering',2020,#1365);
#1365=APPLICATION_CONTEXT('managed model based 3d engineering');
ENDSEC;
END-ISO-10303-21;
