ISO-10303-21;
HEADER;
/* Generated by software containing ST-Developer
 * from STEP Tools, Inc. (www.steptools.com) 
 */
/* OPTION: using custom renumber hook */

FILE_DESCRIPTION(
/* description */ ('STEP AP242 Edition 2',
'CAx-IF Rec.Pracs.---Representation and Presentation of Product Manufa
cturing Information (PMI)---4.0---2014-10-13',
'CAx-IF Rec.Pracs.---3D Tessellated Geometry---0.4---2014-09-14','2;1',
'CAx-IF Rec.Pracs.---User Defined Attributes---1.5---2016-08-15'),
/* implementation_level */ '2;1');

FILE_NAME(
/* name */ 'Part Studio 1 - Pawn',
/* time_stamp */ '2026-09-24T22:51:45Z',
/* author */ (''),
/* organization */ (''),
/* preprocessor_version */ 'ST-DEVELOPER v20',
/* originating_system */ 'ONSHAPE BY PTC INC, 1.221',
/* authorisation */ '  ');

FILE_SCHEMA (('AP242_MANAGED_MODEL_BASED_3D_ENGINEERING_MIM_LF { 1 0 10303 442 3 1 4 }'));
ENDSEC;

DATA;
#10=SHAPE_REPRESENTATION_RELATIONSHIP('','',#295,#11);
#11=ADVANCED_BREP_SHAPE_REPRESENTATION('',(#293),#1091);
#12=CYLINDRICAL_SURFACE('',#336,0.0149272671187773);
#13=VERTEX_LOOP('',#123);
#14=VERTEX_LOOP('',#125);
#15=PLANE('',#317);
#16=DEGENERATE_TOROIDAL_SURFACE('',#311,0.00988971957796227,0.0419689901827644,
 .F.);
#17=DEGENERATE_TOROIDAL_SURFACE('',#319,0.00131589455851586,0.00635509842275207,
 .T.);
#18=TOROIDAL_SURFACE('',#307,0.00993807249580667,0.00391214510814879);
#19=TOROIDAL_SURFACE('',#309,0.00719284881483937,0.00113654725173356);
#20=TOROIDAL_SURFACE('',#313,0.00727254433356073,0.00156548494718658);
#21=TOROIDAL_SURFACE('',#315,0.00688139384844114,0.00198520207635469);
#22=TOROIDAL_SURFACE('',#321,0.0025032144273901,0.000521230835408266);
#23=TOROIDAL_SURFACE('',#326,0.00156309131483905,0.00120756867307108);
#24=TOROIDAL_SURFACE('',#330,0.0164549396709793,0.00254);
#25=TOROIDAL_SURFACE('',#334,0.0132401090290467,0.0016871580897306);
#26=TOROIDAL_SURFACE('',#338,0.0109842326066404,0.00394303451213693);
#27=TOROIDAL_SURFACE('',#340,0.010907897837484,0.00404248171975469);
#28=CONICAL_SURFACE('',#299,0.00966778315136087,0.763332810001748);
#29=CONICAL_SURFACE('',#301,0.00801068534993754,0.291532918435772);
#30=CONICAL_SURFACE('',#303,0.00816487429985077,0.335693106873494);
#31=CONICAL_SURFACE('',#305,0.0071691153789428,0.371856448216252);
#32=CONICAL_SURFACE('',#324,0.00249850614382713,0.684671859268187);
#33=CONICAL_SURFACE('',#332,0.0143711768481418,0.608722714896616);
#34=ORIENTED_EDGE('',*,*,#82,.F.);
#35=ORIENTED_EDGE('',*,*,#83,.T.);
#36=ORIENTED_EDGE('',*,*,#84,.F.);
#37=ORIENTED_EDGE('',*,*,#82,.T.);
#38=ORIENTED_EDGE('',*,*,#85,.F.);
#39=ORIENTED_EDGE('',*,*,#84,.T.);
#40=ORIENTED_EDGE('',*,*,#86,.F.);
#41=ORIENTED_EDGE('',*,*,#85,.T.);
#42=ORIENTED_EDGE('',*,*,#87,.F.);
#43=ORIENTED_EDGE('',*,*,#86,.T.);
#44=ORIENTED_EDGE('',*,*,#88,.F.);
#45=ORIENTED_EDGE('',*,*,#87,.T.);
#46=ORIENTED_EDGE('',*,*,#89,.F.);
#47=ORIENTED_EDGE('',*,*,#88,.T.);
#48=ORIENTED_EDGE('',*,*,#90,.F.);
#49=ORIENTED_EDGE('',*,*,#89,.T.);
#50=ORIENTED_EDGE('',*,*,#91,.F.);
#51=ORIENTED_EDGE('',*,*,#90,.T.);
#52=ORIENTED_EDGE('',*,*,#92,.F.);
#53=ORIENTED_EDGE('',*,*,#91,.T.);
#54=ORIENTED_EDGE('',*,*,#93,.F.);
#55=ORIENTED_EDGE('',*,*,#92,.T.);
#56=ORIENTED_EDGE('',*,*,#94,.F.);
#57=ORIENTED_EDGE('',*,*,#93,.T.);
#58=ORIENTED_EDGE('',*,*,#94,.T.);
#59=ORIENTED_EDGE('',*,*,#95,.F.);
#60=ORIENTED_EDGE('',*,*,#96,.F.);
#61=ORIENTED_EDGE('',*,*,#95,.T.);
#62=ORIENTED_EDGE('',*,*,#96,.T.);
#63=ORIENTED_EDGE('',*,*,#97,.F.);
#64=ORIENTED_EDGE('',*,*,#98,.F.);
#65=ORIENTED_EDGE('',*,*,#97,.T.);
#66=ORIENTED_EDGE('',*,*,#98,.T.);
#67=ORIENTED_EDGE('',*,*,#99,.F.);
#68=ORIENTED_EDGE('',*,*,#100,.F.);
#69=ORIENTED_EDGE('',*,*,#99,.T.);
#70=ORIENTED_EDGE('',*,*,#100,.T.);
#71=ORIENTED_EDGE('',*,*,#101,.F.);
#72=ORIENTED_EDGE('',*,*,#102,.F.);
#73=ORIENTED_EDGE('',*,*,#101,.T.);
#74=ORIENTED_EDGE('',*,*,#103,.F.);
#75=ORIENTED_EDGE('',*,*,#102,.T.);
#76=ORIENTED_EDGE('',*,*,#104,.F.);
#77=ORIENTED_EDGE('',*,*,#103,.T.);
#78=ORIENTED_EDGE('',*,*,#105,.F.);
#79=ORIENTED_EDGE('',*,*,#104,.T.);
#80=ORIENTED_EDGE('',*,*,#83,.F.);
#81=ORIENTED_EDGE('',*,*,#105,.T.);
#82=EDGE_CURVE('',#106,#106,#132,.T.);
#83=EDGE_CURVE('',#107,#107,#133,.T.);
#84=EDGE_CURVE('',#108,#108,#134,.T.);
#85=EDGE_CURVE('',#109,#109,#135,.T.);
#86=EDGE_CURVE('',#110,#110,#136,.T.);
#87=EDGE_CURVE('',#111,#111,#137,.T.);
#88=EDGE_CURVE('',#112,#112,#138,.T.);
#89=EDGE_CURVE('',#113,#113,#139,.T.);
#90=EDGE_CURVE('',#114,#114,#140,.T.);
#91=EDGE_CURVE('',#115,#115,#141,.T.);
#92=EDGE_CURVE('',#116,#116,#142,.T.);
#93=EDGE_CURVE('',#117,#117,#143,.T.);
#94=EDGE_CURVE('',#118,#118,#144,.T.);
#95=EDGE_CURVE('',#119,#119,#145,.T.);
#96=EDGE_CURVE('',#120,#120,#146,.T.);
#97=EDGE_CURVE('',#121,#121,#147,.T.);
#98=EDGE_CURVE('',#122,#122,#148,.T.);
#99=EDGE_CURVE('',#124,#124,#149,.T.);
#100=EDGE_CURVE('',#126,#126,#150,.T.);
#101=EDGE_CURVE('',#127,#127,#151,.T.);
#102=EDGE_CURVE('',#128,#128,#152,.T.);
#103=EDGE_CURVE('',#129,#129,#153,.T.);
#104=EDGE_CURVE('',#130,#130,#154,.T.);
#105=EDGE_CURVE('',#131,#131,#155,.T.);
#106=VERTEX_POINT('',#509);
#107=VERTEX_POINT('',#511);
#108=VERTEX_POINT('',#514);
#109=VERTEX_POINT('',#517);
#110=VERTEX_POINT('',#520);
#111=VERTEX_POINT('',#523);
#112=VERTEX_POINT('',#526);
#113=VERTEX_POINT('',#529);
#114=VERTEX_POINT('',#532);
#115=VERTEX_POINT('',#535);
#116=VERTEX_POINT('',#538);
#117=VERTEX_POINT('',#541);
#118=VERTEX_POINT('',#544);
#119=VERTEX_POINT('',#547);
#120=VERTEX_POINT('',#604);
#121=VERTEX_POINT('',#607);
#122=VERTEX_POINT('',#610);
#123=VERTEX_POINT('',#688);
#124=VERTEX_POINT('',#899);
#125=VERTEX_POINT('',#900);
#126=VERTEX_POINT('',#1073);
#127=VERTEX_POINT('',#1076);
#128=VERTEX_POINT('',#1079);
#129=VERTEX_POINT('',#1082);
#130=VERTEX_POINT('',#1085);
#131=VERTEX_POINT('',#1088);
#132=CIRCLE('',#297,0.00966778315136087);
#133=CIRCLE('',#298,0.0109877167488006);
#134=CIRCLE('',#300,0.00801068534993754);
#135=CIRCLE('',#302,0.00816487429985077);
#136=CIRCLE('',#304,0.0071691153789428);
#137=CIRCLE('',#306,0.00629330521770985);
#138=CIRCLE('',#308,0.00606873913058312);
#139=CIRCLE('',#310,0.00674243925460846);
#140=CIRCLE('',#312,0.00793751797029049);
#141=CIRCLE('',#314,0.00873147977837593);
#142=CIRCLE('',#316,0.00682531765052349);
#143=CIRCLE('',#318,0.00475423338985712);
#144=CIRCLE('',#320,0.00241321470458511);
#145=CIRCLE('',#322,0.00209663878567891);
#146=CIRCLE('',#323,0.00179423487135442);
#147=CIRCLE('',#325,0.00249850614382713);
#148=CIRCLE('',#327,0.00272708632309364);
#149=CIRCLE('',#328,0.0134855648721126);
#150=CIRCLE('',#329,0.013920900205442);
#151=CIRCLE('',#331,0.0143711768481418);
#152=CIRCLE('',#333,0.0146242182037043);
#153=CIRCLE('',#335,0.0149272671187773);
#154=CIRCLE('',#337,0.0149272671187773);
#155=CIRCLE('',#339,0.0140108699197431);
#156=EDGE_LOOP('',(#34));
#157=EDGE_LOOP('',(#35));
#158=EDGE_LOOP('',(#36));
#159=EDGE_LOOP('',(#37));
#160=EDGE_LOOP('',(#38));
#161=EDGE_LOOP('',(#39));
#162=EDGE_LOOP('',(#40));
#163=EDGE_LOOP('',(#41));
#164=EDGE_LOOP('',(#42));
#165=EDGE_LOOP('',(#43));
#166=EDGE_LOOP('',(#44));
#167=EDGE_LOOP('',(#45));
#168=EDGE_LOOP('',(#46));
#169=EDGE_LOOP('',(#47));
#170=EDGE_LOOP('',(#48));
#171=EDGE_LOOP('',(#49));
#172=EDGE_LOOP('',(#50));
#173=EDGE_LOOP('',(#51));
#174=EDGE_LOOP('',(#52));
#175=EDGE_LOOP('',(#53));
#176=EDGE_LOOP('',(#54));
#177=EDGE_LOOP('',(#55));
#178=EDGE_LOOP('',(#56));
#179=EDGE_LOOP('',(#57));
#180=EDGE_LOOP('',(#58));
#181=EDGE_LOOP('',(#59));
#182=EDGE_LOOP('',(#60));
#183=EDGE_LOOP('',(#61));
#184=EDGE_LOOP('',(#62));
#185=EDGE_LOOP('',(#63));
#186=EDGE_LOOP('',(#64));
#187=EDGE_LOOP('',(#65));
#188=EDGE_LOOP('',(#66));
#189=EDGE_LOOP('',(#67));
#190=EDGE_LOOP('',(#68));
#191=EDGE_LOOP('',(#69));
#192=EDGE_LOOP('',(#70));
#193=EDGE_LOOP('',(#71));
#194=EDGE_LOOP('',(#72));
#195=EDGE_LOOP('',(#73));
#196=EDGE_LOOP('',(#74));
#197=EDGE_LOOP('',(#75));
#198=EDGE_LOOP('',(#76));
#199=EDGE_LOOP('',(#77));
#200=EDGE_LOOP('',(#78));
#201=EDGE_LOOP('',(#79));
#202=EDGE_LOOP('',(#80));
#203=EDGE_LOOP('',(#81));
#204=FACE_BOUND('',#156,.T.);
#205=FACE_BOUND('',#157,.T.);
#206=FACE_BOUND('',#158,.T.);
#207=FACE_BOUND('',#159,.T.);
#208=FACE_BOUND('',#160,.T.);
#209=FACE_BOUND('',#161,.T.);
#210=FACE_BOUND('',#162,.T.);
#211=FACE_BOUND('',#163,.T.);
#212=FACE_BOUND('',#164,.T.);
#213=FACE_BOUND('',#165,.T.);
#214=FACE_BOUND('',#166,.T.);
#215=FACE_BOUND('',#167,.T.);
#216=FACE_BOUND('',#168,.T.);
#217=FACE_BOUND('',#169,.T.);
#218=FACE_BOUND('',#170,.T.);
#219=FACE_BOUND('',#171,.T.);
#220=FACE_BOUND('',#172,.T.);
#221=FACE_BOUND('',#173,.T.);
#222=FACE_BOUND('',#174,.T.);
#223=FACE_BOUND('',#175,.T.);
#224=FACE_BOUND('',#176,.T.);
#225=FACE_BOUND('',#177,.T.);
#226=FACE_BOUND('',#178,.T.);
#227=FACE_BOUND('',#179,.T.);
#228=FACE_BOUND('',#180,.T.);
#229=FACE_BOUND('',#181,.T.);
#230=FACE_BOUND('',#182,.T.);
#231=FACE_BOUND('',#183,.T.);
#232=FACE_BOUND('',#184,.T.);
#233=FACE_BOUND('',#185,.T.);
#234=FACE_BOUND('',#186,.T.);
#235=FACE_BOUND('',#187,.T.);
#236=FACE_BOUND('',#188,.T.);
#237=FACE_BOUND('',#13,.T.);
#238=FACE_BOUND('',#189,.T.);
#239=FACE_BOUND('',#14,.T.);
#240=FACE_BOUND('',#190,.T.);
#241=FACE_BOUND('',#191,.T.);
#242=FACE_BOUND('',#192,.T.);
#243=FACE_BOUND('',#193,.T.);
#244=FACE_BOUND('',#194,.T.);
#245=FACE_BOUND('',#195,.T.);
#246=FACE_BOUND('',#196,.T.);
#247=FACE_BOUND('',#197,.T.);
#248=FACE_BOUND('',#198,.T.);
#249=FACE_BOUND('',#199,.T.);
#250=FACE_BOUND('',#200,.T.);
#251=FACE_BOUND('',#201,.T.);
#252=FACE_BOUND('',#202,.T.);
#253=FACE_BOUND('',#203,.T.);
#254=B_SPLINE_SURFACE_WITH_KNOTS('',3,3,((#432,#433,#434,#435,#436,#437,
#438,#439,#440,#441,#442,#443,#444,#445,#446,#447,#448,#449,#450),(#451,
#452,#453,#454,#455,#456,#457,#458,#459,#460,#461,#462,#463,#464,#465,#466,
#467,#468,#469),(#470,#471,#472,#473,#474,#475,#476,#477,#478,#479,#480,
#481,#482,#483,#484,#485,#486,#487,#488),(#489,#490,#491,#492,#493,#494,
#495,#496,#497,#498,#499,#500,#501,#502,#503,#504,#505,#506,#507)),
 .UNSPECIFIED.,.F.,.T.,.F.,(4,4),(1,1,1,1,1,1,1,1,1,1,1,1,1,1,1,1,1,1,1,
1,1,1,1),(0.,0.637740069816679),(-1.17809724509617,-0.785398163397448,-0.392699081698725,
0.,0.392699081698724,0.785398163397448,1.17809724509617,1.5707963267949,
1.96349540849362,2.35619449019234,2.74889357189107,3.14159265358979,3.53429173528852,
3.92699081698724,4.31968989868597,4.71238898038469,5.10508806208341,5.49778714378214,
5.89048622548086,6.28318530717959,6.67588438887831,7.06858347057703,7.46128255227576),
 .UNSPECIFIED.);
#255=B_SPLINE_SURFACE_WITH_KNOTS('',3,3,((#548,#549,#550,#551,#552,#553,
#554,#555,#556,#557,#558),(#559,#560,#561,#562,#563,#564,#565,#566,#567,
#568,#569),(#570,#571,#572,#573,#574,#575,#576,#577,#578,#579,#580),(#581,
#582,#583,#584,#585,#586,#587,#588,#589,#590,#591),(#592,#593,#594,#595,
#596,#597,#598,#599,#600,#601,#602)),.UNSPECIFIED.,.F.,.T.,.F.,(4,1,4),
(1,1,1,1,1,1,1,1,1,1,1,1,1,1,1),(0.179741981653462,0.589870990826731,1.),
(-2.35619449019234,-1.5707963267949,-0.785398163397448,0.,0.785398163397448,
1.5707963267949,2.35619449019234,3.14159265358979,3.92699081698724,4.71238898038469,
5.49778714378214,6.28318530717959,7.06858347057703,7.85398163397448,8.63937979737193),
 .UNSPECIFIED.);
#256=B_SPLINE_SURFACE_WITH_KNOTS('',3,3,((#611,#612,#613,#614,#615,#616,
#617,#618,#619,#620,#621),(#622,#623,#624,#625,#626,#627,#628,#629,#630,
#631,#632),(#633,#634,#635,#636,#637,#638,#639,#640,#641,#642,#643),(#644,
#645,#646,#647,#648,#649,#650,#651,#652,#653,#654),(#655,#656,#657,#658,
#659,#660,#661,#662,#663,#664,#665),(#666,#667,#668,#669,#670,#671,#672,
#673,#674,#675,#676),(#677,#678,#679,#680,#681,#682,#683,#684,#685,#686,
#687)),.UNSPECIFIED.,.F.,.T.,.F.,(4,1,1,1,4),(1,1,1,1,1,1,1,1,1,1,1,1,1,
1,1),(0.,0.233613845773752,0.40048087846929,0.567347911164827,0.80096175693858),
(-2.35619449019234,-1.5707963267949,-0.785398163397448,0.,0.785398163397448,
1.5707963267949,2.35619449019234,3.14159265358979,3.92699081698724,4.71238898038469,
5.49778714378214,6.28318530717959,7.06858347057703,7.85398163397448,8.63937979737193),
 .UNSPECIFIED.);
#257=B_SPLINE_SURFACE_WITH_KNOTS('',3,3,((#689,#690,#691,#692,#693,#694,
#695,#696,#697,#698,#699,#700,#701,#702,#703,#704,#705,#706,#707),(#708,
#709,#710,#711,#712,#713,#714,#715,#716,#717,#718,#719,#720,#721,#722,#723,
#724,#725,#726),(#727,#728,#729,#730,#731,#732,#733,#734,#735,#736,#737,
#738,#739,#740,#741,#742,#743,#744,#745),(#746,#747,#748,#749,#750,#751,
#752,#753,#754,#755,#756,#757,#758,#759,#760,#761,#762,#763,#764),(#765,
#766,#767,#768,#769,#770,#771,#772,#773,#774,#775,#776,#777,#778,#779,#780,
#781,#782,#783),(#784,#785,#786,#787,#788,#789,#790,#791,#792,#793,#794,
#795,#796,#797,#798,#799,#800,#801,#802),(#803,#804,#805,#806,#807,#808,
#809,#810,#811,#812,#813,#814,#815,#816,#817,#818,#819,#820,#821),(#822,
#823,#824,#825,#826,#827,#828,#829,#830,#831,#832,#833,#834,#835,#836,#837,
#838,#839,#840),(#841,#842,#843,#844,#845,#846,#847,#848,#849,#850,#851,
#852,#853,#854,#855,#856,#857,#858,#859),(#860,#861,#862,#863,#864,#865,
#866,#867,#868,#869,#870,#871,#872,#873,#874,#875,#876,#877,#878),(#879,
#880,#881,#882,#883,#884,#885,#886,#887,#888,#889,#890,#891,#892,#893,#894,
#895,#896,#897)),.UNSPECIFIED.,.F.,.T.,.F.,(4,1,1,1,1,1,1,1,4),(1,1,1,1,
1,1,1,1,1,1,1,1,1,1,1,1,1,1,1,1,1,1,1),(0.,0.125,0.1875,0.270833333333333,
0.375,0.5,0.625,0.75,1.),(-1.17809724509617,-0.785398163397448,-0.392699081698725,
0.,0.392699081698724,0.785398163397448,1.17809724509617,1.5707963267949,
1.96349540849362,2.35619449019234,2.74889357189107,3.14159265358979,3.53429173528852,
3.92699081698724,4.31968989868597,4.71238898038469,5.10508806208341,5.49778714378214,
5.89048622548086,6.28318530717959,6.67588438887831,7.06858347057703,7.46128255227576),
 .UNSPECIFIED.);
#258=B_SPLINE_SURFACE_WITH_KNOTS('',3,3,((#901,#902,#903,#904,#905,#906,
#907,#908,#909,#910,#911,#912,#913,#914,#915,#916,#917,#918,#919),(#920,
#921,#922,#923,#924,#925,#926,#927,#928,#929,#930,#931,#932,#933,#934,#935,
#936,#937,#938),(#939,#940,#941,#942,#943,#944,#945,#946,#947,#948,#949,
#950,#951,#952,#953,#954,#955,#956,#957),(#958,#959,#960,#961,#962,#963,
#964,#965,#966,#967,#968,#969,#970,#971,#972,#973,#974,#975,#976),(#977,
#978,#979,#980,#981,#982,#983,#984,#985,#986,#987,#988,#989,#990,#991,#992,
#993,#994,#995),(#996,#997,#998,#999,#1000,#1001,#1002,#1003,#1004,#1005,
#1006,#1007,#1008,#1009,#1010,#1011,#1012,#1013,#1014),(#1015,#1016,#1017,
#1018,#1019,#1020,#1021,#1022,#1023,#1024,#1025,#1026,#1027,#1028,#1029,
#1030,#1031,#1032,#1033),(#1034,#1035,#1036,#1037,#1038,#1039,#1040,#1041,
#1042,#1043,#1044,#1045,#1046,#1047,#1048,#1049,#1050,#1051,#1052),(#1053,
#1054,#1055,#1056,#1057,#1058,#1059,#1060,#1061,#1062,#1063,#1064,#1065,
#1066,#1067,#1068,#1069,#1070,#1071)),.UNSPECIFIED.,.F.,.T.,.F.,(4,1,1,
1,1,1,4),(1,1,1,1,1,1,1,1,1,1,1,1,1,1,1,1,1,1,1,1,1,1,1),(0.,0.225925898476296,
0.338888847714444,0.451851796952591,0.564814746190739,0.677777695428887,
0.903703593905183),(-1.17809724509617,-0.785398163397448,-0.392699081698725,
0.,0.392699081698724,0.785398163397448,1.17809724509617,1.5707963267949,
1.96349540849362,2.35619449019234,2.74889357189107,3.14159265358979,3.53429173528852,
3.92699081698724,4.31968989868597,4.71238898038469,5.10508806208341,5.49778714378214,
5.89048622548086,6.28318530717959,6.67588438887831,7.06858347057703,7.46128255227576),
 .UNSPECIFIED.);
#259=ADVANCED_FACE('',(#204,#205),#254,.F.);
#260=ADVANCED_FACE('',(#206,#207),#28,.T.);
#261=ADVANCED_FACE('',(#208,#209),#29,.T.);
#262=ADVANCED_FACE('',(#210,#211),#30,.T.);
#263=ADVANCED_FACE('',(#212,#213),#31,.T.);
#264=ADVANCED_FACE('',(#214,#215),#18,.F.);
#265=ADVANCED_FACE('',(#216,#217),#19,.F.);
#266=ADVANCED_FACE('',(#218,#219),#16,.F.);
#267=ADVANCED_FACE('',(#220,#221),#20,.T.);
#268=ADVANCED_FACE('',(#222,#223),#21,.T.);
#269=ADVANCED_FACE('',(#224,#225),#15,.F.);
#270=ADVANCED_FACE('',(#226,#227),#17,.T.);
#271=ADVANCED_FACE('',(#228,#229),#22,.F.);
#272=ADVANCED_FACE('',(#230,#231),#255,.F.);
#273=ADVANCED_FACE('',(#232,#233),#32,.T.);
#274=ADVANCED_FACE('',(#234,#235),#23,.T.);
#275=ADVANCED_FACE('',(#236,#237),#256,.T.);
#276=ADVANCED_FACE('',(#238,#239),#257,.F.);
#277=ADVANCED_FACE('',(#240,#241),#258,.F.);
#278=ADVANCED_FACE('',(#242,#243),#24,.F.);
#279=ADVANCED_FACE('',(#244,#245),#33,.T.);
#280=ADVANCED_FACE('',(#246,#247),#25,.T.);
#281=ADVANCED_FACE('',(#248,#249),#12,.T.);
#282=ADVANCED_FACE('',(#250,#251),#26,.T.);
#283=ADVANCED_FACE('',(#252,#253),#27,.T.);
#284=CLOSED_SHELL('',(#259,#260,#261,#262,#263,#264,#265,#266,#267,#268,
#269,#270,#271,#272,#273,#274,#275,#276,#277,#278,#279,#280,#281,#282,#283));
#285=STYLED_ITEM('',(#286),#293);
#286=PRESENTATION_STYLE_ASSIGNMENT((#287));
#287=SURFACE_STYLE_USAGE(.BOTH.,#288);
#288=SURFACE_SIDE_STYLE('',(#289));
#289=SURFACE_STYLE_FILL_AREA(#290);
#290=FILL_AREA_STYLE('',(#291));
#291=FILL_AREA_STYLE_COLOUR('',#292);
#292=COLOUR_RGB('',0.615686274509804,0.811764705882353,0.929411764705882);
#293=MANIFOLD_SOLID_BREP('Pawn',#284);
#294=SHAPE_DEFINITION_REPRESENTATION(#1096,#295);
#295=SHAPE_REPRESENTATION('Pawn',(#296),#1091);
#296=AXIS2_PLACEMENT_3D('',#431,#341,#342);
#297=AXIS2_PLACEMENT_3D('',#508,#343,#344);
#298=AXIS2_PLACEMENT_3D('',#510,#345,#346);
#299=AXIS2_PLACEMENT_3D('',#512,#347,#348);
#300=AXIS2_PLACEMENT_3D('',#513,#349,#350);
#301=AXIS2_PLACEMENT_3D('',#515,#351,#352);
#302=AXIS2_PLACEMENT_3D('',#516,#353,#354);
#303=AXIS2_PLACEMENT_3D('',#518,#355,#356);
#304=AXIS2_PLACEMENT_3D('',#519,#357,#358);
#305=AXIS2_PLACEMENT_3D('',#521,#359,#360);
#306=AXIS2_PLACEMENT_3D('',#522,#361,#362);
#307=AXIS2_PLACEMENT_3D('',#524,#363,#364);
#308=AXIS2_PLACEMENT_3D('',#525,#365,#366);
#309=AXIS2_PLACEMENT_3D('',#527,#367,#368);
#310=AXIS2_PLACEMENT_3D('',#528,#369,#370);
#311=AXIS2_PLACEMENT_3D('',#530,#371,#372);
#312=AXIS2_PLACEMENT_3D('',#531,#373,#374);
#313=AXIS2_PLACEMENT_3D('',#533,#375,#376);
#314=AXIS2_PLACEMENT_3D('',#534,#377,#378);
#315=AXIS2_PLACEMENT_3D('',#536,#379,#380);
#316=AXIS2_PLACEMENT_3D('',#537,#381,#382);
#317=AXIS2_PLACEMENT_3D('',#539,#383,#384);
#318=AXIS2_PLACEMENT_3D('',#540,#385,#386);
#319=AXIS2_PLACEMENT_3D('',#542,#387,#388);
#320=AXIS2_PLACEMENT_3D('',#543,#389,#390);
#321=AXIS2_PLACEMENT_3D('',#545,#391,#392);
#322=AXIS2_PLACEMENT_3D('',#546,#393,#394);
#323=AXIS2_PLACEMENT_3D('',#603,#395,#396);
#324=AXIS2_PLACEMENT_3D('',#605,#397,#398);
#325=AXIS2_PLACEMENT_3D('',#606,#399,#400);
#326=AXIS2_PLACEMENT_3D('',#608,#401,#402);
#327=AXIS2_PLACEMENT_3D('',#609,#403,#404);
#328=AXIS2_PLACEMENT_3D('',#898,#405,#406);
#329=AXIS2_PLACEMENT_3D('',#1072,#407,#408);
#330=AXIS2_PLACEMENT_3D('',#1074,#409,#410);
#331=AXIS2_PLACEMENT_3D('',#1075,#411,#412);
#332=AXIS2_PLACEMENT_3D('',#1077,#413,#414);
#333=AXIS2_PLACEMENT_3D('',#1078,#415,#416);
#334=AXIS2_PLACEMENT_3D('',#1080,#417,#418);
#335=AXIS2_PLACEMENT_3D('',#1081,#419,#420);
#336=AXIS2_PLACEMENT_3D('',#1083,#421,#422);
#337=AXIS2_PLACEMENT_3D('',#1084,#423,#424);
#338=AXIS2_PLACEMENT_3D('',#1086,#425,#426);
#339=AXIS2_PLACEMENT_3D('',#1087,#427,#428);
#340=AXIS2_PLACEMENT_3D('',#1089,#429,#430);
#341=DIRECTION('',(0.,0.,1.));
#342=DIRECTION('',(1.,0.,0.));
#343=DIRECTION('',(-1.42328536173713E-16,0.,1.));
#344=DIRECTION('',(1.,0.,1.42328536173713E-16));
#345=DIRECTION('',(-1.42328536173713E-16,0.,1.));
#346=DIRECTION('',(1.,0.,1.42328536173713E-16));
#347=DIRECTION('',(1.42328536173713E-16,0.,-1.));
#348=DIRECTION('',(-1.,0.,-1.42328536173713E-16));
#349=DIRECTION('',(-1.42328536173713E-16,0.,1.));
#350=DIRECTION('',(1.,0.,1.42328536173713E-16));
#351=DIRECTION('',(-1.42328536173713E-16,0.,1.));
#352=DIRECTION('',(1.,0.,1.42328536173713E-16));
#353=DIRECTION('',(-1.42328536173713E-16,0.,1.));
#354=DIRECTION('',(1.,0.,1.42328536173713E-16));
#355=DIRECTION('',(1.42328536173713E-16,0.,-1.));
#356=DIRECTION('',(-1.,0.,-1.42328536173713E-16));
#357=DIRECTION('',(-1.42328536173713E-16,0.,1.));
#358=DIRECTION('',(1.,0.,1.42328536173713E-16));
#359=DIRECTION('',(1.42328536173713E-16,0.,-1.));
#360=DIRECTION('',(-1.,0.,-1.42328536173713E-16));
#361=DIRECTION('',(-1.42328536173713E-16,0.,1.));
#362=DIRECTION('',(1.,0.,1.42328536173713E-16));
#363=DIRECTION('',(-1.42328536173713E-16,0.,1.));
#364=DIRECTION('',(1.,0.,1.42328536173713E-16));
#365=DIRECTION('',(-1.42328536173713E-16,0.,1.));
#366=DIRECTION('',(1.,0.,1.42328536173713E-16));
#367=DIRECTION('',(-1.42328536173713E-16,0.,1.));
#368=DIRECTION('',(1.,0.,1.42328536173713E-16));
#369=DIRECTION('',(-1.42328536173713E-16,0.,1.));
#370=DIRECTION('',(1.,0.,1.42328536173713E-16));
#371=DIRECTION('',(-1.42328536173713E-16,0.,1.));
#372=DIRECTION('',(1.,0.,1.42328536173713E-16));
#373=DIRECTION('',(-1.42328536173713E-16,0.,1.));
#374=DIRECTION('',(1.,0.,1.42328536173713E-16));
#375=DIRECTION('',(-1.42328536173713E-16,0.,1.));
#376=DIRECTION('',(1.,0.,1.42328536173713E-16));
#377=DIRECTION('',(-1.42328536173713E-16,0.,1.));
#378=DIRECTION('',(1.,0.,1.42328536173713E-16));
#379=DIRECTION('',(-1.42328536173713E-16,0.,1.));
#380=DIRECTION('',(1.,0.,1.42328536173713E-16));
#381=DIRECTION('',(-1.42328536173713E-16,0.,1.));
#382=DIRECTION('',(1.,0.,1.42328536173713E-16));
#383=DIRECTION('',(1.42328536173713E-16,0.,-1.));
#384=DIRECTION('',(-1.,0.,-1.42328536173713E-16));
#385=DIRECTION('',(-1.42328536173713E-16,0.,1.));
#386=DIRECTION('',(1.,0.,1.42328536173713E-16));
#387=DIRECTION('',(-1.42328536173713E-16,0.,1.));
#388=DIRECTION('',(1.,0.,1.42328536173713E-16));
#389=DIRECTION('',(-1.42328536173713E-16,0.,1.));
#390=DIRECTION('',(1.,0.,1.42328536173713E-16));
#391=DIRECTION('',(-1.42328536173713E-16,0.,1.));
#392=DIRECTION('',(1.,0.,1.42328536173713E-16));
#393=DIRECTION('',(-1.42328536173713E-16,0.,1.));
#394=DIRECTION('',(1.,0.,1.42328536173713E-16));
#395=DIRECTION('',(-1.42328536173713E-16,0.,1.));
#396=DIRECTION('',(1.,0.,1.42328536173713E-16));
#397=DIRECTION('',(-1.42328536173713E-16,0.,1.));
#398=DIRECTION('',(1.,0.,1.42328536173713E-16));
#399=DIRECTION('',(-1.42328536173713E-16,0.,1.));
#400=DIRECTION('',(1.,0.,1.42328536173713E-16));
#401=DIRECTION('',(-1.42328536173713E-16,0.,1.));
#402=DIRECTION('',(1.,0.,1.42328536173713E-16));
#403=DIRECTION('',(-1.42328536173713E-16,0.,1.));
#404=DIRECTION('',(1.,0.,1.42328536173713E-16));
#405=DIRECTION('',(-1.42328536173713E-16,0.,1.));
#406=DIRECTION('',(1.,0.,1.42328536173713E-16));
#407=DIRECTION('',(-1.42328536173713E-16,0.,1.));
#408=DIRECTION('',(1.,0.,1.42328536173713E-16));
#409=DIRECTION('',(-1.42328536173713E-16,0.,1.));
#410=DIRECTION('',(1.,0.,1.42328536173713E-16));
#411=DIRECTION('',(-1.42328536173713E-16,0.,1.));
#412=DIRECTION('',(1.,0.,1.42328536173713E-16));
#413=DIRECTION('',(-1.42328536173713E-16,0.,1.));
#414=DIRECTION('',(1.,0.,1.42328536173713E-16));
#415=DIRECTION('',(-1.42328536173713E-16,0.,1.));
#416=DIRECTION('',(1.,0.,1.42328536173713E-16));
#417=DIRECTION('',(-1.42328536173713E-16,0.,1.));
#418=DIRECTION('',(1.,0.,1.42328536173713E-16));
#419=DIRECTION('',(-1.42328536173713E-16,0.,1.));
#420=DIRECTION('',(1.,0.,1.42328536173713E-16));
#421=DIRECTION('',(-1.42328536173713E-16,0.,1.));
#422=DIRECTION('',(1.,0.,1.42328536173713E-16));
#423=DIRECTION('',(-1.42328536173713E-16,0.,1.));
#424=DIRECTION('',(1.,0.,1.42328536173713E-16));
#425=DIRECTION('',(-1.42328536173713E-16,0.,1.));
#426=DIRECTION('',(1.,0.,1.42328536173713E-16));
#427=DIRECTION('',(-1.42328536173713E-16,0.,1.));
#428=DIRECTION('',(1.,0.,1.42328536173713E-16));
#429=DIRECTION('',(-1.42328536173713E-16,0.,1.));
#430=DIRECTION('',(1.,0.,1.42328536173713E-16));
#431=CARTESIAN_POINT('',(0.,0.,0.));
#432=CARTESIAN_POINT('',(0.0254606806949522,-0.00431428563919823,0.0153633360767443));
#433=CARTESIAN_POINT('',(0.0263188454649972,-8.02309607639273E-18,0.0153633360767442));
#434=CARTESIAN_POINT('',(0.0254606806949522,0.00431428563919825,0.0153633360767442));
#435=CARTESIAN_POINT('',(0.0230168341917736,0.00797176039892528,0.0153633360767443));
#436=CARTESIAN_POINT('',(0.0193593594320466,0.0104156069021039,0.0153633360767442));
#437=CARTESIAN_POINT('',(0.0150450737928483,0.0112737716721489,0.0153633360767443));
#438=CARTESIAN_POINT('',(0.0107307881536501,0.0104156069021039,0.0153633360767442));
#439=CARTESIAN_POINT('',(0.00707331339392303,0.00797176039892528,0.0153633360767442));
#440=CARTESIAN_POINT('',(0.00462946689074441,0.00431428563919825,0.0153633360767442));
#441=CARTESIAN_POINT('',(0.00377130212069942,1.45315119546376E-18,0.0153633360767442));
#442=CARTESIAN_POINT('',(0.00462946689074441,-0.00431428563919825,0.0153633360767442));
#443=CARTESIAN_POINT('',(0.00707331339392302,-0.00797176039892527,0.0153633360767442));
#444=CARTESIAN_POINT('',(0.0107307881536501,-0.0104156069021039,0.0153633360767442));
#445=CARTESIAN_POINT('',(0.0150450737928483,-0.0112737716721489,0.0153633360767443));
#446=CARTESIAN_POINT('',(0.0193593594320466,-0.0104156069021039,0.0153633360767443));
#447=CARTESIAN_POINT('',(0.0230168341917736,-0.00797176039892527,0.0153633360767443));
#448=CARTESIAN_POINT('',(0.0254606806949522,-0.00431428563919823,0.0153633360767443));
#449=CARTESIAN_POINT('',(0.0263188454649972,-8.02309607639273E-18,0.0153633360767442));
#450=CARTESIAN_POINT('',(0.0254606806949522,0.00431428563919825,0.0153633360767442));
#451=CARTESIAN_POINT('',(0.0243093829469955,-0.00383740249766495,0.0168931903801373));
#452=CARTESIAN_POINT('',(0.0250726897623946,-8.99887803162969E-18,0.0168931903801373));
#453=CARTESIAN_POINT('',(0.0243093829469955,0.00383740249766498,0.0168931903801373));
#454=CARTESIAN_POINT('',(0.022135669044049,0.00709059525120071,0.0168931903801373));
#455=CARTESIAN_POINT('',(0.0188824762905133,0.00926430915414717,0.0168931903801373));
#456=CARTESIAN_POINT('',(0.0150450737928483,0.0100276159695463,0.0168931903801373));
#457=CARTESIAN_POINT('',(0.0112076712951833,0.00926430915414717,0.0168931903801373));
#458=CARTESIAN_POINT('',(0.00795447854164759,0.00709059525120071,0.0168931903801373));
#459=CARTESIAN_POINT('',(0.00578076463870114,0.00383740249766497,0.0168931903801373));
#460=CARTESIAN_POINT('',(0.005017457823302,2.01973021039318E-18,0.0168931903801373));
#461=CARTESIAN_POINT('',(0.00578076463870113,-0.00383740249766497,0.0168931903801373));
#462=CARTESIAN_POINT('',(0.0079544785416476,-0.00709059525120071,0.0168931903801373));
#463=CARTESIAN_POINT('',(0.0112076712951833,-0.00926430915414717,0.0168931903801373));
#464=CARTESIAN_POINT('',(0.0150450737928483,-0.0100276159695463,0.0168931903801373));
#465=CARTESIAN_POINT('',(0.0188824762905133,-0.00926430915414716,0.0168931903801373));
#466=CARTESIAN_POINT('',(0.022135669044049,-0.00709059525120072,0.0168931903801373));
#467=CARTESIAN_POINT('',(0.0243093829469955,-0.00383740249766495,0.0168931903801373));
#468=CARTESIAN_POINT('',(0.0250726897623946,-8.99887803162969E-18,0.0168931903801373));
#469=CARTESIAN_POINT('',(0.0243093829469955,0.00383740249766498,0.0168931903801373));
#470=CARTESIAN_POINT('',(0.0238923139052005,-0.00366464684410752,0.0182737365694325));
#471=CARTESIAN_POINT('',(0.0246212574845723,-6.1257422745431E-18,0.0182737365694325));
#472=CARTESIAN_POINT('',(0.0238923139052005,0.00366464684410754,0.0182737365694325));
#473=CARTESIAN_POINT('',(0.0218164582191544,0.00677138442630607,0.0182737365694325));
#474=CARTESIAN_POINT('',(0.0187097206369558,0.00884724011235218,0.0182737365694325));
#475=CARTESIAN_POINT('',(0.0150450737928483,0.00957618369172401,0.0182737365694325));
#476=CARTESIAN_POINT('',(0.0113804269487408,0.00884724011235218,0.0182737365694325));
#477=CARTESIAN_POINT('',(0.00827368936654222,0.00677138442630607,0.0182737365694325));
#478=CARTESIAN_POINT('',(0.00619783368049611,0.00366464684410754,0.0182737365694325));
#479=CARTESIAN_POINT('',(0.0054688901011243,4.68177609260113E-19,0.0182737365694325));
#480=CARTESIAN_POINT('',(0.00619783368049612,-0.00366464684410754,0.0182737365694325));
#481=CARTESIAN_POINT('',(0.00827368936654222,-0.00677138442630607,0.0182737365694325));
#482=CARTESIAN_POINT('',(0.0113804269487408,-0.00884724011235218,0.0182737365694325));
#483=CARTESIAN_POINT('',(0.0150450737928483,-0.00957618369172401,0.0182737365694325));
#484=CARTESIAN_POINT('',(0.0187097206369558,-0.00884724011235219,0.0182737365694325));
#485=CARTESIAN_POINT('',(0.0218164582191544,-0.00677138442630607,0.0182737365694325));
#486=CARTESIAN_POINT('',(0.0238923139052005,-0.00366464684410752,0.0182737365694325));
#487=CARTESIAN_POINT('',(0.0246212574845723,-6.1257422745431E-18,0.0182737365694325));
#488=CARTESIAN_POINT('',(0.0238923139052005,0.00366464684410754,0.0182737365694325));
#489=CARTESIAN_POINT('',(0.0242094735695672,-0.0037960186785259,0.0195049746446298));
#490=CARTESIAN_POINT('',(0.0249645486315301,-7.15573433840433E-18,0.0195049746446298));
#491=CARTESIAN_POINT('',(0.0242094735695672,0.00379601867852592,0.0195049746446298));
#492=CARTESIAN_POINT('',(0.0220592017170896,0.00701412792424127,0.0195049746446298));
#493=CARTESIAN_POINT('',(0.0188410924713742,0.00916439977671886,0.0195049746446298));
#494=CARTESIAN_POINT('',(0.0150450737928483,0.00991947483868185,0.0195049746446298));
#495=CARTESIAN_POINT('',(0.0112490551143224,0.00916439977671886,0.0195049746446298));
#496=CARTESIAN_POINT('',(0.00803094586860703,0.00701412792424127,0.0195049746446298));
#497=CARTESIAN_POINT('',(0.00588067401612944,0.00379601867852592,0.0195049746446298));
#498=CARTESIAN_POINT('',(0.00512559895416645,1.32969614340144E-18,0.0195049746446298));
#499=CARTESIAN_POINT('',(0.00588067401612944,-0.00379601867852591,0.0195049746446298));
#500=CARTESIAN_POINT('',(0.00803094586860703,-0.00701412792424127,0.0195049746446298));
#501=CARTESIAN_POINT('',(0.0112490551143224,-0.00916439977671886,0.0195049746446298));
#502=CARTESIAN_POINT('',(0.0150450737928483,-0.00991947483868185,0.0195049746446298));
#503=CARTESIAN_POINT('',(0.0188410924713742,-0.00916439977671886,0.0195049746446298));
#504=CARTESIAN_POINT('',(0.0220592017170896,-0.00701412792424127,0.0195049746446298));
#505=CARTESIAN_POINT('',(0.0242094735695672,-0.0037960186785259,0.0195049746446298));
#506=CARTESIAN_POINT('',(0.0249645486315301,-7.15573433840433E-18,0.0195049746446298));
#507=CARTESIAN_POINT('',(0.0242094735695672,0.00379601867852592,0.0195049746446298));
#508=CARTESIAN_POINT('',(0.0150450737928483,0.,0.0195049746446298));
#509=CARTESIAN_POINT('',(0.0247128569442092,0.,0.0195049746446298));
#510=CARTESIAN_POINT('',(0.0150450737928483,0.,0.0153633360767442));
#511=CARTESIAN_POINT('',(0.0260327905416489,0.,0.0153633360767443));
#512=CARTESIAN_POINT('',(0.0150450737928483,0.,0.0195049746446298));
#513=CARTESIAN_POINT('',(0.0150450737928483,0.,0.0212368637789683));
#514=CARTESIAN_POINT('',(0.0230557591427858,0.,0.0212368637789683));
#515=CARTESIAN_POINT('',(0.0150450737928483,0.,0.0212368637789683));
#516=CARTESIAN_POINT('',(0.0150450737928483,0.,0.0217506848275662));
#517=CARTESIAN_POINT('',(0.0232099480926991,0.,0.0217506848275662));
#518=CARTESIAN_POINT('',(0.0150450737928483,0.,0.0217506848275662));
#519=CARTESIAN_POINT('',(0.0150450737928483,0.,0.0246046930551529));
#520=CARTESIAN_POINT('',(0.0222141891717911,0.,0.0246046930551529));
#521=CARTESIAN_POINT('',(0.0150450737928483,0.,0.0246046930551529));
#522=CARTESIAN_POINT('',(0.0150450737928483,0.,0.0268503576517105));
#523=CARTESIAN_POINT('',(0.0213383790105581,0.,0.0268503576517105));
#524=CARTESIAN_POINT('',(0.0150450737928483,0.,0.0282718184621894));
#525=CARTESIAN_POINT('',(0.0150450737928483,0.,0.0288490001112222));
#526=CARTESIAN_POINT('',(0.0211138129234314,0.,0.0288490001112222));
#527=CARTESIAN_POINT('',(0.0150450737928483,0.,0.0286813186477732));
#528=CARTESIAN_POINT('',(0.0150450737928483,0.,0.0297248084098101));
#529=CARTESIAN_POINT('',(0.0217875130474568,0.,0.0297248084098101));
#530=CARTESIAN_POINT('',(0.0150450737928482,0.,0.0682574884298802));
#531=CARTESIAN_POINT('',(0.0150450737928483,0.,0.030262939631939));
#532=CARTESIAN_POINT('',(0.0229825917631388,0.,0.030262939631939));
#533=CARTESIAN_POINT('',(0.0150450737928483,0.,0.0316801739747073));
#534=CARTESIAN_POINT('',(0.0150450737928483,0.,0.0322478450834751));
#535=CARTESIAN_POINT('',(0.0237765535712242,0.,0.0322478450834751));
#536=CARTESIAN_POINT('',(0.0150450737928483,0.,0.0315279775013322));
#537=CARTESIAN_POINT('',(0.0150450737928483,0.,0.0335123874247074));
#538=CARTESIAN_POINT('',(0.0218703914433718,0.,0.0335123874247074));
#539=CARTESIAN_POINT('',(0.0208348493130386,0.,0.0335123874247074));
#540=CARTESIAN_POINT('',(0.0150450737928483,0.,0.0335123874247074));
#541=CARTESIAN_POINT('',(0.0197993071827054,0.,0.0335123874247074));
#542=CARTESIAN_POINT('',(0.0150450737928483,0.,0.0388570204377174));
#543=CARTESIAN_POINT('',(0.0150450737928483,0.,0.0451166661513259));
#544=CARTESIAN_POINT('',(0.0174582884974334,0.,0.0451166661513259));
#545=CARTESIAN_POINT('',(0.0150450737928483,0.,0.0456300681708734));
#546=CARTESIAN_POINT('',(0.0150450737928483,0.,0.0453039120252198));
#547=CARTESIAN_POINT('',(0.0171417125785272,0.,0.0453039120252198));
#548=CARTESIAN_POINT('',(0.0166880243185041,-0.00164295052565581,0.0453039120252198));
#549=CARTESIAN_POINT('',(0.0173685567085387,-4.60785923306339E-19,0.0453039120252198));
#550=CARTESIAN_POINT('',(0.0166880243185041,0.00164295052565581,0.0453039120252198));
#551=CARTESIAN_POINT('',(0.0150450737928483,0.00232348291569045,0.0453039120252198));
#552=CARTESIAN_POINT('',(0.0134021232671925,0.00164295052565581,0.0453039120252198));
#553=CARTESIAN_POINT('',(0.0127215908771578,2.52839334755409E-19,0.0453039120252198));
#554=CARTESIAN_POINT('',(0.0134021232671925,-0.00164295052565581,0.0453039120252198));
#555=CARTESIAN_POINT('',(0.0150450737928483,-0.00232348291569045,0.0453039120252198));
#556=CARTESIAN_POINT('',(0.0166880243185041,-0.00164295052565581,0.0453039120252198));
#557=CARTESIAN_POINT('',(0.0173685567085387,-4.60785923306339E-19,0.0453039120252198));
#558=CARTESIAN_POINT('',(0.0166880243185041,0.00164295052565581,0.0453039120252198));
#559=CARTESIAN_POINT('',(0.016609753052692,-0.00156467925984371,0.0454253205205877));
#560=CARTESIAN_POINT('',(0.0172578644228832,-4.60785923306339E-19,0.0454253205205877));
#561=CARTESIAN_POINT('',(0.016609753052692,0.00156467925984371,0.0454253205205878));
#562=CARTESIAN_POINT('',(0.0150450737928483,0.00221279063003487,0.0454253205205877));
#563=CARTESIAN_POINT('',(0.0134803945330046,0.00156467925984371,0.0454253205205878));
#564=CARTESIAN_POINT('',(0.0128322831628134,2.79520872593919E-19,0.0454253205205877));
#565=CARTESIAN_POINT('',(0.0134803945330046,-0.00156467925984371,0.0454253205205877));
#566=CARTESIAN_POINT('',(0.0150450737928483,-0.00221279063003487,0.0454253205205878));
#567=CARTESIAN_POINT('',(0.016609753052692,-0.00156467925984371,0.0454253205205877));
#568=CARTESIAN_POINT('',(0.0172578644228832,-4.60785923306339E-19,0.0454253205205877));
#569=CARTESIAN_POINT('',(0.016609753052692,0.00156467925984371,0.0454253205205878));
#570=CARTESIAN_POINT('',(0.0164575141653512,-0.0014124403725029,0.0457625862197899));
#571=CARTESIAN_POINT('',(0.0170425661236852,-4.33680868994202E-19,0.0457625862197899));
#572=CARTESIAN_POINT('',(0.0164575141653512,0.0014124403725029,0.0457625862197899));
#573=CARTESIAN_POINT('',(0.0150450737928483,0.00199749233083691,0.0457625862197899));
#574=CARTESIAN_POINT('',(0.0136326334203454,0.0014124403725029,0.0457625862197899));
#575=CARTESIAN_POINT('',(0.0130475814620114,3.02814278643412E-19,0.0457625862197899));
#576=CARTESIAN_POINT('',(0.0136326334203454,-0.0014124403725029,0.0457625862197899));
#577=CARTESIAN_POINT('',(0.0150450737928483,-0.00199749233083692,0.0457625862197899));
#578=CARTESIAN_POINT('',(0.0164575141653512,-0.0014124403725029,0.0457625862197899));
#579=CARTESIAN_POINT('',(0.0170425661236852,-4.33680868994202E-19,0.0457625862197899));
#580=CARTESIAN_POINT('',(0.0164575141653512,0.0014124403725029,0.0457625862197899));
#581=CARTESIAN_POINT('',(0.0164498402094441,-0.00140476641659583,0.0461495822926096));
#582=CARTESIAN_POINT('',(0.0170317135111644,-6.23416249179165E-19,0.0461495822926096));
#583=CARTESIAN_POINT('',(0.0164498402094441,0.00140476641659583,0.0461495822926096));
#584=CARTESIAN_POINT('',(0.0150450737928483,0.00198663971831608,0.0461495822926096));
#585=CARTESIAN_POINT('',(0.0136403073762525,0.00140476641659583,0.0461495822926096));
#586=CARTESIAN_POINT('',(0.0130584340745322,5.40407020348244E-19,0.0461495822926096));
#587=CARTESIAN_POINT('',(0.0136403073762525,-0.00140476641659583,0.0461495822926096));
#588=CARTESIAN_POINT('',(0.0150450737928483,-0.00198663971831608,0.0461495822926096));
#589=CARTESIAN_POINT('',(0.0164498402094441,-0.00140476641659583,0.0461495822926096));
#590=CARTESIAN_POINT('',(0.0170317135111644,-6.23416249179165E-19,0.0461495822926096));
#591=CARTESIAN_POINT('',(0.0164498402094441,0.00140476641659583,0.0461495822926096));
#592=CARTESIAN_POINT('',(0.0164510570958268,-0.00140598330297852,0.0463410913944244));
#593=CARTESIAN_POINT('',(0.0170334344483906,-4.33680868994202E-19,0.0463410913944244));
#594=CARTESIAN_POINT('',(0.0164510570958268,0.00140598330297852,0.0463410913944244));
#595=CARTESIAN_POINT('',(0.0150450737928483,0.00198836065554234,0.0463410913944244));
#596=CARTESIAN_POINT('',(0.0136390904898698,0.00140598330297852,0.0463410913944244));
#597=CARTESIAN_POINT('',(0.0130567131373059,3.15519772852227E-19,0.0463410913944244));
#598=CARTESIAN_POINT('',(0.0136390904898698,-0.00140598330297852,0.0463410913944244));
#599=CARTESIAN_POINT('',(0.0150450737928483,-0.00198836065554235,0.0463410913944244));
#600=CARTESIAN_POINT('',(0.0164510570958268,-0.00140598330297852,0.0463410913944244));
#601=CARTESIAN_POINT('',(0.0170334344483906,-4.33680868994202E-19,0.0463410913944244));
#602=CARTESIAN_POINT('',(0.0164510570958268,0.00140598330297852,0.0463410913944244));
#603=CARTESIAN_POINT('',(0.0150450737928483,0.,0.0463410913944244));
#604=CARTESIAN_POINT('',(0.0168393086642027,0.,0.0463410913944244));
#605=CARTESIAN_POINT('',(0.0150450737928483,0.,0.0472037273853672));
#606=CARTESIAN_POINT('',(0.0150450737928483,0.,0.0472037273853672));
#607=CARTESIAN_POINT('',(0.0175435799366754,0.,0.0472037273853672));
#608=CARTESIAN_POINT('',(0.0150450737928483,0.,0.0479674165877865));
#609=CARTESIAN_POINT('',(0.0150450737928483,0.,0.0482888784376864));
#610=CARTESIAN_POINT('',(0.0177721601159419,0.,0.0482888784376864));
#611=CARTESIAN_POINT('',(0.0150450737928483,-2.71869896349427E-18,0.0498708936621575));
#612=CARTESIAN_POINT('',(0.0150450737928483,-6.74075480535533E-34,0.0498708936621575));
#613=CARTESIAN_POINT('',(0.0150450737928483,2.71869896349427E-18,0.0498708936621575));
#614=CARTESIAN_POINT('',(0.0150450737928483,3.84482094618327E-18,0.0498708936621575));
#615=CARTESIAN_POINT('',(0.0150450737928483,2.71869896349427E-18,0.0498708936621575));
#616=CARTESIAN_POINT('',(0.0150450737928483,4.68693107559862E-34,0.0498708936621575));
#617=CARTESIAN_POINT('',(0.0150450737928483,-2.71869896349427E-18,0.0498708936621575));
#618=CARTESIAN_POINT('',(0.0150450737928483,-3.84482094618328E-18,0.0498708936621575));
#619=CARTESIAN_POINT('',(0.0150450737928483,-2.71869896349427E-18,0.0498708936621575));
#620=CARTESIAN_POINT('',(0.0150450737928483,-6.74075480535533E-34,0.0498708936621575));
#621=CARTESIAN_POINT('',(0.0150450737928483,2.71869896349427E-18,0.0498708936621575));
#622=CARTESIAN_POINT('',(0.0152700127177935,-0.000224938924945226,0.0498680473001074));
#623=CARTESIAN_POINT('',(0.0153631854712115,-7.45388993583784E-20,0.0498680473001074));
#624=CARTESIAN_POINT('',(0.0152700127177935,0.000224938924945227,0.0498680473001074));
#625=CARTESIAN_POINT('',(0.0150450737928483,0.000318111678363163,0.0498680473001074));
#626=CARTESIAN_POINT('',(0.0148201348679031,0.000224938924945227,0.0498680473001074));
#627=CARTESIAN_POINT('',(0.0147269621144851,3.69518123239689E-20,0.0498680473001074));
#628=CARTESIAN_POINT('',(0.0148201348679031,-0.000224938924945227,0.0498680473001074));
#629=CARTESIAN_POINT('',(0.0150450737928483,-0.000318111678363163,0.0498680473001074));
#630=CARTESIAN_POINT('',(0.0152700127177935,-0.000224938924945226,0.0498680473001074));
#631=CARTESIAN_POINT('',(0.0153631854712115,-7.45388993583784E-20,0.0498680473001074));
#632=CARTESIAN_POINT('',(0.0152700127177935,0.000224938924945227,0.0498680473001074));
#633=CARTESIAN_POINT('',(0.0156555176421309,-0.000610443849282651,0.0498620921378792));
#634=CARTESIAN_POINT('',(0.0159083717635711,-1.21972744404619E-19,0.0498620921378792));
#635=CARTESIAN_POINT('',(0.0156555176421309,0.000610443849282652,0.0498620921378792));
#636=CARTESIAN_POINT('',(0.0150450737928483,0.000863297970722764,0.0498620921378792));
#637=CARTESIAN_POINT('',(0.0144346299435657,0.000610443849282651,0.0498620921378792));
#638=CARTESIAN_POINT('',(0.0141817758221255,1.61148018215131E-19,0.0498620921378792));
#639=CARTESIAN_POINT('',(0.0144346299435657,-0.000610443849282651,0.0498620921378792));
#640=CARTESIAN_POINT('',(0.0150450737928483,-0.000863297970722764,0.0498620921378792));
#641=CARTESIAN_POINT('',(0.0156555176421309,-0.000610443849282651,0.0498620921378792));
#642=CARTESIAN_POINT('',(0.0159083717635711,-1.21972744404619E-19,0.0498620921378792));
#643=CARTESIAN_POINT('',(0.0156555176421309,0.000610443849282652,0.0498620921378792));
#644=CARTESIAN_POINT('',(0.0162835303543647,-0.00123845656151644,0.049604413656681));
#645=CARTESIAN_POINT('',(0.0167965158585548,-3.52365706057789E-19,0.049604413656681));
#646=CARTESIAN_POINT('',(0.0162835303543647,0.00123845656151645,0.049604413656681));
#647=CARTESIAN_POINT('',(0.0150450737928483,0.00175144206570651,0.049604413656681));
#648=CARTESIAN_POINT('',(0.0138066172313318,0.00123845656151645,0.049604413656681));
#649=CARTESIAN_POINT('',(0.0132936317271418,3.81164826264435E-20,0.049604413656681));
#650=CARTESIAN_POINT('',(0.0138066172313318,-0.00123845656151645,0.049604413656681));
#651=CARTESIAN_POINT('',(0.0150450737928483,-0.00175144206570651,0.049604413656681));
#652=CARTESIAN_POINT('',(0.0162835303543647,-0.00123845656151644,0.049604413656681));
#653=CARTESIAN_POINT('',(0.0167965158585548,-3.52365706057789E-19,0.049604413656681));
#654=CARTESIAN_POINT('',(0.0162835303543647,0.00123845656151645,0.049604413656681));
#655=CARTESIAN_POINT('',(0.0168587251744936,-0.0018136513816453,0.0490997992810857));
#656=CARTESIAN_POINT('',(0.0176099641741878,-8.40256683676266E-19,0.0490997992810857));
#657=CARTESIAN_POINT('',(0.0168587251744936,0.0018136513816453,0.0490997992810857));
#658=CARTESIAN_POINT('',(0.0150450737928483,0.00256489038133949,0.0490997992810857));
#659=CARTESIAN_POINT('',(0.013231422411203,0.0018136513816453,0.0490997992810857));
#660=CARTESIAN_POINT('',(0.0124801834115088,5.09066801299835E-19,0.0490997992810857));
#661=CARTESIAN_POINT('',(0.013231422411203,-0.0018136513816453,0.0490997992810857));
#662=CARTESIAN_POINT('',(0.0150450737928483,-0.00256489038133949,0.0490997992810857));
#663=CARTESIAN_POINT('',(0.0168587251744936,-0.0018136513816453,0.0490997992810857));
#664=CARTESIAN_POINT('',(0.0176099641741878,-8.40256683676266E-19,0.0490997992810857));
#665=CARTESIAN_POINT('',(0.0168587251744936,0.0018136513816453,0.0490997992810857));
#666=CARTESIAN_POINT('',(0.0171210459425523,-0.00207597214970402,0.0485761912964804));
#667=CARTESIAN_POINT('',(0.0179809417620686,-5.42101086242752E-19,0.0485761912964804));
#668=CARTESIAN_POINT('',(0.0171210459425523,0.00207597214970403,0.0485761912964804));
#669=CARTESIAN_POINT('',(0.0150450737928483,0.00293586796922026,0.0485761912964804));
#670=CARTESIAN_POINT('',(0.0129691016431443,0.00207597214970403,0.0485761912964804));
#671=CARTESIAN_POINT('',(0.012109205823628,1.88888347237709E-19,0.0485761912964804));
#672=CARTESIAN_POINT('',(0.0129691016431443,-0.00207597214970402,0.0485761912964804));
#673=CARTESIAN_POINT('',(0.0150450737928483,-0.00293586796922026,0.0485761912964804));
#674=CARTESIAN_POINT('',(0.0171210459425523,-0.00207597214970402,0.0485761912964804));
#675=CARTESIAN_POINT('',(0.0179809417620686,-5.42101086242752E-19,0.0485761912964804));
#676=CARTESIAN_POINT('',(0.0171210459425523,0.00207597214970403,0.0485761912964804));
#677=CARTESIAN_POINT('',(0.0171820503377063,-0.00213697654485801,0.0482888784376863));
#678=CARTESIAN_POINT('',(0.0180672150050597,-6.50521303491303E-19,0.0482888784376863));
#679=CARTESIAN_POINT('',(0.0171820503377063,0.00213697654485801,0.0482888784376863));
#680=CARTESIAN_POINT('',(0.0150450737928483,0.0030221412122114,0.0482888784376863));
#681=CARTESIAN_POINT('',(0.0129080972479903,0.00213697654485801,0.0482888784376864));
#682=CARTESIAN_POINT('',(0.0120229325806369,4.64174055095357E-19,0.0482888784376863));
#683=CARTESIAN_POINT('',(0.0129080972479903,-0.00213697654485801,0.0482888784376863));
#684=CARTESIAN_POINT('',(0.0150450737928483,-0.0030221412122114,0.0482888784376864));
#685=CARTESIAN_POINT('',(0.0171820503377063,-0.00213697654485801,0.0482888784376863));
#686=CARTESIAN_POINT('',(0.0180672150050597,-6.50521303491303E-19,0.0482888784376863));
#687=CARTESIAN_POINT('',(0.0171820503377063,0.00213697654485801,0.0482888784376863));
#688=CARTESIAN_POINT('',(0.0150450737928483,0.,0.0498708936621575));
#689=CARTESIAN_POINT('',(0.0150450737928483,1.3622652915955E-18,0.00111823948296863));
#690=CARTESIAN_POINT('',(0.0150450737928483,2.62407954922761E-33,0.00111823948296863));
#691=CARTESIAN_POINT('',(0.0150450737928483,-1.36226529159551E-18,0.00111823948296863));
#692=CARTESIAN_POINT('',(0.0150450737928483,-2.51713804151122E-18,0.00111823948296863));
#693=CARTESIAN_POINT('',(0.0150450737928483,-3.28879934252002E-18,0.00111823948296863));
#694=CARTESIAN_POINT('',(0.0150450737928483,-3.55977075667042E-18,0.00111823948296863));
#695=CARTESIAN_POINT('',(0.0150450737928483,-3.28879934252002E-18,0.00111823948296863));
#696=CARTESIAN_POINT('',(0.0150450737928483,-2.51713804151122E-18,0.00111823948296863));
#697=CARTESIAN_POINT('',(0.0150450737928483,-1.36226529159551E-18,0.00111823948296863));
#698=CARTESIAN_POINT('',(0.0150450737928483,-5.49855115012387E-34,0.00111823948296863));
#699=CARTESIAN_POINT('',(0.0150450737928483,1.36226529159551E-18,0.00111823948296863));
#700=CARTESIAN_POINT('',(0.0150450737928483,2.51713804151122E-18,0.00111823948296863));
#701=CARTESIAN_POINT('',(0.0150450737928483,3.28879934252001E-18,0.00111823948296863));
#702=CARTESIAN_POINT('',(0.0150450737928483,3.55977075667042E-18,0.00111823948296863));
#703=CARTESIAN_POINT('',(0.0150450737928483,3.28879934252002E-18,0.00111823948296863));
#704=CARTESIAN_POINT('',(0.0150450737928483,2.51713804151122E-18,0.00111823948296863));
#705=CARTESIAN_POINT('',(0.0150450737928483,1.3622652915955E-18,0.00111823948296863));
#706=CARTESIAN_POINT('',(0.0150450737928483,2.62407954922761E-33,0.00111823948296863));
#707=CARTESIAN_POINT('',(0.0150450737928483,-1.36226529159551E-18,0.00111823948296863));
#708=CARTESIAN_POINT('',(0.0152209523460959,-7.28512820857054E-5,0.00112010756847707));
#709=CARTESIAN_POINT('',(0.0152354433670822,-1.32137139771671E-19,0.00112010756847707));
#710=CARTESIAN_POINT('',(0.0152209523460959,7.28512820857057E-5,0.00112010756847707));
#711=CARTESIAN_POINT('',(0.0151796854097207,0.000134611616872379,0.00112010756847707));
#712=CARTESIAN_POINT('',(0.015117925074934,0.000175878553247579,0.00112010756847707));
#713=CARTESIAN_POINT('',(0.0150450737928483,0.00019036957423389,0.00112010756847707));
#714=CARTESIAN_POINT('',(0.0149722225107626,0.000175878553247579,0.00112010756847707));
#715=CARTESIAN_POINT('',(0.0149104621759759,0.000134611616872379,0.00112010756847707));
#716=CARTESIAN_POINT('',(0.0148691952396007,7.28512820857057E-5,0.00112010756847707));
#717=CARTESIAN_POINT('',(0.0148547042186144,1.67710869195126E-20,0.00112010756847707));
#718=CARTESIAN_POINT('',(0.0148691952396007,-7.28512820857057E-5,0.00112010756847707));
#719=CARTESIAN_POINT('',(0.0149104621759759,-0.000134611616872379,0.00112010756847707));
#720=CARTESIAN_POINT('',(0.0149722225107626,-0.000175878553247579,0.00112010756847707));
#721=CARTESIAN_POINT('',(0.0150450737928483,-0.00019036957423389,0.00112010756847707));
#722=CARTESIAN_POINT('',(0.015117925074934,-0.000175878553247579,0.00112010756847707));
#723=CARTESIAN_POINT('',(0.0151796854097207,-0.000134611616872379,0.00112010756847707));
#724=CARTESIAN_POINT('',(0.0152209523460959,-7.28512820857054E-5,0.00112010756847707));
#725=CARTESIAN_POINT('',(0.0152354433670822,-1.32137139771671E-19,0.00112010756847707));
#726=CARTESIAN_POINT('',(0.0152209523460959,7.28512820857057E-5,0.00112010756847707));
#727=CARTESIAN_POINT('',(0.0153895651378907,-0.000142692987236719,0.00112834350033015));
#728=CARTESIAN_POINT('',(0.0154179485377905,-2.87991202066462E-19,0.00112834350033015));
#729=CARTESIAN_POINT('',(0.0153895651378907,0.00014269298723672,0.00112834350033015));
#730=CARTESIAN_POINT('',(0.0153087360535301,0.0002636622606818,0.00112834350033015));
#731=CARTESIAN_POINT('',(0.015187766780085,0.00034449134504242,0.00112834350033015));
#732=CARTESIAN_POINT('',(0.0150450737928483,0.000372874744942152,0.00112834350033015));
#733=CARTESIAN_POINT('',(0.0149023808056116,0.00034449134504242,0.00112834350033015));
#734=CARTESIAN_POINT('',(0.0147814115321665,0.0002636622606818,0.00112834350033015));
#735=CARTESIAN_POINT('',(0.0147005824478059,0.00014269298723672,0.00112834350033015));
#736=CARTESIAN_POINT('',(0.0146721990479061,7.1174342216819E-20,0.00112834350033015));
#737=CARTESIAN_POINT('',(0.0147005824478059,-0.00014269298723672,0.00112834350033015));
#738=CARTESIAN_POINT('',(0.0147814115321665,-0.0002636622606818,0.00112834350033015));
#739=CARTESIAN_POINT('',(0.0149023808056116,-0.00034449134504242,0.00112834350033015));
#740=CARTESIAN_POINT('',(0.0150450737928483,-0.000372874744942152,0.00112834350033015));
#741=CARTESIAN_POINT('',(0.015187766780085,-0.00034449134504242,0.00112834350033015));
#742=CARTESIAN_POINT('',(0.0153087360535301,-0.0002636622606818,0.00112834350033015));
#743=CARTESIAN_POINT('',(0.0153895651378907,-0.000142692987236719,0.00112834350033015));
#744=CARTESIAN_POINT('',(0.0154179485377905,-2.87991202066462E-19,0.00112834350033015));
#745=CARTESIAN_POINT('',(0.0153895651378907,0.00014269298723672,0.00112834350033015));
#746=CARTESIAN_POINT('',(0.0157808550860901,-0.000304770590601162,0.0011332243785884));
#747=CARTESIAN_POINT('',(0.0158414777257743,-5.48877349820787E-19,0.0011332243785884));
#748=CARTESIAN_POINT('',(0.0157808550860901,0.000304770590601164,0.0011332243785884));
#749=CARTESIAN_POINT('',(0.0156082164143839,0.000563142621535584,0.0011332243785884));
#750=CARTESIAN_POINT('',(0.0153498443834495,0.000735781293241788,0.0011332243785884));
#751=CARTESIAN_POINT('',(0.0150450737928483,0.000796403932925962,0.0011332243785884));
#752=CARTESIAN_POINT('',(0.0147403032022471,0.000735781293241788,0.0011332243785884));
#753=CARTESIAN_POINT('',(0.0144819311713127,0.000563142621535584,0.0011332243785884));
#754=CARTESIAN_POINT('',(0.0143092924996065,0.000304770590601164,0.0011332243785884));
#755=CARTESIAN_POINT('',(0.0142486698599223,6.15438919351704E-20,0.0011332243785884));
#756=CARTESIAN_POINT('',(0.0143092924996065,-0.000304770590601164,0.0011332243785884));
#757=CARTESIAN_POINT('',(0.0144819311713127,-0.000563142621535584,0.0011332243785884));
#758=CARTESIAN_POINT('',(0.0147403032022471,-0.000735781293241788,0.0011332243785884));
#759=CARTESIAN_POINT('',(0.0150450737928483,-0.000796403932925962,0.0011332243785884));
#760=CARTESIAN_POINT('',(0.0153498443834495,-0.000735781293241789,0.0011332243785884));
#761=CARTESIAN_POINT('',(0.0156082164143839,-0.000563142621535584,0.0011332243785884));
#762=CARTESIAN_POINT('',(0.0157808550860901,-0.000304770590601162,0.0011332243785884));
#763=CARTESIAN_POINT('',(0.0158414777257743,-5.48877349820787E-19,0.0011332243785884));
#764=CARTESIAN_POINT('',(0.0157808550860901,0.000304770590601164,0.0011332243785884));
#765=CARTESIAN_POINT('',(0.016409416858764,-0.000565129401631971,0.00112165498589985));
#766=CARTESIAN_POINT('',(0.0165218280859185,-1.09775469964157E-18,0.00112165498589985));
#767=CARTESIAN_POINT('',(0.016409416858764,0.000565129401631974,0.00112165498589985));
#768=CARTESIAN_POINT('',(0.0160892967676246,0.00104422297477626,0.00112165498589985));
#769=CARTESIAN_POINT('',(0.0156102031944803,0.0013643430659157,0.00112165498589985));
#770=CARTESIAN_POINT('',(0.0150450737928483,0.00147675429307017,0.00112165498589985));
#771=CARTESIAN_POINT('',(0.0144799443912163,0.0013643430659157,0.00112165498589985));
#772=CARTESIAN_POINT('',(0.014000850818072,0.00104422297477626,0.00112165498589985));
#773=CARTESIAN_POINT('',(0.0136807307269326,0.000565129401631973,0.00112165498589985));
#774=CARTESIAN_POINT('',(0.0135683194997781,3.33079990076115E-19,0.00112165498589985));
#775=CARTESIAN_POINT('',(0.0136807307269326,-0.000565129401631974,0.00112165498589985));
#776=CARTESIAN_POINT('',(0.014000850818072,-0.00104422297477626,0.00112165498589985));
#777=CARTESIAN_POINT('',(0.0144799443912163,-0.0013643430659157,0.00112165498589985));
#778=CARTESIAN_POINT('',(0.0150450737928483,-0.00147675429307017,0.00112165498589985));
#779=CARTESIAN_POINT('',(0.0156102031944803,-0.0013643430659157,0.00112165498589985));
#780=CARTESIAN_POINT('',(0.0160892967676246,-0.00104422297477626,0.00112165498589985));
#781=CARTESIAN_POINT('',(0.016409416858764,-0.000565129401631971,0.00112165498589985));
#782=CARTESIAN_POINT('',(0.0165218280859185,-1.09775469964157E-18,0.00112165498589985));
#783=CARTESIAN_POINT('',(0.016409416858764,0.000565129401631974,0.00112165498589985));
#784=CARTESIAN_POINT('',(0.017635348030136,-0.00107292671935018,0.00109975177603125));
#785=CARTESIAN_POINT('',(0.0178487664239068,-2.0870891820346E-18,0.00109975177603125));
#786=CARTESIAN_POINT('',(0.017635348030136,0.00107292671935018,0.00109975177603125));
#787=CARTESIAN_POINT('',(0.0170275838646325,0.00198251007178423,0.00109975177603125));
#788=CARTESIAN_POINT('',(0.0161180005121985,0.00259027423728768,0.00109975177603125));
#789=CARTESIAN_POINT('',(0.0150450737928483,0.00280369263105852,0.00109975177603125));
#790=CARTESIAN_POINT('',(0.0139721470734981,0.00259027423728768,0.00109975177603125));
#791=CARTESIAN_POINT('',(0.0130625637210641,0.00198251007178423,0.00109975177603125));
#792=CARTESIAN_POINT('',(0.0124547995555606,0.00107292671935018,0.00109975177603125));
#793=CARTESIAN_POINT('',(0.0122413811617898,3.24936396945531E-19,0.00109975177603125));
#794=CARTESIAN_POINT('',(0.0124547995555606,-0.00107292671935018,0.00109975177603125));
#795=CARTESIAN_POINT('',(0.0130625637210641,-0.00198251007178423,0.00109975177603125));
#796=CARTESIAN_POINT('',(0.0139721470734981,-0.00259027423728768,0.00109975177603125));
#797=CARTESIAN_POINT('',(0.0150450737928483,-0.00280369263105852,0.00109975177603125));
#798=CARTESIAN_POINT('',(0.0161180005121985,-0.00259027423728768,0.00109975177603125));
#799=CARTESIAN_POINT('',(0.0170275838646325,-0.00198251007178423,0.00109975177603125));
#800=CARTESIAN_POINT('',(0.017635348030136,-0.00107292671935018,0.00109975177603125));
#801=CARTESIAN_POINT('',(0.0178487664239068,-2.0870891820346E-18,0.00109975177603125));
#802=CARTESIAN_POINT('',(0.017635348030136,0.00107292671935018,0.00109975177603125));
#803=CARTESIAN_POINT('',(0.0194562451161677,-0.00182716698807016,0.00112112322802191));
#804=CARTESIAN_POINT('',(0.0198196912273627,-3.55076211489003E-18,0.00112112322802191));
#805=CARTESIAN_POINT('',(0.0194562451161677,0.00182716698807017,0.00112112322802191));
#806=CARTESIAN_POINT('',(0.0184212381583649,0.00337616436551665,0.00112112322802191));
#807=CARTESIAN_POINT('',(0.0168722407809185,0.00441117132331941,0.00112112322802191));
#808=CARTESIAN_POINT('',(0.0150450737928483,0.0047746174345144,0.00112112322802191));
#809=CARTESIAN_POINT('',(0.0132179068047781,0.00441117132331941,0.0011211232280219));
#810=CARTESIAN_POINT('',(0.0116689094273317,0.00337616436551665,0.0011211232280219));
#811=CARTESIAN_POINT('',(0.0106339024695289,0.00182716698807017,0.0011211232280219));
#812=CARTESIAN_POINT('',(0.0102704563583339,8.09677470791406E-19,0.0011211232280219));
#813=CARTESIAN_POINT('',(0.0106339024695289,-0.00182716698807017,0.0011211232280219));
#814=CARTESIAN_POINT('',(0.0116689094273317,-0.00337616436551665,0.0011211232280219));
#815=CARTESIAN_POINT('',(0.0132179068047781,-0.0044111713233194,0.0011211232280219));
#816=CARTESIAN_POINT('',(0.0150450737928483,-0.0047746174345144,0.00112112322802191));
#817=CARTESIAN_POINT('',(0.0168722407809185,-0.00441117132331941,0.00112112322802191));
#818=CARTESIAN_POINT('',(0.018421238158365,-0.00337616436551665,0.00112112322802191));
#819=CARTESIAN_POINT('',(0.0194562451161677,-0.00182716698807016,0.00112112322802191));
#820=CARTESIAN_POINT('',(0.0198196912273627,-3.55076211489003E-18,0.00112112322802191));
#821=CARTESIAN_POINT('',(0.0194562451161677,0.00182716698807017,0.00112112322802191));
#822=CARTESIAN_POINT('',(0.0216744663816017,-0.00274598432055733,0.00127054710111237));
#823=CARTESIAN_POINT('',(0.0222206766235912,-5.31259064517897E-18,0.00127054710111237));
#824=CARTESIAN_POINT('',(0.0216744663816017,0.00274598432055734,0.00127054710111237));
#825=CARTESIAN_POINT('',(0.020118991213568,0.00507391742071968,0.00127054710111237));
#826=CARTESIAN_POINT('',(0.0177910581134056,0.0066293925887534,0.00127054710111237));
#827=CARTESIAN_POINT('',(0.0150450737928483,0.00717560283074289,0.00127054710111236));
#828=CARTESIAN_POINT('',(0.012299089472291,0.0066293925887534,0.00127054710111236));
#829=CARTESIAN_POINT('',(0.00997115637212863,0.00507391742071968,0.00127054710111236));
#830=CARTESIAN_POINT('',(0.0084156812040949,0.00274598432055734,0.00127054710111236));
#831=CARTESIAN_POINT('',(0.00786947096210542,1.03471030207523E-18,0.00127054710111236));
#832=CARTESIAN_POINT('',(0.0084156812040949,-0.00274598432055734,0.00127054710111236));
#833=CARTESIAN_POINT('',(0.00997115637212862,-0.00507391742071968,0.00127054710111236));
#834=CARTESIAN_POINT('',(0.012299089472291,-0.0066293925887534,0.00127054710111236));
#835=CARTESIAN_POINT('',(0.0150450737928483,-0.00717560283074289,0.00127054710111236));
#836=CARTESIAN_POINT('',(0.0177910581134057,-0.00662939258875341,0.00127054710111237));
#837=CARTESIAN_POINT('',(0.020118991213568,-0.00507391742071968,0.00127054710111237));
#838=CARTESIAN_POINT('',(0.0216744663816017,-0.00274598432055733,0.00127054710111237));
#839=CARTESIAN_POINT('',(0.0222206766235912,-5.31259064517897E-18,0.00127054710111237));
#840=CARTESIAN_POINT('',(0.0216744663816017,0.00274598432055734,0.00127054710111237));
#841=CARTESIAN_POINT('',(0.024731838085031,-0.00401238914533346,0.00173795721488211));
#842=CARTESIAN_POINT('',(0.0255299519087777,-7.26415455565288E-18,0.00173795721488211));
#843=CARTESIAN_POINT('',(0.024731838085031,0.00401238914533348,0.00173795721488211));
#844=CARTESIAN_POINT('',(0.0224590022085364,0.00741392841568811,0.00173795721488211));
#845=CARTESIAN_POINT('',(0.0190574629381818,0.00968676429218267,0.00173795721488211));
#846=CARTESIAN_POINT('',(0.0150450737928483,0.0104848781159294,0.00173795721488211));
#847=CARTESIAN_POINT('',(0.0110326846475148,0.00968676429218267,0.00173795721488211));
#848=CARTESIAN_POINT('',(0.00763114537716019,0.00741392841568811,0.00173795721488211));
#849=CARTESIAN_POINT('',(0.00535830950066563,0.00401238914533348,0.00173795721488211));
#850=CARTESIAN_POINT('',(0.0045601956769189,2.87523348712002E-18,0.00173795721488211));
#851=CARTESIAN_POINT('',(0.00535830950066563,-0.00401238914533348,0.00173795721488211));
#852=CARTESIAN_POINT('',(0.00763114537716019,-0.00741392841568811,0.00173795721488211));
#853=CARTESIAN_POINT('',(0.0110326846475148,-0.00968676429218267,0.00173795721488211));
#854=CARTESIAN_POINT('',(0.0150450737928483,-0.0104848781159294,0.00173795721488211));
#855=CARTESIAN_POINT('',(0.0190574629381818,-0.00968676429218267,0.00173795721488211));
#856=CARTESIAN_POINT('',(0.0224590022085364,-0.00741392841568811,0.00173795721488211));
#857=CARTESIAN_POINT('',(0.024731838085031,-0.00401238914533346,0.00173795721488211));
#858=CARTESIAN_POINT('',(0.0255299519087777,-7.26415455565288E-18,0.00173795721488211));
#859=CARTESIAN_POINT('',(0.024731838085031,0.00401238914533348,0.00173795721488211));
#860=CARTESIAN_POINT('',(0.0268165866944641,-0.00487592029349909,0.00250139478435748));
#861=CARTESIAN_POINT('',(0.0277864675431985,-1.01915004213637E-17,0.00250139478435748));
#862=CARTESIAN_POINT('',(0.0268165866944641,0.00487592029349912,0.00250139478435748));
#863=CARTESIAN_POINT('',(0.0240545997154888,0.00900952592264052,0.00250139478435748));
#864=CARTESIAN_POINT('',(0.0199209940863474,0.0117715129016158,0.00250139478435748));
#865=CARTESIAN_POINT('',(0.0150450737928483,0.0127413937503502,0.00250139478435748));
#866=CARTESIAN_POINT('',(0.0101691534993492,0.0117715129016158,0.00250139478435748));
#867=CARTESIAN_POINT('',(0.00603554787020779,0.00900952592264052,0.00250139478435748));
#868=CARTESIAN_POINT('',(0.00327356089123253,0.00487592029349912,0.00250139478435748));
#869=CARTESIAN_POINT('',(0.00230368004249811,1.70663903981941E-19,0.00250139478435748));
#870=CARTESIAN_POINT('',(0.00327356089123254,-0.00487592029349911,0.00250139478435748));
#871=CARTESIAN_POINT('',(0.00603554787020778,-0.00900952592264052,0.00250139478435748));
#872=CARTESIAN_POINT('',(0.0101691534993492,-0.0117715129016158,0.00250139478435748));
#873=CARTESIAN_POINT('',(0.0150450737928483,-0.0127413937503502,0.00250139478435748));
#874=CARTESIAN_POINT('',(0.0199209940863474,-0.0117715129016158,0.00250139478435748));
#875=CARTESIAN_POINT('',(0.0240545997154888,-0.00900952592264052,0.00250139478435748));
#876=CARTESIAN_POINT('',(0.0268165866944641,-0.00487592029349909,0.00250139478435748));
#877=CARTESIAN_POINT('',(0.0277864675431985,-1.01915004213637E-17,0.00250139478435748));
#878=CARTESIAN_POINT('',(0.0268165866944641,0.00487592029349912,0.00250139478435748));
#879=CARTESIAN_POINT('',(0.0278284705414111,-0.00529505630645078,0.00329274404793978));
#880=CARTESIAN_POINT('',(0.0288817227267358,-1.02999206386123E-17,0.00329274404793978));
#881=CARTESIAN_POINT('',(0.027828470541411,0.00529505630645081,0.00329274404793978));
#882=CARTESIAN_POINT('',(0.0248290620828977,0.00978398829004943,0.00329274404793978));
#883=CARTESIAN_POINT('',(0.0203401300992991,0.0127833967485627,0.00329274404793978));
#884=CARTESIAN_POINT('',(0.0150450737928483,0.0138366489338875,0.00329274404793978));
#885=CARTESIAN_POINT('',(0.00975001748639749,0.0127833967485627,0.00329274404793978));
#886=CARTESIAN_POINT('',(0.00526108550279887,0.00978398829004943,0.00329274404793978));
#887=CARTESIAN_POINT('',(0.00226167704428557,0.00529505630645081,0.00329274404793978));
#888=CARTESIAN_POINT('',(0.00120842485896085,1.79012472468316E-18,0.00329274404793978));
#889=CARTESIAN_POINT('',(0.00226167704428557,-0.00529505630645081,0.00329274404793978));
#890=CARTESIAN_POINT('',(0.00526108550279887,-0.00978398829004943,0.00329274404793978));
#891=CARTESIAN_POINT('',(0.00975001748639749,-0.0127833967485627,0.00329274404793978));
#892=CARTESIAN_POINT('',(0.0150450737928483,-0.0138366489338875,0.00329274404793978));
#893=CARTESIAN_POINT('',(0.0203401300992991,-0.0127833967485627,0.00329274404793978));
#894=CARTESIAN_POINT('',(0.0248290620828977,-0.00978398829004943,0.00329274404793978));
#895=CARTESIAN_POINT('',(0.0278284705414111,-0.00529505630645078,0.00329274404793978));
#896=CARTESIAN_POINT('',(0.0288817227267358,-1.02999206386123E-17,0.00329274404793978));
#897=CARTESIAN_POINT('',(0.027828470541411,0.00529505630645081,0.00329274404793978));
#898=CARTESIAN_POINT('',(0.0150450737928483,0.,0.00329274404793978));
#899=CARTESIAN_POINT('',(0.0285306386649609,0.,0.00329274404793978));
#900=CARTESIAN_POINT('',(0.0150450737928483,0.,0.00111823948296863));
#901=CARTESIAN_POINT('',(0.0278284705414111,-0.00529505630645078,0.00329274404793978));
#902=CARTESIAN_POINT('',(0.0288817227267358,-1.02999206386123E-17,0.00329274404793978));
#903=CARTESIAN_POINT('',(0.027828470541411,0.00529505630645081,0.00329274404793978));
#904=CARTESIAN_POINT('',(0.0248290620828977,0.00978398829004943,0.00329274404793978));
#905=CARTESIAN_POINT('',(0.0203401300992991,0.0127833967485627,0.00329274404793978));
#906=CARTESIAN_POINT('',(0.0150450737928483,0.0138366489338875,0.00329274404793978));
#907=CARTESIAN_POINT('',(0.00975001748639749,0.0127833967485627,0.00329274404793978));
#908=CARTESIAN_POINT('',(0.00526108550279887,0.00978398829004943,0.00329274404793978));
#909=CARTESIAN_POINT('',(0.00226167704428557,0.00529505630645081,0.00329274404793978));
#910=CARTESIAN_POINT('',(0.00120842485896085,1.79012472468316E-18,0.00329274404793978));
#911=CARTESIAN_POINT('',(0.00226167704428557,-0.00529505630645081,0.00329274404793978));
#912=CARTESIAN_POINT('',(0.00526108550279887,-0.00978398829004943,0.00329274404793978));
#913=CARTESIAN_POINT('',(0.00975001748639749,-0.0127833967485627,0.00329274404793978));
#914=CARTESIAN_POINT('',(0.0150450737928483,-0.0138366489338875,0.00329274404793978));
#915=CARTESIAN_POINT('',(0.0203401300992991,-0.0127833967485627,0.00329274404793978));
#916=CARTESIAN_POINT('',(0.0248290620828977,-0.00978398829004943,0.00329274404793978));
#917=CARTESIAN_POINT('',(0.0278284705414111,-0.00529505630645078,0.00329274404793978));
#918=CARTESIAN_POINT('',(0.0288817227267358,-1.02999206386123E-17,0.00329274404793978));
#919=CARTESIAN_POINT('',(0.027828470541411,0.00529505630645081,0.00329274404793978));
#920=CARTESIAN_POINT('',(0.0279856923990211,-0.00536017973217435,0.0034160108961969));
#921=CARTESIAN_POINT('',(0.0290518984391283,-1.01915004213637E-17,0.0034160108961969));
#922=CARTESIAN_POINT('',(0.0279856923990211,0.00536017973217437,0.0034160108961969));
#923=CARTESIAN_POINT('',(0.0249493944831238,0.00990432069027547,0.0034160108961969));
#924=CARTESIAN_POINT('',(0.0204052535250227,0.0129406186061727,0.0034160108961969));
#925=CARTESIAN_POINT('',(0.0150450737928483,0.01400682464628,0.0034160108961969));
#926=CARTESIAN_POINT('',(0.00968489406067394,0.0129406186061727,0.0034160108961969));
#927=CARTESIAN_POINT('',(0.00514075310257284,0.00990432069027547,0.0034160108961969));
#928=CARTESIAN_POINT('',(0.00210445518667554,0.00536017973217437,0.0034160108961969));
#929=CARTESIAN_POINT('',(0.00103824914656829,3.45866713421082E-18,0.0034160108961969));
#930=CARTESIAN_POINT('',(0.00210445518667554,-0.00536017973217437,0.0034160108961969));
#931=CARTESIAN_POINT('',(0.00514075310257284,-0.00990432069027546,0.0034160108961969));
#932=CARTESIAN_POINT('',(0.00968489406067392,-0.0129406186061728,0.0034160108961969));
#933=CARTESIAN_POINT('',(0.0150450737928483,-0.01400682464628,0.0034160108961969));
#934=CARTESIAN_POINT('',(0.0204052535250227,-0.0129406186061728,0.0034160108961969));
#935=CARTESIAN_POINT('',(0.0249493944831238,-0.00990432069027546,0.0034160108961969));
#936=CARTESIAN_POINT('',(0.0279856923990211,-0.00536017973217435,0.0034160108961969));
#937=CARTESIAN_POINT('',(0.0290518984391283,-1.01915004213637E-17,0.0034160108961969));
#938=CARTESIAN_POINT('',(0.0279856923990211,0.00536017973217437,0.0034160108961969));
#939=CARTESIAN_POINT('',(0.0281630421898738,-0.00543364042082955,0.00378024486725566));
#940=CARTESIAN_POINT('',(0.0292438604694707,-1.05167610731094E-17,0.00378024486725566));
#941=CARTESIAN_POINT('',(0.0281630421898737,0.00543364042082958,0.00378024486725566));
#942=CARTESIAN_POINT('',(0.0250851321365092,0.0100400583436609,0.00378024486725566));
#943=CARTESIAN_POINT('',(0.0204787142136779,0.0131179683970254,0.00378024486725565));
#944=CARTESIAN_POINT('',(0.0150450737928483,0.0141987866766224,0.00378024486725565));
#945=CARTESIAN_POINT('',(0.00961143337201872,0.0131179683970254,0.00378024486725565));
#946=CARTESIAN_POINT('',(0.00500501544918738,0.0100400583436609,0.00378024486725565));
#947=CARTESIAN_POINT('',(0.00192710539582289,0.00543364042082958,0.00378024486725565));
#948=CARTESIAN_POINT('',(0.000846287116225871,1.27144277594301E-18,0.00378024486725565));
#949=CARTESIAN_POINT('',(0.00192710539582288,-0.00543364042082957,0.00378024486725565));
#950=CARTESIAN_POINT('',(0.00500501544918737,-0.0100400583436609,0.00378024486725565));
#951=CARTESIAN_POINT('',(0.00961143337201873,-0.0131179683970254,0.00378024486725565));
#952=CARTESIAN_POINT('',(0.0150450737928483,-0.0141987866766224,0.00378024486725565));
#953=CARTESIAN_POINT('',(0.0204787142136779,-0.0131179683970254,0.00378024486725565));
#954=CARTESIAN_POINT('',(0.0250851321365092,-0.0100400583436609,0.00378024486725566));
#955=CARTESIAN_POINT('',(0.0281630421898738,-0.00543364042082955,0.00378024486725566));
#956=CARTESIAN_POINT('',(0.0292438604694707,-1.05167610731094E-17,0.00378024486725566));
#957=CARTESIAN_POINT('',(0.0281630421898737,0.00543364042082958,0.00378024486725566));
#958=CARTESIAN_POINT('',(0.0282758955069052,-0.00548038579530275,0.00411669417581998));
#959=CARTESIAN_POINT('',(0.0293660120196027,-1.0842021724855E-17,0.00411669417581997));
#960=CARTESIAN_POINT('',(0.0282758955069051,0.00548038579530279,0.00411669417581998));
#961=CARTESIAN_POINT('',(0.02517150632594,0.0101264325330917,0.00411669417581997));
#962=CARTESIAN_POINT('',(0.0205254595881511,0.0132308217140568,0.00411669417581998));
#963=CARTESIAN_POINT('',(0.0150450737928483,0.0143209382267544,0.00411669417581998));
#964=CARTESIAN_POINT('',(0.00956468799754552,0.0132308217140568,0.00411669417581997));
#965=CARTESIAN_POINT('',(0.00491864125975665,0.0101264325330917,0.00411669417581997));
#966=CARTESIAN_POINT('',(0.00181425207879146,0.00548038579530278,0.00411669417581997));
#967=CARTESIAN_POINT('',(0.000724135566093944,1.80257213854086E-18,0.00411669417581997));
#968=CARTESIAN_POINT('',(0.00181425207879147,-0.00548038579530278,0.00411669417581997));
#969=CARTESIAN_POINT('',(0.00491864125975664,-0.0101264325330917,0.00411669417581997));
#970=CARTESIAN_POINT('',(0.00956468799754552,-0.0132308217140568,0.00411669417581997));
#971=CARTESIAN_POINT('',(0.0150450737928483,-0.0143209382267544,0.00411669417581998));
#972=CARTESIAN_POINT('',(0.0205254595881511,-0.0132308217140568,0.00411669417581998));
#973=CARTESIAN_POINT('',(0.02517150632594,-0.0101264325330917,0.00411669417581998));
#974=CARTESIAN_POINT('',(0.0282758955069052,-0.00548038579530275,0.00411669417581998));
#975=CARTESIAN_POINT('',(0.0293660120196027,-1.0842021724855E-17,0.00411669417581997));
#976=CARTESIAN_POINT('',(0.0282758955069051,0.00548038579530279,0.00411669417581998));
#977=CARTESIAN_POINT('',(0.0283188682193116,-0.00549818567559346,0.00447345365513954));
#978=CARTESIAN_POINT('',(0.0294125253483368,-1.05167610731094E-17,0.00447345365513954));
#979=CARTESIAN_POINT('',(0.0283188682193116,0.00549818567559349,0.00447345365513954));
#980=CARTESIAN_POINT('',(0.0252043962161034,0.0101593224232551,0.00447345365513954));
#981=CARTESIAN_POINT('',(0.0205432594684418,0.0132737944264633,0.00447345365513954));
#982=CARTESIAN_POINT('',(0.0150450737928483,0.0143674515554885,0.00447345365513954));
#983=CARTESIAN_POINT('',(0.00954688811725482,0.0132737944264633,0.00447345365513954));
#984=CARTESIAN_POINT('',(0.00488575136959317,0.0101593224232551,0.00447345365513954));
#985=CARTESIAN_POINT('',(0.00177127936638503,0.00549818567559349,0.00447345365513954));
#986=CARTESIAN_POINT('',(0.000677622237359797,2.62238091747481E-18,0.00447345365513954));
#987=CARTESIAN_POINT('',(0.00177127936638502,-0.00549818567559349,0.00447345365513954));
#988=CARTESIAN_POINT('',(0.00488575136959317,-0.0101593224232551,0.00447345365513954));
#989=CARTESIAN_POINT('',(0.00954688811725481,-0.0132737944264633,0.00447345365513954));
#990=CARTESIAN_POINT('',(0.0150450737928483,-0.0143674515554885,0.00447345365513954));
#991=CARTESIAN_POINT('',(0.0205432594684418,-0.0132737944264633,0.00447345365513954));
#992=CARTESIAN_POINT('',(0.0252043962161034,-0.0101593224232551,0.00447345365513954));
#993=CARTESIAN_POINT('',(0.0283188682193116,-0.00549818567559346,0.00447345365513954));
#994=CARTESIAN_POINT('',(0.0294125253483368,-1.05167610731094E-17,0.00447345365513954));
#995=CARTESIAN_POINT('',(0.0283188682193116,0.00549818567559349,0.00447345365513954));
#996=CARTESIAN_POINT('',(0.0283373964565551,-0.0055058603227466,0.00507730594578071));
#997=CARTESIAN_POINT('',(0.0294325801678144,-1.05167610731094E-17,0.00507730594578071));
#998=CARTESIAN_POINT('',(0.0283373964565551,0.00550586032274663,0.00507730594578071));
#999=CARTESIAN_POINT('',(0.0252185771149515,0.0101735033221032,0.00507730594578071));
#1000=CARTESIAN_POINT('',(0.0205509341155949,0.0132923226637068,0.00507730594578071));
#1001=CARTESIAN_POINT('',(0.0150450737928483,0.0143875063749661,0.00507730594578071));
#1002=CARTESIAN_POINT('',(0.00953921347010167,0.0132923226637068,0.00507730594578071));
#1003=CARTESIAN_POINT('',(0.00487157047074511,0.0101735033221032,0.00507730594578071));
#1004=CARTESIAN_POINT('',(0.00175275112914148,0.00550586032274663,0.00507730594578071));
#1005=CARTESIAN_POINT('',(0.000657567417882226,1.26125191079635E-18,0.00507730594578071));
#1006=CARTESIAN_POINT('',(0.00175275112914148,-0.00550586032274663,0.00507730594578071));
#1007=CARTESIAN_POINT('',(0.00487157047074511,-0.0101735033221032,0.00507730594578071));
#1008=CARTESIAN_POINT('',(0.00953921347010168,-0.0132923226637068,0.00507730594578071));
#1009=CARTESIAN_POINT('',(0.0150450737928483,-0.0143875063749661,0.00507730594578071));
#1010=CARTESIAN_POINT('',(0.020550934115595,-0.0132923226637068,0.00507730594578071));
#1011=CARTESIAN_POINT('',(0.0252185771149515,-0.0101735033221032,0.00507730594578071));
#1012=CARTESIAN_POINT('',(0.0283373964565551,-0.0055058603227466,0.00507730594578071));
#1013=CARTESIAN_POINT('',(0.0294325801678144,-1.05167610731094E-17,0.00507730594578071));
#1014=CARTESIAN_POINT('',(0.0283373964565551,0.00550586032274663,0.00507730594578071));
#1015=CARTESIAN_POINT('',(0.0283287265153391,-0.00550226911550993,0.00612863324211028));
#1016=CARTESIAN_POINT('',(0.0294231958910651,-1.0842021724855E-17,0.00612863324211027));
#1017=CARTESIAN_POINT('',(0.0283287265153391,0.00550226911550996,0.00612863324211028));
#1018=CARTESIAN_POINT('',(0.0252119414292256,0.0101668676363773,0.00612863324211027));
#1019=CARTESIAN_POINT('',(0.0205473429083583,0.0132836527224908,0.00612863324211027));
#1020=CARTESIAN_POINT('',(0.0150450737928483,0.0143781220982168,0.00612863324211027));
#1021=CARTESIAN_POINT('',(0.00954280467733835,0.0132836527224908,0.00612863324211027));
#1022=CARTESIAN_POINT('',(0.00487820615647104,0.0101668676363773,0.00612863324211027));
#1023=CARTESIAN_POINT('',(0.00176142107035755,0.00550226911550996,0.00612863324211027));
#1024=CARTESIAN_POINT('',(0.000666951694631485,2.29581662908378E-18,0.00612863324211027));
#1025=CARTESIAN_POINT('',(0.00176142107035755,-0.00550226911550996,0.00612863324211027));
#1026=CARTESIAN_POINT('',(0.00487820615647104,-0.0101668676363773,0.00612863324211027));
#1027=CARTESIAN_POINT('',(0.00954280467733835,-0.0132836527224908,0.00612863324211027));
#1028=CARTESIAN_POINT('',(0.0150450737928483,-0.0143781220982168,0.00612863324211027));
#1029=CARTESIAN_POINT('',(0.0205473429083583,-0.0132836527224908,0.00612863324211028));
#1030=CARTESIAN_POINT('',(0.0252119414292256,-0.0101668676363773,0.00612863324211027));
#1031=CARTESIAN_POINT('',(0.0283287265153391,-0.00550226911550993,0.00612863324211028));
#1032=CARTESIAN_POINT('',(0.0294231958910651,-1.0842021724855E-17,0.00612863324211027));
#1033=CARTESIAN_POINT('',(0.0283287265153391,0.00550226911550996,0.00612863324211028));
#1034=CARTESIAN_POINT('',(0.0282856322890208,-0.00548441890250891,0.00712130112778809));
#1035=CARTESIAN_POINT('',(0.0293765510366206,-9.86623976961809E-18,0.00712130112778809));
#1036=CARTESIAN_POINT('',(0.0282856322890208,0.00548441890250894,0.00712130112778809));
#1037=CARTESIAN_POINT('',(0.0251789585363404,0.0101338847434921,0.00712130112778809));
#1038=CARTESIAN_POINT('',(0.0205294926953572,0.0132405584961725,0.00712130112778809));
#1039=CARTESIAN_POINT('',(0.0150450737928483,0.0143314772437723,0.00712130112778809));
#1040=CARTESIAN_POINT('',(0.00956065489033937,0.0132405584961725,0.00712130112778809));
#1041=CARTESIAN_POINT('',(0.00491118904935626,0.0101338847434921,0.00712130112778808));
#1042=CARTESIAN_POINT('',(0.00180451529667585,0.00548441890250894,0.00712130112778808));
#1043=CARTESIAN_POINT('',(0.000713596549076057,2.78863760315307E-18,0.00712130112778808));
#1044=CARTESIAN_POINT('',(0.00180451529667584,-0.00548441890250894,0.00712130112778808));
#1045=CARTESIAN_POINT('',(0.00491118904935625,-0.0101338847434921,0.00712130112778808));
#1046=CARTESIAN_POINT('',(0.00956065489033936,-0.0132405584961724,0.00712130112778809));
#1047=CARTESIAN_POINT('',(0.0150450737928483,-0.0143314772437723,0.00712130112778809));
#1048=CARTESIAN_POINT('',(0.0205294926953573,-0.0132405584961725,0.00712130112778809));
#1049=CARTESIAN_POINT('',(0.0251789585363404,-0.010133884743492,0.00712130112778809));
#1050=CARTESIAN_POINT('',(0.0282856322890208,-0.00548441890250891,0.00712130112778809));
#1051=CARTESIAN_POINT('',(0.0293765510366206,-9.86623976961809E-18,0.00712130112778809));
#1052=CARTESIAN_POINT('',(0.0282856322890208,0.00548441890250894,0.00712130112778809));
#1053=CARTESIAN_POINT('',(0.0282411387786998,-0.00546598908709639,0.00780514115389289));
#1054=CARTESIAN_POINT('',(0.0293283916080855,-1.09504419421036E-17,0.00780514115389289));
#1055=CARTESIAN_POINT('',(0.0282411387786998,0.00546598908709643,0.00780514115389289));
#1056=CARTESIAN_POINT('',(0.0251449046778452,0.0100998308849969,0.00780514115389289));
#1057=CARTESIAN_POINT('',(0.0205110628799447,0.0131960649858515,0.00780514115389289));
#1058=CARTESIAN_POINT('',(0.0150450737928483,0.0142833178152372,0.00780514115389289));
#1059=CARTESIAN_POINT('',(0.00957908470575188,0.0131960649858515,0.00780514115389289));
#1060=CARTESIAN_POINT('',(0.00494524290785143,0.0100998308849969,0.00780514115389289));
#1061=CARTESIAN_POINT('',(0.00184900880699679,0.00546598908709642,0.00780514115389289));
#1062=CARTESIAN_POINT('',(0.000761755977611061,2.00425862421599E-18,0.00780514115389289));
#1063=CARTESIAN_POINT('',(0.00184900880699679,-0.00546598908709642,0.00780514115389289));
#1064=CARTESIAN_POINT('',(0.00494524290785142,-0.0100998308849969,0.00780514115389289));
#1065=CARTESIAN_POINT('',(0.00957908470575188,-0.0131960649858515,0.00780514115389289));
#1066=CARTESIAN_POINT('',(0.0150450737928483,-0.0142833178152372,0.00780514115389289));
#1067=CARTESIAN_POINT('',(0.0205110628799447,-0.0131960649858515,0.00780514115389289));
#1068=CARTESIAN_POINT('',(0.0251449046778452,-0.0100998308849969,0.00780514115389289));
#1069=CARTESIAN_POINT('',(0.0282411387786998,-0.00546598908709639,0.00780514115389289));
#1070=CARTESIAN_POINT('',(0.0293283916080855,-1.09504419421036E-17,0.00780514115389289));
#1071=CARTESIAN_POINT('',(0.0282411387786998,0.00546598908709643,0.00780514115389289));
#1072=CARTESIAN_POINT('',(0.0150450737928483,0.,0.00780514115389287));
#1073=CARTESIAN_POINT('',(0.0289659739982903,0.,0.00780514115389287));
#1074=CARTESIAN_POINT('',(0.0150450737928483,0.,0.00797904913846964));
#1075=CARTESIAN_POINT('',(0.0150450737928483,0.,0.00943147211341879));
#1076=CARTESIAN_POINT('',(0.0294162506409901,0.,0.00943147211341879));
#1077=CARTESIAN_POINT('',(0.0150450737928483,0.,0.00943147211341879));
#1078=CARTESIAN_POINT('',(0.0150450737928483,0.,0.0097945055950256));
#1079=CARTESIAN_POINT('',(0.0296692919965526,0.,0.0097945055950256));
#1080=CARTESIAN_POINT('',(0.0150450737928483,0.,0.0107592564501028));
#1081=CARTESIAN_POINT('',(0.0150450737928483,0.,0.0107592564501028));
#1082=CARTESIAN_POINT('',(0.0299723409116256,0.,0.0107592564501028));
#1083=CARTESIAN_POINT('',(0.0150450737928483,0.,0.0254945665725631));
#1084=CARTESIAN_POINT('',(0.0150450737928483,0.,0.0113853821530938));
#1085=CARTESIAN_POINT('',(0.0299723409116256,0.,0.0113853821530938));
#1086=CARTESIAN_POINT('',(0.0150450737928483,0.,0.0113853821530938));
#1087=CARTESIAN_POINT('',(0.0150450737928483,0.,0.0139126311987632));
#1088=CARTESIAN_POINT('',(0.0290559437125914,0.,0.0139126311987632));
#1089=CARTESIAN_POINT('',(0.0150450737928483,0.,0.011321642447095));
#1090=MECHANICAL_DESIGN_GEOMETRIC_PRESENTATION_REPRESENTATION('',(#285),
#1091);
#1091=(
GEOMETRIC_REPRESENTATION_CONTEXT(3)
GLOBAL_UNCERTAINTY_ASSIGNED_CONTEXT((#1092))
GLOBAL_UNIT_ASSIGNED_CONTEXT((#1095,#1094,#1093))
REPRESENTATION_CONTEXT('Pawn','TOP_LEVEL_ASSEMBLY_PART')
);
#1092=UNCERTAINTY_MEASURE_WITH_UNIT(LENGTH_MEASURE(2.E-5),#1095,
'DISTANCE_ACCURACY_VALUE','Maximum Tolerance applied to model');
#1093=(
NAMED_UNIT(*)
SI_UNIT($,.STERADIAN.)
SOLID_ANGLE_UNIT()
);
#1094=(
NAMED_UNIT(*)
PLANE_ANGLE_UNIT()
SI_UNIT($,.RADIAN.)
);
#1095=(
LENGTH_UNIT()
NAMED_UNIT(*)
SI_UNIT($,.METRE.)
);
#1096=PRODUCT_DEFINITION_SHAPE('','',#1097);
#1097=PRODUCT_DEFINITION('','',#1099,#1098);
#1098=PRODUCT_DEFINITION_CONTEXT('',#1105,'design');
#1099=PRODUCT_DEFINITION_FORMATION_WITH_SPECIFIED_SOURCE('','',#1101,
 .NOT_KNOWN.);
#1100=PRODUCT_RELATED_PRODUCT_CATEGORY('','',(#1101));
#1101=PRODUCT('Pawn','Pawn','Pawn',(#1103));
#1102=PRODUCT_CATEGORY('','');
#1103=PRODUCT_CONTEXT('',#1105,'mechanical');
#1104=APPLICATION_PROTOCOL_DEFINITION('international standard',
'ap242_managed_model_based_3d_engineering',2020,#1105);
#1105=APPLICATION_CONTEXT('managed model based 3d engineering');
ENDSEC;
END-ISO-10303-21;
